<svg style="position: absolute; width: 0; height: 0;" width="0" height="0" version="1.1" xmlns="http://www.w3.org/2000/svg" xmlns:xlink="http://www.w3.org/1999/xlink"><defs><symbol id="spinnercycle" viewBox="0 -212 1024 1024"><path d="M475 -188 q-13 0 -21.5 8.5 q-8.5 8.5 -8.5 21.5 l0 125 q0 13 8.5 21.5 q8.5 8.5 21.5 8.5 l0 0 q13 0 21 -8.5 q8 -8.5 9 -21.5 l0 -125 q-1 -13 -9 -21.5 q-8 -8.5 -21 -8.5 l0 0 l0 0 ZM475 576 q-13 0 -21.5 8.5 q-8.5 8.5 -8.5 21.5 l0 126 q0 12 8.5 20.5 q8.5 8.5 21.5 9.5 l0 0 q13 -1 21 -9.5 q8 -8.5 9 -20.5 l0 -126 q-1 -13 -9 -21.5 q-8 -8.5 -21 -8.5 l0 0 l0 0 ZM950 287 q-1 -13 -9 -21.5 q-8 -8.5 -21 -8.5 l-126 0 q-13 0 -21 8.5 q-8 8.5 -9 21.5 l0 0 q1 12 9 20.5 q8 8.5 21 8.5 l126 0 q13 0 21 -8.5 q8 -8.5 9 -20.5 l0 0 l0 0 ZM186 287 q-1 -13 -9.5 -21.5 q-8.5 -8.5 -20.5 -8.5 l-126 0 q-13 0 -21.5 8.5 q-8.5 8.5 -8.5 21.5 l0 0 q0 12 8.5 20.5 q8.5 8.5 21.5 8.5 l126 0 q12 0 20.5 -8.5 q8.5 -8.5 9.5 -20.5 l0 0 l0 0 ZM886 49 q-6 -11 -18 -14 q-12 -3 -23 3 l-109 63 q-10 7 -13.5 18.5 q-3.5 11.5 2.5 22.5 l0 0 q7 11 18.5 14 q11.5 3 22.5 -3 l109 -63 q11 -7 14 -18.5 q3 -11.5 -3 -22.5 l0 0 l0 0 ZM224 431 q-6 -11 -17.5 -14 q-11.5 -3 -23.5 3 l-108 63 q-11 7 -14 18.5 q-3 11.5 3 22.5 l0 0 q6 11 17.5 14 q11.5 3 22.5 -3 l109 -63 q11 -7 14 -18.5 q3 -11.5 -3 -22.5 l0 0 l0 0 ZM712 -125 q-11 -6 -22.5 -3 q-11.5 3 -17.5 14 l-63 109 q-6 11 -3 22.5 q3 11.5 14 18.5 l0 0 q11 6 22.5 3 q11.5 -3 17.5 -14 l63 -109 q6 -11 3 -22.5 q-3 -11.5 -14 -18.5 l0 0 l0 0 ZM330 537 q-11 -6 -22.5 -3 q-11.5 3 -18.5 14 l-63 109 q-6 11 -2.5 22.5 q3.5 11.5 13.5 18.5 l0 0 q12 6 23.5 3 q11.5 -3 17.5 -14 l63 -109 q6 -11 3 -22.5 q-3 -11.5 -14 -18.5 l0 0 l0 0 ZM237 -125 q-10 7 -13.5 18.5 q-3.5 11.5 2.5 22.5 l63 109 q7 11 18.5 14 q11.5 3 22.5 -3 l0 0 q11 -7 14 -18.5 q3 -11.5 -3 -22.5 l-63 -109 q-6 -11 -17.5 -14 q-11.5 -3 -23.5 3 l0 0 l0 0 ZM620 537 q-11 7 -14 18.5 q-3 11.5 3 22.5 l63 109 q6 11 17.5 14 q11.5 3 22.5 -3 l0 0 q11 -7 14 -18.5 q3 -11.5 -3 -22.5 l-63 -109 q-6 -11 -17.5 -14 q-11.5 -3 -22.5 3 l0 0 l0 0 ZM64 49 q-6 11 -3 22.5 q3 11.5 14 18.5 l108 63 q12 6 23.5 3 q11.5 -3 17.5 -14 l0 0 q6 -11 3 -22.5 q-3 -11.5 -14 -18.5 l-109 -63 q-11 -6 -22.5 -3 q-11.5 3 -17.5 14 l0 0 l0 0 ZM725 431 q-6 11 -2.5 22.5 q3.5 11.5 13.5 18.5 l109 63 q11 6 23 3 q12 -3 18 -14 l0 0 q6 -11 3 -22.5 q-3 -11.5 -14 -18.5 l-109 -63 q-11 -6 -22.5 -3 q-11.5 3 -18.5 14 l0 0 l0 0 Z"></path></symbol><symbol id="chat" viewBox="0 -212 1024 1024"><path d="M512 -190 q214 4 355.5 126 q141.5 122 146.5 306 q-5 184 -146.5 306 q-141.5 122 -355.5 126 q-56 0 -109 -10 q-75 52 -178 78 q-103 26 -113 26 q6 -1 44 -51.5 q38 -50.5 40 -135.5 q-90 -60 -142.5 -147.5 q-52.5 -87.5 -53.5 -191.5 q6 -184 151.5 -306 q145.5 -122 360.5 -126 ZM511 590 q178 -2 295.5 -93 q117.5 -91 121.5 -242 q-4 -153 -121.5 -255 q-117.5 -102 -295.5 -106 q-179 4 -300 106 q-121 102 -125 255 q4 151 125 242 q121 91 300 93 ZM516 167 q31 1 52 19.5 q21 18.5 21 51 q0 32.5 -21 54 q-21 21.5 -51.5 21.5 q-30.5 0 -51 -21.5 q-20.5 -21.5 -20.5 -54 q0 -32.5 20.5 -51 q20.5 -18.5 50.5 -19.5 ZM284 167 q31 1 52 19.5 q21 18.5 21 51 q0 32.5 -21 54 q-21 21.5 -52 21.5 q-31 0 -51 -21.5 q-20 -21.5 -20 -54 q0 -32.5 20 -51 q20 -18.5 51 -19.5 ZM748 167 q31 1 51.5 19.5 q20.5 18.5 20.5 51 q0 32.5 -20.5 54 q-20.5 21.5 -51.5 21.5 q-31 0 -51 -21.5 q-20 -21.5 -20 -54 q0 -32.5 20 -51 q20 -18.5 51 -19.5 Z"></path></symbol><symbol id="eye" viewBox="0 -212 1024 1024"><path d="M986 287 q-3 -83 -136.5 -185.5 q-133.5 -102.5 -356.5 -111.5 q-216 9 -352.5 111.5 q-136.5 102.5 -140.5 185.5 q4 83 140.5 185.5 q136.5 102.5 352.5 112.5 q221 -10 355.5 -113.5 q134.5 -103.5 137.5 -184.5 ZM493 44 q102 2 169 71 q67 69 69 172 q-2 103 -69 172 q-67 69 -169 71 q-101 -2 -168 -71 q-67 -69 -69 -172 q2 -103 69 -172 q67 -69 168 -71 ZM493 132 q64 1 107 45 q43 44 44 110 q-1 65 -44 109 q-43 44 -107 46 q-64 -2 -107 -46 q-43 -44 -44 -109 q1 -66 44 -110 q43 -44 107 -45 Z"></path></symbol><symbol id="bars" viewBox="0 -212 1024 1024"><path d="M0 316 l895 0 l0 -48 l-895 0 l0 48 ZM0 17 l895 0 l0 -48 l-895 0 l0 48 ZM0 615 l895 0 l0 -47 l-895 0 l0 47 Z"></path></symbol><symbol id="weibo" viewBox="0 -212 1024 1024"><path d="M468 380.51 q23 4 54 43 q31 39 5 125 q-36 87 -120 128 q-84 41 -166 33 q-79 -5 -151.5 -48.5 q-72.5 -43.5 -87.5 -155.5 q-2 -2 3.5 -46 q5.5 -44 42.5 -113 q2 -7 48.5 -72 q46.5 -65 114.5 -101 q64 -25 82 3.5 q18 28.5 16 61.5 q-5 25 -4.5 36 q0.5 11 23.5 2 q5 -5 48 -20 q43 -15 74 14 q19 30 13 57.5 q-6 27.5 -7.5 29 q-1.5 1.5 -3 10 q-1.5 8.5 15.5 13.5 ZM248 666.51 q80 -7 132.5 -57.5 q52.5 -50.5 54.5 -118.5 q-2 -67 -54.5 -103.5 q-52.5 -36.5 -132.5 -33.5 q-79 7 -131.5 52.5 q-52.5 45.5 -54.5 112.5 q2 68 54.5 109.5 q52.5 41.5 131.5 38.5 ZM228 411.51 q77 -4 96 57 q19 61 -5 107 q-25 40 -66.5 53 q-41.5 13 -88.5 -18 q-21 -16 -25 -36.5 q-4 -20.5 -3 -22.5 q-4 -7 7 -64 q11 -57 85 -76 ZM202 586.51 q15 -3 24.5 -15 q9.5 -12 9.5 -28 q0 -16 -9.5 -26 q-9.5 -10 -26.5 -8 q-15 2 -24 15.5 q-9 13.5 -9 29.5 q0 16 10 25 q10 9 25 7 ZM263 519.51 q5 -5 6.5 -12 q1.5 -7 -1.5 -13 q-3 -6 -8 -7 q-5 -1 -10.5 4.5 q-5.5 5.5 -6.5 12.5 q-1 7 2 13 q3 6 8 6.5 q5 0.5 10 -4.5 ZM518 327.51 q-7 -1 -12 -7 q-5 -6 -5 -15 q3 -7 -1.5 -46 q-4.5 -39 -57.5 -30 q-8 0 -12.5 -6 q-4.5 -6 -4.5 -15.5 q0 -9.5 4.5 -15.5 q4.5 -6 12.5 -6 q7 -6 51 5.5 q44 11.5 42 114.5 l0 2 q-1 8 -6 13 q-5 5 -11 6 ZM506 73.51 q54 13 97 78.5 q43 65.5 18 194.5 l-1 0 q-2 17 -8.5 22 q-6.5 5 -16 4.5 q-9.5 -0.5 -16.5 -8 q-7 -7.5 -7 -20 q0 -12.5 3 -21.5 l2 -10 q2 -5 4 -32.5 q2 -27.5 -12 -72.5 q-31 -58 -71.5 -70.5 q-40.5 -12.5 -50.5 -6.5 q-7 3 -14 5 l-8 2 q-11 -1 -18 -9.5 q-7 -8.5 -7 -22.5 q0 -11 5 -19 q5 -8 13 -11 l3 -2 q9 -3 32.5 -6 q23.5 -3 52.5 5 Z"></path></symbol><symbol id="weixin" viewBox="0 -212 1024 1024"><path d="M718 349.78 q16 0 27 -11.5 q11 -11.5 11 -28 q0 -16.5 -11 -27.5 q-11 -11 -27 -11 q-16 0 -27 11 q-11 11 -11 27.5 q0 16.5 11 28 q11 11.5 27 11.5 ZM518 349.78 q17 0 28 -11.5 q11 -11.5 11 -28 q0 -16.5 -11 -27.5 q-11 -11 -27.5 -11 q-16.5 0 -27.5 11 q-11 11 -11 27.5 q0 16.5 11 28 q11 11.5 27 11.5 ZM896 405.78 q0 54 -25 100.5 q-25 46.5 -69 80.5 l18 66 q0 16 -7 14 q-7 -2 -8 -3 l-62 -42 q-56 24 -123 25 q-99 -2 -172 -52.5 q-73 -50.5 -97 -130.5 q-8 -28 -8 -58 q3 -102 81 -170 q78 -68 196 -71 l20 1 q110 9 182 75.5 q72 66.5 74 164.5 ZM196 134.78 q17 0 27.5 -11 q10.5 -11 10.5 -28 q0 -17 -10.5 -28 q-10.5 -11 -27 -11 q-16.5 0 -27.5 11 q-11 11 -11 28 q0 17 11 28 q11 11 27 11 ZM441 56.78 q-17 0 -28 11 q-11 11 -11 28 q0 17 11 28 q11 11 27.5 11 q16.5 0 27.5 -11 q11 -11 11 -28 q0 -17 -11 -28 q-11 -11 -27 -11 ZM620 144.78 q-126 3 -210 76.5 q-84 73.5 -87 184.5 q0 30 8 59 l-10 0 q-64 0 -119 -20 l-88 61 q-22 7 -23 -4 q-1 -11 0 -13 l24 -89 q-53 -39 -83.5 -94 q-30.5 -55 -31.5 -120 q4 -118 94 -196.5 q90 -78.5 227 -81.5 q123 2 210 68 q87 66 106 170 q-8 -1 -17 -1 Z"></path></symbol><symbol id="pengyouquan" viewBox="0 -212 1024 1024"><path d="M295 434 l-271 0 q-24 -68 -24 -144 q0 -69 20 -132 l265 265 l10 11 ZM873 145 q23 68 24 145 q-1 69 -20 131 l-265 -265 l-10 -11 l271 0 ZM455 79 l191 -192 q64 32 114 80.5 q50 48.5 84 111.5 l-389 0 ZM440 501 l-191 190 q-63 -31 -113 -79.5 q-50 -48.5 -83 -110.5 l387 0 ZM659 298 l191 191 q-31 63 -80 113 q-49 50 -111 84 l0 -381 l0 -7 ZM448 -159 q69 1 131 20 l-275 275 l0 -271 q68 -23 144 -24 ZM582 453 l10 -9 l0 270 q-68 24 -144 24 q-69 0 -131 -20 l265 -265 ZM237 281 l-190 -190 q31 -63 79.5 -113.5 q48.5 -50.5 110.5 -83.5 l0 387 Z"></path></symbol><symbol id="map" viewBox="0 -212 1024 1024"><path d="M851 -152.2 q13 4 14 17 l0 581 q0 8 -7 13.5 q-7 5.5 -16 3.5 l-78 -18 q-36 84 -83 163 q-47 79 -61 98 q-5 8 -15 8 q-10 0 -15 -8 q-10 -14 -44.5 -70 q-34.5 -56 -69.5 -126 l-30 13 q-3 2 -7 2 q-4 0 -7 -1 l-202 -85 l-205 80 q-9 3 -17 -2 q-8 -5 -8 -15 l0 -580 q1 -12 12 -17 l211 -82 q7 -3 14 0 l201 84 l219 -100 q5 -3 11 -1 l183 42 ZM605 661.8 q43 -67 92.5 -161 q49.5 -94 54.5 -147 q-2 -62 -43.5 -103.5 q-41.5 -41.5 -103.5 -42.5 q-62 1 -103.5 42.5 q-41.5 41.5 -42.5 103.5 q4 53 53.5 147 q49.5 94 92.5 161 ZM828 -120.2 l-162 -37 l-220 100 q-7 4 -14 1 l-202 -85 l-193 76 l0 540 l186 -72 q3 -2 6.5 -2 q3.5 0 7.5 2 l201 84 l22 -10 q-17 -36 -27.5 -68 q-10.5 -32 -10.5 -55 q2 -77 53.5 -129 q51.5 -52 129.5 -54 q78 2 129.5 54 q51.5 52 53.5 129 q0 24 -11 57 l51 12 l0 -543 ZM230 -67.2 q8 0 13 5 q5 5 5 13 l0 368 q0 8 -5 13 q-5 5 -13 5 q-8 0 -13 -5 q-5 -5 -6 -13 l0 -368 q1 -8 6 -13 q5 -5 13 -5 ZM439 3.8 q7 0 12.5 5.5 q5.5 5.5 5.5 12.5 l0 141 q0 8 -5.5 13 q-5.5 5 -13 5 q-7.5 0 -13 -5 q-5.5 -5 -5.5 -13 l0 -141 q0 -7 5.5 -12.5 q5.5 -5.5 13.5 -5.5 ZM650 -75.2 q0 -8 5.5 -13 q5.5 -5 13 -5 q7.5 0 12.5 5 q5 5 6 13 l0 186 q-1 8 -6 13 q-5 5 -12.5 5 q-7.5 0 -13 -5 q-5.5 -5 -5.5 -13 l0 -186 ZM605 264.8 q29 0 48.5 19.5 q19.5 19.5 19.5 48.5 q0 29 -19.5 48.5 q-19.5 19.5 -48.5 19.5 q-29 0 -48 -19.5 q-19 -19.5 -19 -48.5 q0 -29 19 -48.5 q19 -19.5 48 -19.5 ZM605 364.8 q14 -1 23 -9.5 q9 -8.5 9 -22 q0 -13.5 -9 -22.5 q-9 -9 -22.5 -9 q-13.5 0 -22.5 9 q-9 9 -9 22.5 q0 13.5 9 22 q9 8.5 22 9.5 Z"></path></symbol><symbol id="qq" viewBox="0 -212 1024 1024"><path d="M119 246 l-8 6 l-24 21 l-24 25 l-6 8 l-14 19 l-12 20 l-5 11 l-5 9 l-7 19 l-9 28 l-4 26 l-1 16 l0 22 l4 23 l3 9 l4 10 l2 1 l1 3 l2 0 l8 0 l7 -2 l5 -2 l12 -7 l10 -10 l4 -4 l12 -15 l9 -18 l0 -2 l1 -2 l3 -1 l1 0 l0 1 l2 0 l2 11 l3 8 l10 26 l5 7 l3 7 l4 7 l4 6 l4 6 l17 20 l15 14 l16 13 l4 2 l1 2 l0 1 l-3 1 l-20 2 l-16 5 l-8 4 l-5 1 l-9 7 l-7 10 l-3 5 l-3 9 l0 11 l-1 3 l0 4 l-1 4 l0 3 l4 12 l5 9 l7 7 l7 5 l6 4 l8 4 l17 7 l9 2 l10 3 l42 7 l22 2 l61 0 l10 0 l24 -2 l12 -3 l16 -4 l22 -9 l28 -14 l7 -4 l5 -5 l27 2 l11 0 l4 1 l17 6 l13 4 l14 5 l13 4 l13 2 l14 4 l40 5 l26 2 l37 0 l11 -2 l12 0 l46 -10 l13 -5 l15 -7 l6 -3 l6 -5 l9 -10 l6 -8 l0 -2 l2 -3 l0 -3 l0 -3 l1 -3 l-1 -8 l-3 -8 l-3 -4 l-5 -8 l-12 -9 l-9 -7 l-18 -10 l-22 -11 l-5 -3 l-2 -2 l15 -15 l10 -15 l19 -29 l16 -43 l4 -6 l2 -2 l2 1 l10 21 l11 17 l10 12 l7 5 l7 3 l3 0 l9 -3 l10 -11 l4 -8 l2 -4 l5 -14 l2 -11 l2 -19 l0 -19 l-4 -30 l-2 -15 l-5 -17 l-6 -17 l-7 -17 l-13 -26 l-11 -21 l-6 -10 l-4 -8 l-24 -36 l0 -2 l2 -6 l2 -5 l4 -15 l0 -6 l1 -4 l0 -4 l-4 -18 l-4 -16 l-3 -7 l-16 -28 l-6 -40 l-3 -13 l-10 -39 l-6 -17 l-11 -26 l-20 -34 l-7 -8 l-6 -8 l-7 -8 l-15 -15 l-9 -7 l-4 -3 l-5 -4 l-20 -13 l-11 -7 l-12 -5 l-24 -11 l-13 -4 l-26 -7 l-25 -6 l-40 -4 l-39 0 l-13 0 l-38 6 l-13 2 l-11 3 l-34 11 l-11 5 l-11 5 l-19 10 l-9 7 l-16 13 l-11 10 l-18 19 l-16 19 l-17 24 l-3 5 l-6 9 l-9 17 l-11 25 l-5 16 l-4 14 l-3 13 l-3 21 l0 19 l-3 2 l-4 8 l-2 3 l-4 16 l-2 12 l0 5 l-5 7 l-4 8 l-5 14 l-3 12 l0 14 l2 11 l2 5 l-3 2 Z"></path></symbol><symbol id="circlefilled" viewBox="0 -212 1024 1024"><path d="M250 384 q3 -90 62 -149 q59 -59 149 -62 q89 3 148.5 62 q59.5 59 61.5 149 q-2 89 -61.5 148.5 q-59.5 59.5 -148.5 61.5 q-90 -2 -149 -61.5 q-59 -59.5 -62 -148.5 ZM921 384 q-4 -196 -134 -326 q-130 -130 -326 -135 q-196 5 -326 135 q-130 130 -135 326 q5 195 135 325 q130 130 326 135 q196 -5 326 -135 q130 -130 134 -325 ZM461 -16 q169 5 282 117.5 q113 112.5 117 282.5 q-4 169 -117 282 q-113 113 -282 117 q-170 -4 -282.5 -117 q-112.5 -113 -117.5 -282 q5 -170 117.5 -282.5 q112.5 -112.5 282.5 -117.5 Z"></path></symbol><symbol id="list" viewBox="0 -212 1024 1024"><path d="M854 265 q14 0 23.5 -10 q9.5 -10 9.5 -24.5 q0 -14.5 -9.5 -24 q-9.5 -9.5 -23.5 -9.5 l-547 0 q-14 0 -23.5 9.5 q-9.5 9.5 -9.5 24 q0 14.5 9.5 24.5 q9.5 10 23.5 10 l547 0 ZM854 504 q14 -1 23.5 -10.5 q9.5 -9.5 9.5 -24 q0 -14.5 -9.5 -24 q-9.5 -9.5 -23.5 -9.5 l-547 0 q-14 0 -23.5 9.5 q-9.5 9.5 -9.5 24 q0 14.5 9.5 24 q9.5 9.5 23.5 10.5 l547 0 ZM854 743 q14 -1 23.5 -10.5 q9.5 -9.5 9.5 -24 q0 -14.5 -9.5 -24 q-9.5 -9.5 -23.5 -10.5 l-547 0 q-14 1 -23.5 10.5 q-9.5 9.5 -9.5 24 q0 14.5 9.5 24 q9.5 9.5 23.5 10.5 l547 0 ZM103 333 q43 -1 72 -30 q29 -29 30 -72 q-1 -44 -30 -73 q-29 -29 -72 -30 q-44 1 -73 30 q-29 29 -30 73 q1 43 30 72 q29 29 73 30 ZM103 197 q14 0 23.5 9.5 q9.5 9.5 9.5 24 q0 14.5 -9.5 24 q-9.5 9.5 -24 9.5 q-14.5 0 -24 -9.5 q-9.5 -9.5 -9.5 -24 q0 -14.5 9.5 -24 q9.5 -9.5 24.5 -9.5 ZM103 572 q43 -1 72 -30 q29 -29 30 -72 q-1 -44 -30 -73 q-29 -29 -72 -30 q-44 1 -73 30 q-29 29 -30 73 q1 43 30 72 q29 29 73 30 ZM103 436 q14 0 23.5 9.5 q9.5 9.5 9.5 24 q0 14.5 -9.5 24 q-9.5 9.5 -24 9.5 q-14.5 0 -24 -9.5 q-9.5 -9.5 -9.5 -24 q0 -14.5 9.5 -24 q9.5 -9.5 24.5 -9.5 ZM103 811 q43 -1 72 -30 q29 -29 30 -72 q-1 -44 -30 -73 q-29 -29 -72 -30 q-44 1 -73 30 q-29 29 -30 73 q1 43 30 72 q29 29 73 30 ZM103 674 q14 1 23.5 10.5 q9.5 9.5 9.5 24 q0 14.5 -9.5 24 q-9.5 9.5 -24 9.5 q-14.5 0 -24 -9.5 q-9.5 -9.5 -9.5 -24 q0 -14.5 9.5 -24 q9.5 -9.5 24.5 -10.5 Z"></path></symbol><symbol id="spinner" viewBox="0 -212 1024 1024"><path d="M512 -224 q218 5 362.5 149.5 q144.5 144.5 149.5 362.5 q-1 41 -28 68 q-27 27 -68 27 q-41 0 -68 -27 q-27 -27 -28 -68 q-4 -190 -121.5 -316.5 q-117.5 -126.5 -294.5 -131.5 q-174 5 -290.5 127.5 q-116.5 122.5 -125.5 308.5 q10 -213 154 -354 q144 -141 358 -146 ZM512 800 q-218 -5 -362.5 -149.5 q-144.5 -144.5 -149.5 -362.5 q1 -41 28 -68 q27 -27 68 -27 q41 0 68 27 q27 27 28 68 q4 190 121.5 316.5 q117.5 126.5 294.5 131.5 q174 -5 290.5 -127.5 q116.5 -122.5 125.5 -308.5 q-10 213 -154 354 q-144 141 -358 146 Z"></path></symbol><symbol id="pulldown" viewBox="0 -212 1024 1024"><path d="M0 343 l144 0 l0 -432 l155 0 l0 432 l145 0 l-222 296 l-222 -296 Z"></path></symbol><symbol id="image" viewBox="0 -212 1024 1024"><path d="M672 224 q-41 -1 -68 -28 q-27 -27 -27 -68 q0 -41 27 -68 q27 -27 68 -27 q41 0 68 27 q27 27 27 68 q0 41 -27 68 q-27 27 -68 28 ZM840 -96 q24 1 39.5 17 q15.5 16 16.5 40 l0 654 q-1 24 -16.5 40 q-15.5 16 -39.5 17 l-784 0 q-24 -1 -39.5 -17 q-15.5 -16 -16.5 -40 l0 -654 q1 -24 16.5 -40 q15.5 -16 39.5 -17 l784 0 ZM832 513 l-1 -521 q0 -11 -7.5 -17.5 q-7.5 -6.5 -17.5 -6.5 l-716 0 q-10 0 -17 6.5 q-7 6.5 -9 16.5 l0 521 l253 -305 q13 -14 33.5 -14.5 q20.5 -0.5 33.5 14.5 l108 116 l8 8 q9 8 22 8 q13 0 23 -9 l38 -32 q11 -10 25 -11 q16 1 26 12 l198 214 Z"></path></symbol><symbol id="camera" viewBox="0 -212 1024 1024"><path d="M707 192.04 q27 1 43.5 18 q16.5 17 17.5 43 l0 352 q-1 28 -17.5 47 q-16.5 19 -43.5 20 l-640 0 q-27 -1 -46.5 -20 q-19.5 -19 -20.5 -47 l0 -352 q1 -26 20.5 -43 q19.5 -17 46.5 -18 l27 0 l0 -32 l68 0 l0 32 l27 0 q47 -53 69.5 -75 q22.5 -22 39.5 -21 l177 0 q17 -1 39.5 21 q22.5 22 69.5 75 l123 0 ZM736 253.04 q0 -13 -8 -21 q-8 -8 -21 -8 l-138 0 l-9 -6 l-50 -57 q-13 -16 -22 -24 q-8 -7 -11 -8 q-3 -1 -3 -1 l-177 0 q1 0 -2 1 q-3 1 -10 7 q-17 16 -51 54 l-22 28 l-9 6 l-136 0 q-15 0 -25 8.5 q-10 8.5 -10 20.5 l0 352 q1 14 11 24 q10 10 24 11 l640 0 q13 0 21 -10 q8 -10 8 -25 l0 -352 ZM384 251.04 q73 2 121 50 q48 48 50 121 q-2 73 -50 121 q-48 48 -121 50 q-73 -2 -121 -50 q-48 -48 -50 -121 q2 -73 50 -121 q48 -48 121 -50 ZM384 561.04 q59 -1 98.5 -40.5 q39.5 -39.5 40.5 -98.5 q-1 -59 -40.5 -98.5 q-39.5 -39.5 -98.5 -40.5 q-59 1 -98.5 40.5 q-39.5 39.5 -40.5 98.5 q1 59 40.5 98.5 q39.5 39.5 98.5 40.5 ZM576 290.04 l34 0 l0 -34 l-34 0 l0 34 ZM384 422.04 l0 0 ZM320 422.04 q1 -27 19 -45 q18 -18 45 -18 q27 0 45 18 q18 18 18 45 q0 27 -18 45 q-18 18 -45 18 q-27 0 -45 -18 q-18 -18 -19 -45 Z"></path></symbol><symbol id="contact" viewBox="0 -212 1024 1024"><path d="M416 -128 q177 4 294.5 121.5 q117.5 117.5 121.5 294.5 q-4 177 -121.5 294.5 q-117.5 117.5 -294.5 121.5 q-177 -4 -294.5 -121.5 q-117.5 -117.5 -121.5 -294.5 q4 -177 121.5 -294.5 q117.5 -117.5 294.5 -121.5 ZM416 -93 q-162 4 -269.5 111.5 q-107.5 107.5 -111.5 269.5 q0 70 23.5 132.5 q23.5 62.5 65.5 112.5 q29 -13 82.5 -32 q53.5 -19 98.5 -32 q3 0 4 -3.5 q1 -3.5 1 -17.5 q0 -32 -8 -48 q-5 -11 -10.5 -28 q-5.5 -17 -7.5 -35 q-7 -7 -14 -22.5 q-7 -15.5 -13 -43.5 q-5 -23 -4 -35 q1 -12 5 -20 l1 -3 q1 -7 -0.5 -30.5 q-1.5 -23.5 -5.5 -47.5 q-4 -17 2 -45.5 q6 -28.5 28 -57.5 q13 -18 41 -35 q28 -17 75 -21 l35 0 q47 4 75 21 q28 17 42 35 q21 29 27 57.5 q6 28.5 2 45.5 q-4 24 -5.5 47.5 q-1.5 23.5 -0.5 30.5 l1 3 q4 8 5 20 q1 12 -4 35 q-5 28 -12.5 43.5 q-7.5 15.5 -14.5 22.5 q-2 18 -7.5 35 q-5.5 17 -11 28 q-5.5 11 -9 23 q-3.5 12 -4 25 q-0.5 13 0.5 16.5 q1 3.5 5 3.5 q43 13 98 32 q55 19 88 32 q42 -50 65 -112 q23 -62 23 -132 q-4 -162 -111.5 -269.5 q-107.5 -107.5 -269.5 -111.5 Z"></path></symbol><symbol id="contactfilled" viewBox="0 -212 1024 1024"><path d="M416 -128 q177 4 294.5 121.5 q117.5 117.5 121.5 294.5 q-4 177 -121.5 294.5 q-117.5 117.5 -294.5 121.5 q-177 -4 -294.5 -121.5 q-117.5 -117.5 -121.5 -294.5 q4 -177 121.5 -294.5 q117.5 -117.5 294.5 -121.5 ZM416 669 q89 0 164 -36.5 q75 -36.5 128 -100.5 q-33 -13 -88 -32 q-55 -19 -98 -32 q-3 0 -4 -3.5 q-1 -3.5 -1 -17 q0 -13.5 4 -25 q4 -11.5 9.5 -23 q5.5 -11.5 10.5 -28.5 q5 -17 8 -34 q6 -7 13.5 -22.5 q7.5 -15.5 13.5 -43.5 q4 -23 3 -35 q-1 -12 -4 -20 l-1 -3 q-1 -7 0.5 -30.5 q1.5 -23.5 5.5 -47.5 q3 -17 -3 -45.5 q-6 -28.5 -27 -57.5 q-13 -18 -41 -35 q-28 -17 -76 -21 l-35 0 q-47 4 -74.5 21 q-27.5 17 -41.5 35 q-21 29 -27 57.5 q-6 28.5 -3 45.5 q4 24 6 47.5 q2 23.5 0 30.5 l-1 3 q-3 8 -4 20 q-1 12 3 35 q6 28 13.5 43.5 q7.5 15.5 14.5 22.5 q2 18 7.5 35 q5.5 17 10.5 28 q8 16 8 48 q0 14 -1 17.5 q-1 3.5 -5 3.5 q-44 13 -97.5 32 q-53.5 19 -82.5 32 q53 63 128 99.5 q75 36.5 164 36.5 Z"></path></symbol><symbol id="download" viewBox="0 -212 1024 1024"><path d="M640 160 l0 608 l-640 0 l0 -608 l256 0 l0 32 l-224 0 l0 544 l576 0 l0 -544 l-224 0 l0 -32 l256 0 ZM304 486 l0 -486 l32 0 l0 486 l110 -109 l23 23 l-149 149 l-149 -149 l23 -23 l110 109 Z"></path></symbol><symbol id="email" viewBox="0 -212 1024 1024"><path d="M768 32 l0 512 l-768 0 l0 -512 l768 0 ZM710 64 l-652 0 l326 248 l326 -248 ZM736 512 l0 -428 l-230 175 l136 155 l-4 4 l-158 -139 l-96 73 l-96 -73 l-158 139 l-4 -4 l136 -155 l-230 -175 l0 428 l704 0 Z"></path></symbol><symbol id="emailfilled" viewBox="0 -212 1024 1024"><path d="M0 640 l0 -484 l262 199 l-136 155 l4 4 l158 -139 l96 73 l96 -73 l158 139 l4 -4 l-136 -155 l262 -199 l0 484 l-768 0 ZM384 408 l-368 -280 l735 0 l-367 280 Z"></path></symbol><symbol id="help" viewBox="0 -212 1024 1024"><path d="M416 -32 q177 4 294.5 121.5 q117.5 117.5 121.5 294.5 q-4 177 -121.5 294.5 q-117.5 117.5 -294.5 121.5 q-177 -4 -294.5 -121.5 q-117.5 -117.5 -121.5 -294.5 q4 -177 121.5 -294.5 q117.5 -117.5 294.5 -121.5 ZM416 765 q162 -4 269.5 -111.5 q107.5 -107.5 111.5 -269.5 q-4 -162 -111.5 -269.5 q-107.5 -107.5 -269.5 -111.5 q-162 4 -269.5 111.5 q-107.5 107.5 -111.5 269.5 q4 162 111.5 269.5 q107.5 107.5 269.5 111.5 ZM423 164 q51 0 85.5 28.5 q34.5 28.5 35.5 80.5 q0 33 -14.5 56.5 q-14.5 23.5 -37.5 44.5 q-32 31 -39 50.5 q-7 19.5 -7 55.5 l-38 0 q1 -41 14 -70 q13 -29 46 -59 q17 -15 27.5 -34 q10.5 -19 11.5 -42 q-1 -36 -25.5 -57.5 q-24.5 -21.5 -60.5 -22.5 q-97 1 -95 93 l-38 0 q1 -62 35.5 -93 q34.5 -31 99.5 -31 ZM425 537 q14 0 23.5 9.5 q9.5 9.5 9.5 24 q0 14.5 -9.5 24 q-9.5 9.5 -24 9.5 q-14.5 0 -24 -9.5 q-9.5 -9.5 -9.5 -24 q0 -14.5 9.5 -24 q9.5 -9.5 24.5 -9.5 Z"></path></symbol><symbol id="helpfilled" viewBox="0 -212 1024 1024"><path d="M416 -32 q177 4 294.5 121.5 q117.5 117.5 121.5 294.5 q-4 177 -121.5 294.5 q-117.5 117.5 -294.5 121.5 q-177 -4 -294.5 -121.5 q-117.5 -117.5 -121.5 -294.5 q4 -177 121.5 -294.5 q117.5 -117.5 294.5 -121.5 ZM425 604 q14 0 23.5 -9.5 q9.5 -9.5 9.5 -24 q0 -14.5 -9.5 -24 q-9.5 -9.5 -24 -9.5 q-14.5 0 -24 9.5 q-9.5 9.5 -9.5 24 q0 14.5 9.5 24 q9.5 9.5 24.5 9.5 ZM492 373 q23 -20 37.5 -44 q14.5 -24 14.5 -56 q-1 -52 -35.5 -80.5 q-34.5 -28.5 -85.5 -28.5 q-65 -1 -99.5 30 q-34.5 31 -35.5 94 l38 0 q-2 -92 95 -93 q36 1 60.5 22.5 q24.5 21.5 25.5 57.5 q-1 23 -11.5 42 q-10.5 19 -27.5 34 q-33 30 -46 58.5 q-13 28.5 -14 70.5 l38 0 q0 -36 7 -55.5 q7 -19.5 39 -51.5 Z"></path></symbol><symbol id="location" viewBox="0 -212 1024 1024"><path d="M268 -64 q114 3 189.5 77.5 q75.5 74.5 78.5 188.5 q0 52 -19 100 l-249 530 l-249 -530 l0 0 q-9 -24 -14 -50 q-5 -26 -5 -51 q3 -113 78.5 -187.5 q75.5 -74.5 189.5 -77.5 ZM486 291 q18 -44 18 -90 q-2 -100 -69 -165 q-67 -65 -167 -68 q-100 3 -166.5 68.5 q-66.5 65.5 -69.5 164.5 q0 46 18 91 l218 463 l218 -463 l0 -1 ZM268 64 q54 1 90.5 37.5 q36.5 36.5 37.5 90.5 q-1 54 -37.5 90.5 q-36.5 36.5 -90.5 37.5 q-54 -1 -90.5 -37.5 q-36.5 -36.5 -37.5 -90.5 q1 -54 37.5 -90.5 q36.5 -36.5 90.5 -37.5 ZM268 286 q40 -1 66.5 -27.5 q26.5 -26.5 26.5 -66.5 q0 -40 -26.5 -66.5 q-26.5 -26.5 -66.5 -26.5 q-40 0 -66.5 26.5 q-26.5 26.5 -26.5 66.5 q0 40 26.5 66.5 q26.5 26.5 66.5 27.5 Z"></path></symbol><symbol id="locationfilled" viewBox="0 -212 1024 1024"><path d="M268 -64 q114 3 189.5 77.5 q75.5 74.5 78.5 188.5 q0 52 -19 100 l-249 530 l-249 -530 l0 0 q-9 -24 -14 -50 q-5 -26 -5 -51 q3 -113 78.5 -187.5 q75.5 -74.5 189.5 -77.5 ZM268 286 q40 -1 66.5 -27.5 q26.5 -26.5 26.5 -66.5 q0 -40 -26.5 -66.5 q-26.5 -26.5 -66.5 -26.5 q-40 0 -66.5 26.5 q-26.5 26.5 -26.5 66.5 q0 40 26.5 66.5 q26.5 26.5 66.5 27.5 Z"></path></symbol><symbol id="locked" viewBox="0 -212 1024 1024"><path d="M640 224 l0 480 l-640 0 l0 -480 l112 0 l0 -144 q2 -88 61 -147 q59 -59 147 -61 q88 2 147 61 q59 59 61 147 l0 144 l112 0 ZM144 224 l352 0 l0 -144 q-2 -75 -51.5 -124.5 q-49.5 -49.5 -124.5 -51.5 q-75 2 -124.5 51.5 q-49.5 49.5 -51.5 124.5 l0 144 ZM608 256 l-576 0 l0 416 l576 0 l0 -416 ZM384 416 q0 23 -13.5 39.5 q-13.5 16.5 -34.5 22.5 l0 82 q0 7 -4.5 11.5 q-4.5 4.5 -11.5 4.5 q-7 0 -11.5 -4.5 q-4.5 -4.5 -4.5 -11.5 l0 -82 q-21 -6 -34.5 -22.5 q-13.5 -16.5 -13.5 -39.5 q1 -27 19 -45 q18 -18 45 -18 q27 0 45 18 q18 18 19 45 ZM320 448 q14 0 23 -9 q9 -9 9 -23 q0 -14 -9 -23 q-9 -9 -23 -9 q-14 0 -23 9 q-9 9 -9 23 q0 14 9 23 q9 9 23 9 Z"></path></symbol><symbol id="micoff" viewBox="0 -212 1024 1024"><path d="M532 832 l28 -16 l-515 -880 l-28 16 l515 880 ZM256 579 q-67 -2 -111.5 -49 q-44.5 -47 -46.5 -118 l0 -235 l227 385 q-32 17 -69 17 ZM414 412 q0 29 -9 55 l-274 -467 q22 -29 54.5 -46.5 q32.5 -17.5 70.5 -17.5 q67 2 111.5 49 q44.5 47 46.5 118 l0 309 ZM512 415 q0 43 -12.5 81 q-12.5 38 -35.5 70 l-20 -34 q33 -51 34 -117 l0 -159 l34 0 l0 159 ZM278 796 l138 0 l0 36 l-322 0 l0 -36 l146 0 l0 -126 q-103 -9 -170 -80 q-67 -71 -70 -175 l0 -159 l38 0 l0 160 q3 92 65 154 q62 62 155 64 q52 0 96 -22 l19 32 q-44 22 -95 26 l0 126 Z"></path></symbol><symbol id="mic" viewBox="0 -212 1024 1024"><path d="M256 -64 q67 2 111.5 49 q44.5 47 46.5 118 l0 309 q-2 71 -46.5 118 q-44.5 47 -111.5 49 q-67 -2 -111.5 -49 q-44.5 -47 -46.5 -118 l0 -309 q2 -71 46.5 -118 q44.5 -47 111.5 -49 ZM382 103 q-1 -57 -37 -95.5 q-36 -38.5 -89 -39.5 q-53 1 -89 39.5 q-36 38.5 -37 95.5 l0 309 q1 57 37 95.5 q36 38.5 89 39.5 q53 -1 89 -39.5 q36 -38.5 37 -95.5 l0 -309 ZM512 256 l0 159 q-2 104 -67.5 175 q-65.5 71 -166.5 80 l0 126 l138 0 l0 36 l-322 0 l0 -36 l146 0 l0 -126 q-103 -9 -170.5 -80 q-67.5 -71 -69.5 -175 l0 -159 l38 0 l0 159 q2 93 64.5 154.5 q62.5 61.5 155.5 64.5 q93 -3 155.5 -64.5 q62.5 -61.5 64.5 -154.5 l0 -159 l34 0 Z"></path></symbol><symbol id="micfilled" viewBox="0 -212 1024 1024"><path d="M256 579 q-67 -2 -111.5 -49 q-44.5 -47 -46.5 -118 l0 -309 q2 -71 46.5 -118 q44.5 -47 111.5 -49 q67 2 111.5 49 q44.5 47 46.5 118 l0 309 q-2 71 -46.5 118 q-44.5 47 -111.5 49 ZM512 256 l0 159 q-2 104 -67.5 175 q-65.5 71 -166.5 80 l0 126 l138 0 l0 36 l-322 0 l0 -36 l146 0 l0 -126 q-103 -9 -170.5 -80 q-67.5 -71 -69.5 -175 l0 -159 l38 0 l0 159 q2 93 64.5 154.5 q62.5 61.5 155.5 64.5 q93 -3 155.5 -64.5 q62.5 -61.5 64.5 -154.5 l0 -159 l34 0 Z"></path></symbol><symbol id="personaddfilled" viewBox="0 -212 1024 1024"><path d="M640 206 l-50 0 l0 50 l-28 0 l0 -50 l-50 0 l0 -28 l50 0 l0 -50 l28 0 l0 50 l50 0 l0 28 ZM535 600 q23 6 62 31 q39 25 43 73 l-640 0 q4 -48 43 -73 q39 -25 62 -31 q20 -7 44 -10.5 q24 -3.5 43 -7.5 q11 -2 22.5 -7 q11.5 -5 17.5 -11 q4 -11 3.5 -44.5 q-0.5 -33.5 -1.5 -37.5 l-7 -12 q-6 -11 -11.5 -25 q-5.5 -14 -9.5 -37 l-4 -25 q-1 1 -7.5 -3 q-6.5 -4 -11 -22 q-4.5 -18 -8.5 -29.5 q-4 -11.5 -3.5 -25 q0.5 -13.5 5 -16.5 q4.5 -3 5.5 -3 q1 0 0.5 0 q-0.5 0 -5 -21 q-4.5 -21 -6.5 -64 q0 -53 37.5 -93 q37.5 -40 111.5 -42 q74 2 112 42 q38 40 37 93 q-2 43 -6.5 64 q-4.5 21 -5 21 q-0.5 0 0.5 0 q1 0 5.5 3 q4.5 3 5 16.5 q0.5 13.5 -3.5 25.5 q-4 12 -8.5 30 q-4.5 18 -11 21.5 q-6.5 3.5 -7.5 2.5 l-4 25 q-4 23 -9.5 37 q-5.5 14 -11.5 25 l-7 12 q-1 4 -1.5 37.5 q-0.5 33.5 3.5 44.5 q6 6 17.5 11 q11.5 5 22.5 7 q19 4 42.5 7.5 q23.5 3.5 44.5 10.5 Z"></path></symbol><symbol id="refreshempty" viewBox="0 -212 1024 1024"><path d="M256 728 q109 -2 181 -74.5 q72 -72.5 75 -181.5 l-40 0 q-2 92 -63 153 q-61 61 -153 63 q-92 -2 -153 -63 q-61 -61 -63 -153 q2 -92 63 -153 q61 -61 153 -63 l0 111 l192 -111 l-192 -128 l0 88 q-109 3 -181 75 q-72 72 -75 181 q3 109 75 181 q72 72 181 75 Z"></path></symbol><symbol id="refresh" viewBox="0 -212 1024 1024"><path d="M672 384 q-3 109 -75 181.5 q-72 72.5 -181 74.5 q-109 -2 -181 -74.5 q-72 -72.5 -75 -181.5 q3 -109 75 -181 q72 -72 181 -75 l0 -88 l192 128 l-192 111 l0 -111 q-92 2 -153 63 q-61 61 -63 153 q2 92 63 153 q61 61 153 63 q92 -2 153 -63 q61 -61 63 -153 l40 0 ZM416 -32 q177 4 294.5 121.5 q117.5 117.5 121.5 294.5 q-4 177 -121.5 294.5 q-117.5 117.5 -294.5 121.5 q-177 -4 -294.5 -121.5 q-117.5 -117.5 -121.5 -294.5 q4 -177 121.5 -294.5 q117.5 -117.5 294.5 -121.5 ZM416 765 q162 -4 269.5 -111.5 q107.5 -107.5 111.5 -269.5 q-4 -162 -111.5 -269.5 q-107.5 -107.5 -269.5 -111.5 q-162 4 -269.5 111.5 q-107.5 107.5 -111.5 269.5 q4 162 111.5 269.5 q107.5 107.5 269.5 111.5 Z"></path></symbol><symbol id="refreshfilled" viewBox="0 -212 1024 1024"><path d="M416 -32 q177 4 294.5 121.5 q117.5 117.5 121.5 294.5 q-4 177 -121.5 294.5 q-117.5 117.5 -294.5 121.5 q-177 -4 -294.5 -121.5 q-117.5 -117.5 -121.5 -294.5 q4 -177 121.5 -294.5 q117.5 -117.5 294.5 -121.5 ZM416 640 q109 -2 181 -74.5 q72 -72.5 75 -181.5 l-40 0 q-2 92 -63 153 q-61 61 -153 63 q-92 -2 -153 -63 q-61 -61 -63 -153 q2 -92 63 -153 q61 -61 153 -63 l0 111 l192 -111 l-192 -128 l0 88 q-109 3 -181 75 q-72 72 -75 181 q3 109 75 181 q72 72 181 75 Z"></path></symbol><symbol id="reload" viewBox="0 -212 1024 1024"><path d="M384 0 q-163 4 -271.5 112.5 q-108.5 108.5 -112.5 271.5 q4 163 112.5 271.5 q108.5 108.5 271.5 112.5 q129 -2 226 -74 q97 -72 138 -188 l-25 -7 q-38 108 -128.5 174.5 q-90.5 66.5 -210.5 68.5 q-152 -3 -253.5 -104.5 q-101.5 -101.5 -104.5 -253.5 q3 -152 104.5 -253.5 q101.5 -101.5 253.5 -104.5 q152 3 253 104 q101 101 105 253 l-102 -105 l-18 18 l133 136 l141 -136 l-18 -18 l-110 105 q-5 -163 -113 -271 q-108 -108 -271 -112 Z"></path></symbol><symbol id="starhalf" viewBox="0 -212 1024 1024"><path d="M0 286 l343 0 l105 -318 l105 318 l343 0 l-280 196 l109 318 l-277 -197 l-277 197 l109 -318 l-280 -196 ZM448 563 l213 151 l-85 -245 l216 -149 l-262 0 l-82 -247 l0 490 Z"></path></symbol><symbol id="star" viewBox="0 -212 1024 1024"><path d="M615 482 l110 318 l-277 -197 l-277 197 l109 -318 l-280 -196 l343 0 l105 -318 l105 318 l343 0 l-281 196 ZM576 469 l216 -149 l-262 0 l-82 -247 l-82 247 l-262 0 l216 149 l-85 245 l213 -152 l213 152 l-85 -245 Z"></path></symbol><symbol id="starfilled" viewBox="0 -212 1024 1024"><path d="M615 482 l110 318 l-277 -197 l-277 197 l109 -318 l-280 -196 l343 0 l105 -318 l105 318 l343 0 l-281 196 Z"></path></symbol><symbol id="phone" viewBox="0 -212 1024 1024"><path d="M674 446.65 q25 24 31.5 55.5 q6.5 31.5 -30.5 77.5 q-37 43 -67 52.5 q-30 9.5 -62 7.5 q-36 0 -84.5 -21 q-48.5 -21 -101.5 -59 q-46 -33 -78.5 -59.5 q-32.5 -26.5 -77.5 -73.5 q-50 -51 -87 -101 q-37 -50 -71 -113 q-40 -74 -43 -116.5 q-3 -42.5 7 -68.5 q6 -19 20.5 -36 q14.5 -17 35.5 -31 l3 -2 q9 -6 25.5 -14 q16.5 -8 38.5 -9 q38 0 67 36 l2 3 q18 21 35.5 44 q17.5 23 29.5 48 q30 63 -3 107 q-13 18 -19 28.5 q-6 10.5 -5 16.5 q2 12 26 37 l35 39 l30 31 q10 11 21 21.5 q11 10.5 38 33.5 l2 2 q9 9 15 13 q6 4 10 4 q7 -1 22 -9.5 q15 -8.5 36 -21.5 q13 -8 32 -8 q44 2 93 31.5 q49 29.5 74 54.5 ZM651 558.65 q27 -33 23.5 -52 q-3.5 -19 -22.5 -36 q-22 -23 -65.5 -48.5 q-43.5 -25.5 -78.5 -28.5 q-11 0 -16 4 q-28 18 -45 26.5 q-17 8.5 -30 8.5 q-13 0 -23 -6.5 q-10 -6.5 -22 -17.5 l-2 -2 q-27 -24 -39 -35 q-12 -11 -22 -22 l-30 -32 l-36 -39 q-15 -17 -24 -29.5 q-9 -12.5 -10 -27 q-1 -14.5 6.5 -30.5 q7.5 -16 23.5 -37 q21 -31 0.5 -71.5 q-20.5 -40.5 -60.5 -87.5 l-2 -2 q-21 -25 -44 -25 q-15 1 -27 7 q-12 6 -21 11 l-3 2 q-16 10 -27 23 q-11 13 -15 26 q-9 22 -5 58 q4 36 38 100 q34 62 69.5 110 q35.5 48 83.5 97 q44 46 75.5 72 q31.5 26 76.5 58 q49 35 93 54.5 q44 19.5 74.5 20.5 q30.5 1 53.5 -6.5 q23 -7.5 52 -42.5 Z"></path></symbol><symbol id="phonefilled" viewBox="0 -212 1024 1024"><path d="M674 446.65 q25 24 31.5 55.5 q6.5 31.5 -30.5 77.5 q-37 43 -67 52.5 q-30 9.5 -62 7.5 q-36 0 -84.5 -21 q-48.5 -21 -101.5 -59 q-46 -33 -78.5 -59.5 q-32.5 -26.5 -77.5 -73.5 q-50 -51 -87 -101 q-37 -50 -71 -113 q-40 -74 -43 -116.5 q-3 -42.5 7 -68.5 q6 -19 20.5 -36 q14.5 -17 35.5 -31 l3 -2 q9 -6 25.5 -14 q16.5 -8 38.5 -9 q38 0 67 36 l2 3 q18 21 35.5 44 q17.5 23 29.5 48 q30 63 -3 107 q-13 18 -19 28.5 q-6 10.5 -5 16.5 q2 12 26 37 l35 39 l30 31 q10 11 21 21.5 q11 10.5 38 33.5 l2 2 q9 9 15 13 q6 4 10 4 q7 -1 22 -9.5 q15 -8.5 36 -21.5 q13 -8 32 -8 q44 2 93 31.5 q49 29.5 74 54.5 Z"></path></symbol><symbol id="undo" viewBox="0 -212 1024 1024"><path d="M768 608 l-21 0 l-38 -62 q-31 -50 -68 -91 q-37 -41 -84 -63 q-35 -16 -74.5 -27 q-39.5 -11 -98.5 -13 l0 160 l-384 -256 l384 -256 l0 161 q94 4 164 31.5 q70 27.5 122 80.5 q75 83 88.5 162.5 q13.5 79.5 9.5 108.5 l0 64 ZM736 531 q14 -21 -41 -169.5 q-55 -148.5 -343 -169.5 l0 -129 l-296 193 l296 194 l0 -130 q135 -2 225 45 q90 47 159 166 Z"></path></symbol><symbol id="upload" viewBox="0 -212 1024 1024"><path d="M640 224 l0 608 l-640 0 l0 -608 l256 0 l0 32 l-224 0 l0 544 l576 0 l0 -544 l-224 0 l0 -32 l256 0 ZM304 63 l0 486 l32 0 l0 -486 l110 109 l23 -23 l-149 -149 l-149 149 l23 23 l110 -109 Z"></path></symbol><symbol id="videocam" viewBox="0 -212 1024 1024"><path d="M513 128 q29 1 47.5 19 q18.5 18 19.5 46 l0 376 q-1 29 -19.5 49.5 q-18.5 20.5 -47.5 21.5 l-442 0 q-29 -1 -49.5 -21.5 q-20.5 -20.5 -21.5 -49.5 l0 -376 q1 -28 21.5 -46 q20.5 -18 49.5 -19 l442 0 ZM546 193 q0 -14 -9.5 -22 q-9.5 -8 -23.5 -8 l-442 -1 q-15 1 -25.5 9 q-10.5 8 -11.5 22 l0 376 q1 15 12 25.5 q11 10.5 25 11.5 l442 0 q15 -1 24 -11.5 q9 -10.5 9 -25.5 l0 -376 ZM836 192 l0 384 l-196 -107 l0 -171 l196 -106 ZM802 251 l-128 67 l0 132 l128 67 l0 -265 l0 -1 Z"></path></symbol><symbol id="paperclip" viewBox="0 -212 1024 1024"><path d="M297 85.92 q10 0 16.5 6.5 q6.5 6.5 5.5 17.5 l0 389 q0 42 -13 73.5 q-13 31.5 -35 54 q-22 22.5 -51.5 34.5 q-29.5 12 -60.5 11 q-62 0 -109.5 -44.5 q-47.5 -44.5 -49.5 -130.5 l0 -470 q1 -36 15.5 -64 q14.5 -28 41.5 -43.5 q27 -15.5 58 -15.5 q31 0 58 16.5 q27 16.5 41.5 44.5 q14.5 28 14.5 64 l-1 449 q0 39 -19.5 63.5 q-19.5 24.5 -48.5 24.5 q-27 0 -47.5 -22.5 q-20.5 -22.5 -21.5 -66.5 l1 -345 q0 -10 6.5 -16.5 q6.5 -6.5 16 -6.5 q9.5 0 16 6.5 q6.5 6.5 6.5 16.5 l0 346 q0 20 7 30.5 q7 10.5 15 10.5 q8 0 14 -7 q9 -12 10 -35 l0 -449 q0 -47 -33 -68 q-16 -9 -35 -9.5 q-19 -0.5 -35 9.5 q-33 20 -34 67 l0 470 q1 65 35.5 96.5 q34.5 31.5 78 32 q43.5 0.5 78 -30.5 q34.5 -31 36.5 -96 l0 -390 q1 -10 7.5 -16.5 q6.5 -6.5 15.5 -6.5 Z"></path></symbol><symbol id="person" viewBox="0 -212 1024 1024"><path d="M213 275 l0 0 l0 0 ZM535 600 q23 6 62 31 q39 25 43 73 l-640 0 q4 -48 43 -73 q39 -25 62 -31 q20 -7 44 -10.5 q24 -3.5 43 -7.5 q11 -2 22.5 -7 q11.5 -5 17.5 -11 q4 -11 3.5 -44.5 q-0.5 -33.5 -1.5 -37.5 l-7 -12 q-6 -11 -11.5 -25 q-5.5 -14 -9.5 -37 l-4 -25 q-1 1 -7.5 -3 q-6.5 -4 -11 -22 q-4.5 -18 -8.5 -29.5 q-4 -11.5 -3.5 -25 q0.5 -13.5 5 -16.5 q4.5 -3 6.5 -3 l0 0 q-1 0 -5.5 -21 q-4.5 -21 -6.5 -64 q0 -53 37.5 -93 q37.5 -40 111.5 -42 q74 2 112 42 q38 40 37 93 q-2 43 -6.5 64 q-4.5 21 -5.5 21 l0 0 q2 0 6.5 3 q4.5 3 5 16.5 q0.5 13.5 -3.5 25.5 q-4 12 -8.5 30 q-4.5 18 -11 21.5 q-6.5 3.5 -7.5 2.5 l-4 25 q-4 23 -9.5 37 q-5.5 14 -11.5 25 l-7 12 q-1 4 -1.5 37.5 q-0.5 33.5 3.5 44.5 q6 6 17.5 11 q11.5 5 22.5 7 q19 4 42.5 7.5 q23.5 3.5 44.5 10.5 ZM594 672 q-6 -8 -16 -15 q-21 -16 -54 -27 q-11 -4 -24 -7 l-27 -4 q-17 -3 -32 -6 q-6 -1 -25 -8 q-19 -7 -32 -21 q-7 -7 -9.5 -21.5 q-2.5 -14.5 -2.5 -42.5 l2 -48 l5 -7 l7 -13 q5 -9 8 -17.5 q3 -8.5 6.5 -25.5 q3.5 -17 6.5 -31 q-1 0 -1 0 l2 -7 q2 -7 9 -9.5 q7 -2.5 9 -6.5 l9 -37 q3 -16 -2 -21 q-5 -5 -7 -12 q1 -11 1 -11 l0 0 q1 -1 4.5 -20 q3.5 -19 5.5 -55 q0 -41 -28 -70 q-32 -33 -89 -33 q-57 0 -89 33 q-28 29 -28 70 q2 36 5.5 55 q3.5 19 4.5 20 l0 0 q1 2 0 12 q-3 6 -7 11 q-4 5 -1 21 l8 37 q3 5 10 7 q7 2 9 9 l1 7 q0 0 0 0 q2 14 5.5 31 q3.5 17 7 25.5 q3.5 8.5 8.5 17.5 l12 20 l1 48 q1 28 -1.5 42.5 q-2.5 14.5 -9.5 21.5 q-13 14 -32 21 q-19 7 -25 8 q-15 3 -32 6 l-27 4 q-14 3 -24 7 q-33 11 -54 27 q-11 7 -17 15 l275 0 l274 0 Z"></path></symbol><symbol id="personfilled" viewBox="0 -212 1024 1024"><path d="M535 600 q23 6 62 31 q39 25 43 73 l-640 0 q4 -48 43 -73 q39 -25 62 -31 q20 -7 44 -10.5 q24 -3.5 43 -7.5 q11 -2 22.5 -7 q11.5 -5 17.5 -11 q4 -11 3.5 -44.5 q-0.5 -33.5 -1.5 -37.5 l-7 -12 q-6 -11 -11.5 -25 q-5.5 -14 -9.5 -37 l-4 -25 q-1 1 -7.5 -3 q-6.5 -4 -11 -22 q-4.5 -18 -8.5 -29.5 q-4 -11.5 -3.5 -25 q0.5 -13.5 5 -16.5 q4.5 -3 6.5 -3 l0 0 q-1 0 -5.5 -21 q-4.5 -21 -6.5 -64 q0 -53 37.5 -93 q37.5 -40 111.5 -42 q74 2 112 42 q38 40 37 93 q-2 43 -6.5 64 q-4.5 21 -5.5 21 l0 0 q2 0 6.5 3 q4.5 3 5 16.5 q0.5 13.5 -3.5 25.5 q-4 12 -8.5 30 q-4.5 18 -11 21.5 q-6.5 3.5 -7.5 2.5 l-4 25 q-4 23 -9.5 37 q-5.5 14 -11.5 25 l-7 12 q-1 4 -1.5 37.5 q-0.5 33.5 3.5 44.5 q6 6 17.5 11 q11.5 5 22.5 7 q19 4 42.5 7.5 q23.5 3.5 44.5 10.5 Z"></path></symbol><symbol id="personadd" viewBox="0 -212 1024 1024"><path d="M640 110 l-50 0 l0 50 l-28 0 l0 -50 l-50 0 l0 -28 l50 0 l0 -50 l28 0 l0 50 l50 0 l0 28 ZM213 179 q0 0 0 0 l0 0 ZM535 504 q23 6 62 31 q39 25 43 73 l-640 0 q4 -48 43 -73 q39 -25 62 -31 q20 -7 44 -10.5 q24 -3.5 43 -7.5 q11 -2 22.5 -7 q11.5 -5 17.5 -11 q4 -11 3.5 -44.5 q-0.5 -33.5 -1.5 -37.5 l-7 -12 q-6 -11 -11.5 -25 q-5.5 -14 -9.5 -37 l-4 -25 q-1 1 -7.5 -3 q-6.5 -4 -11 -22 q-4.5 -18 -8.5 -29.5 q-4 -11.5 -3.5 -25 q0.5 -13.5 5 -17 q4.5 -3.5 5.5 -3 q1 0.5 0.5 0.5 q-0.5 0 -5 -21 q-4.5 -21 -6.5 -64 q0 -53 37.5 -93 q37.5 -40 111.5 -42 q74 2 112 42 q38 40 37 93 q-2 43 -6.5 64 q-4.5 21 -5 21 q-0.5 0 0.5 0 q1 0 5.5 3 q4.5 3 5 16.5 q0.5 13.5 -3.5 25.5 q-4 12 -8.5 30 q-4.5 18 -11 21.5 q-6.5 3.5 -7.5 2.5 l-4 25 q-4 23 -9.5 37 q-5.5 14 -11.5 25 l-7 12 q-1 4 -1.5 37.5 q-0.5 33.5 3.5 44.5 q6 6 17.5 11 q11.5 5 22.5 7 q19 4 42.5 7.5 q23.5 3.5 44.5 10.5 ZM594 576 q-6 -8 -16 -15 q-21 -15 -54 -27 q-11 -4 -24 -7 l-27 -4 q-17 -2 -32 -6 q-6 -1 -25 -8 q-19 -7 -32 -21 q-7 -7 -9.5 -21.5 q-2.5 -14.5 -2.5 -42.5 l2 -48 l5 -7 l7 -13 q5 -9 8 -17.5 q3 -8.5 6.5 -25.5 q3.5 -17 6.5 -31 q-1 0 -1 0 l2 -7 q2 -7 9 -9.5 q7 -2.5 9 -6.5 l9 -37 q3 -16 -2 -21 q-5 -5 -7 -12 q1 -11 1 -11 q0 0 0.5 -0.5 q0.5 -0.5 4 -19.5 q3.5 -19 5.5 -55 q0 -41 -28 -70 q-32 -33 -89 -33 q-57 0 -89 33 q-28 29 -28 70 q2 36 5.5 55 q3.5 19 4 19.5 q0.5 0.5 1 1.5 q0.5 1 -0.5 11 q-3 6 -7 11 q-4 5 -1 21 l8 37 q3 5 10 7 q7 2 9 9 l1 7 q0 0 0 0 q2 14 5.5 31 q3.5 17 7 25.5 q3.5 8.5 8.5 17.5 l12 20 l1 48 q1 28 -1.5 42.5 q-2.5 14.5 -9.5 21.5 q-13 14 -32 21 q-19 7 -25 8 q-15 3 -32 6 l-27 4 q-14 3 -24 7 q-33 11 -54 27 q-11 7 -17 15 l275 0 l274 0 Z"></path></symbol><symbol id="chatboxes" viewBox="0 -212 1024 1024"><path d="M32 384 l192 0 l0 32 l-224 0 l0 -448 l576 0 l0 224 l-32 0 l0 -192 l-512 0 l0 384 ZM832 224 l0 448 l-96 0 l0 128 l-27 0 l-128 -128 l-325 0 l0 -448 l576 0 ZM800 256 l-512 0 l0 384 l306 0 l110 109 l0 -109 l96 0 l0 -384 Z"></path></symbol><symbol id="chatboxesfilled" viewBox="0 -212 1024 1024"><path d="M576 192 l-352 0 l0 224 l-224 0 l0 -448 l576 0 l0 224 ZM832 224 l0 448 l-96 0 l0 128 l-27 0 l-128 -128 l-325 0 l0 -448 l576 0 Z"></path></symbol><symbol id="chatbubble" viewBox="0 -212 1024 1024"><path d="M384 96 q-149 3 -248.5 81 q-99.5 78 -103.5 195 q1 79 53 146 l7 9 q13 19 13 41 q1 1 -3.5 16.5 q-4.5 15.5 -24.5 78.5 l92 -40 l10 -3 q16 -6 32 -6 q16 0 30 5 l6 1 q27 10 61.5 14.5 q34.5 4.5 77.5 4.5 q73 0 137 -20 q64 -20 113 -58 q49 -38 74.5 -86 q25.5 -48 25.5 -102 q-4 -118 -103.5 -196 q-99.5 -78 -248.5 -81 ZM384 64 q163 3 271.5 90 q108.5 87 112.5 219 q-4 130 -111.5 213 q-107.5 83 -270.5 85 q-41 0 -78.5 -4.5 q-37.5 -4.5 -72.5 -15.5 l-3 -2 q-10 -3 -21.5 -3 q-11.5 0 -21.5 4 q1 0 1 0 l-21 8 l-104 45 q-4 1 -8 1 l-5 0 q-8 -2 -12.5 -8 q-4.5 -6 -2.5 -12 l18 -57 q16 -50 18 -59 q0 -13 -7 -23 q0 0 0 0 l0 0 q0 0 0 0 l2 4 l-7 -10 q-29 -36 -45 -78 q-16 -42 -16 -88 q4 -132 112.5 -219 q108.5 -87 271.5 -90 l0 0 Z"></path></symbol><symbol id="chatbubblefilled" viewBox="0 -212 1024 1024"><path d="M384 64 q163 3 271.5 90 q108.5 87 112.5 219 q-4 130 -111.5 213 q-107.5 83 -270.5 85 q-41 0 -78.5 -4.5 q-37.5 -4.5 -72.5 -15.5 l-3 -2 q-10 -3 -21.5 -3 q-11.5 0 -21.5 4 q1 0 1 0 l-21 8 l-104 45 q-4 1 -8 1 l-5 0 q-8 -2 -12.5 -8 q-4.5 -6 -2.5 -12 l18 -57 q16 -50 18 -59 q0 -13 -7 -23 q0 0 0 0 l0 0 q0 0 0 0 l2 4 l-7 -10 q-29 -36 -45 -78 q-16 -42 -16 -88 q4 -132 112.5 -219 q108.5 -87 271.5 -90 l0 0 Z"></path></symbol><symbol id="closeempty" viewBox="0 -212 1024 1024"><path d="M384 216 l-169 168 l169 169 l-24 23 l-168 -168 l-168 167 l-24 -23 l168 -168 l-168 -168 l24 -23 l168 168 l168 -169 l24 24 Z"></path></symbol><symbol id="close" viewBox="0 -212 1024 1024"><path d="M710 90 q122 128 122 294 q0 166 -122 294 q-128 122 -294 122 q-166 0 -294 -122 q-122 -128 -122 -294 q0 -166 122 -294 q128 -122 294 -122 q166 0 294 122 ZM686 654 q111 -118 111 -270 q0 -152 -111 -270 q-118 -111 -270 -111 q-152 0 -270 111 q-111 118 -111 270 q0 152 111 270 q118 111 270 111 q152 0 270 -111 ZM608 216 l-169 168 l169 168 l-24 24 l-168 -168 l-168 167 l-24 -23 l168 -168 l-168 -168 l24 -23 l168 167 l168 -168 l24 24 Z"></path></symbol><symbol id="closefilled" viewBox="0 -212 1024 1024"><path d="M710 90 q122 128 122 294 q0 166 -122 294 q-128 122 -294 122 q-166 0 -294 -122 q-122 -128 -122 -294 q0 -166 122 -294 q128 -122 294 -122 q166 0 294 122 ZM439 384 l169 -168 l-24 -24 l-168 168 l-168 -167 l-24 23 l168 168 l-168 168 l24 23 l168 -167 l168 168 l24 -24 l-169 -168 Z"></path></symbol><symbol id="compose" viewBox="0 -212 1024 1024"><path d="M576 352 l32 -32 l0 448 l-608 0 l0 -576 l480 0 l-32 32 l-416 0 l0 512 l544 0 l0 -384 ZM658 161 l23 23 l-361 360 l-64 0 l0 -65 l360 -360 l22 23 l-342 343 l19 19 l343 -343 ZM728 97 q8 8 8 19.5 q0 11.5 -8 19.5 l-24 25 l-65 -65 l25 -24 q8 -8 19.5 -8 q11.5 0 19.5 8 l25 25 Z"></path></symbol><symbol id="trash" viewBox="0 -212 1024 1024"><path d="M576 32 l-41 0 l-46 581 q-1 25 -17.5 41.5 q-16.5 16.5 -41.5 17.5 l-282 0 q-25 -1 -41.5 -17.5 q-16.5 -16.5 -17.5 -41.5 l-47 -581 l-42 0 l0 -29 l160 0 l0 -40 q1 -25 17.5 -41.5 q16.5 -16.5 40.5 -17.5 l139 0 q25 1 41.5 17.5 q16.5 16.5 17.5 41.5 l0 40 l160 0 l0 29 ZM189 3 l198 0 l0 -40 q-1 -13 -9 -21 q-8 -8 -21 -9 l-139 0 q-12 1 -20 9 q-8 8 -9 21 l0 40 ZM506 32 l-435 0 l48 581 q0 13 8.5 21 q8.5 8 20.5 9 l282 0 q12 -1 20.5 -9 q8.5 -8 8.5 -21 l0 -1 l47 -580 ZM274 578 l28 0 l0 -482 l-28 0 l0 482 ZM395 578 l-30 0 l22 -482 l29 0 l-21 482 ZM211 578 l-30 0 l-21 -482 l29 0 l22 482 Z"></path></symbol><symbol id="redo" viewBox="0 -212 1024 1024"><path d="M4 640 q-4 -29 9.5 -108.5 q13.5 -79.5 87.5 -162.5 q53 -53 123 -80.5 q70 -27.5 164 -31.5 l0 -161 l384 256 l-384 256 l0 -160 q-59 2 -98.5 13 q-39.5 11 -74.5 27 q-47 22 -84 63 q-37 41 -68 91 l-38 62 l-21 0 l0 -64 ZM420 288 q-288 21 -343 169.5 q-55 148.5 -41 169.5 q69 -119 159 -166 q90 -47 225 -45 l0 130 l296 -194 l-296 -193 l0 129 Z"></path></symbol><symbol id="info" viewBox="0 -212 1024 1024"><path d="M407 216 l0 0 ZM367 216 q0 -17 11.5 -28.5 q11.5 -11.5 28.5 -11.5 q17 0 28.5 11.5 q11.5 11.5 11.5 28.5 q0 17 -11.5 28.5 q-11.5 11.5 -28.5 11.5 q-17 0 -28.5 -11.5 q-11.5 -11.5 -11.5 -28.5 ZM480 560 l0 16 l-128 0 l0 -16 l32 0 l0 -240 l-32 0 l0 -16 l96 0 l0 256 l32 0 ZM416 -32 q177 4 294.5 121.5 q117.5 117.5 121.5 294.5 q-4 177 -121.5 294.5 q-117.5 117.5 -294.5 121.5 q-177 -4 -294.5 -121.5 q-117.5 -117.5 -121.5 -294.5 q4 -177 121.5 -294.5 q117.5 -117.5 294.5 -121.5 ZM416 765 q162 -4 269.5 -111.5 q107.5 -107.5 111.5 -269.5 q-4 -162 -111.5 -269.5 q-107.5 -107.5 -269.5 -111.5 q-162 4 -269.5 111.5 q-107.5 107.5 -111.5 269.5 q4 162 111.5 269.5 q107.5 107.5 269.5 111.5 Z"></path></symbol><symbol id="infofilled" viewBox="0 -212 1024 1024"><path d="M416 -32 q177 4 294.5 121.5 q117.5 117.5 121.5 294.5 q-4 177 -121.5 294.5 q-117.5 117.5 -294.5 121.5 q-177 -4 -294.5 -121.5 q-117.5 -117.5 -121.5 -294.5 q4 -177 121.5 -294.5 q117.5 -117.5 294.5 -121.5 ZM407 176 q-17 0 -28.5 11.5 q-11.5 11.5 -11.5 28.5 q0 17 11.5 28.5 q11.5 11.5 28.5 11.5 q17 0 28.5 -11.5 q11.5 -11.5 11.5 -28.5 q0 -17 -11.5 -28.5 q-11.5 -11.5 -28.5 -11.5 ZM480 560 l-32 0 l0 -256 l-96 0 l0 16 l32 0 l0 240 l-32 0 l0 16 l128 0 l0 -16 Z"></path></symbol><symbol id="gear" viewBox="0 -212 1024 1024"><path d="M386 192 q38 0 73 14.5 q35 14.5 62.5 42 q27.5 27.5 41.5 62 q14 34.5 14 73.5 q0 39 -14 73.5 q-14 34.5 -41.5 62 q-27.5 27.5 -62.5 42 q-35 14.5 -73.5 14.5 q-38.5 0 -73.5 -14.5 q-35 -14.5 -62 -42 q-27 -27.5 -41.5 -62 q-14.5 -34.5 -14.5 -73.5 q0 -39 14.5 -73.5 q14.5 -34.5 41.5 -62 q27 -27.5 62 -42 q35 -14.5 74 -14.5 ZM386 544 q68 -2 113 -47 q45 -45 47 -113 q-2 -68 -47 -113 q-45 -45 -113 -47 q-69 2 -114 47 q-45 45 -46 113 q1 68 46 113 q45 45 114 47 ZM721 304 q21 1 33.5 15 q12.5 14 13.5 35 l0 61 q-1 21 -13.5 34 q-12.5 13 -33.5 14 l-30 0 q-20 0 -32.5 13.5 q-12.5 13.5 -13 33 q-0.5 19.5 14.5 33.5 l20 19 q14 16 14 35.5 q0 19.5 -14 34.5 l-45 45 q-14 13 -35 13 q-21 0 -35 -13 l-19 -19 q-14 -15 -33.5 -15 q-19.5 0 -33 13 q-13.5 13 -13.5 32 l0 30 q-1 21 -15 35.5 q-14 14.5 -35 14.5 l-61 0 q-21 0 -35 -14.5 q-14 -14.5 -14 -35.5 l0 -30 q-1 -19 -14 -32 q-13 -13 -33 -13 q-20 0 -33 14 l-19 19 q-15 14 -35.5 14 q-20.5 0 -34.5 -14 l-45 -44 q-14 -15 -14 -34.5 q0 -19.5 14 -35.5 l19 -18 q15 -14 15 -33.5 q0 -19.5 -13 -33 q-13 -13.5 -32 -13.5 l-31 0 q-21 -1 -35 -15 q-14 -14 -15 -35 l0 -60 q1 -21 15 -35 q14 -14 35 -15 l31 0 q19 0 32 -13 q13 -13 13 -33 q0 -20 -15 -34 l-19 -18 q-14 -15 -14 -35 q0 -20 14 -35 l45 -44 q14 -14 34.5 -14 q20.5 0 35.5 14 l19 19 q14 15 33.5 14.5 q19.5 -0.5 32.5 -13 q13 -12.5 14 -31.5 l0 -31 q1 -21 14.5 -35 q13.5 -14 35.5 -15 l60 0 q21 1 34.5 15 q13.5 14 13.5 35 l0 30 q1 19 14.5 32 q13.5 13 33.5 13.5 q20 0.5 34 -15.5 l19 -18 q14 -14 35 -14 q21 0 35 14 l45 44 q14 15 14 34.5 q0 19.5 -14 35.5 l-20 19 q-15 13 -14.5 32.5 q0.5 19.5 13 32.5 q12.5 13 32.5 14 l30 0 ZM736 354 q0 -6 -3.5 -12 q-3.5 -6 -11.5 -6 l-30 0 q-32 0 -55 -23 q-23 -23 -22.5 -55.5 q0.5 -32.5 24.5 -55.5 l19 -19 q5 -5 5 -12 q0 -7 -5 -12 l-45 -45 q-5 -4 -12.5 -4 q-7.5 0 -12.5 5 l-18 18 q-24 25 -57 25 q-33 0 -56 -23 q-23 -23 -24 -54 l0 -31 q0 -7 -4.5 -12.5 q-4.5 -5.5 -11.5 -5.5 l-61 0 q-7 0 -12 5.5 q-5 5.5 -5 12.5 l0 31 q0 32 -23.5 54.5 q-23.5 22.5 -56 22.5 q-32.5 0 -55.5 -25 l-19 -19 q-5 -4 -12.5 -4 q-7.5 0 -12.5 4 l-44 45 q-6 7 -6 12 q0 5 6 12 l18 18 q25 24 25 56.5 q0 32.5 -22.5 55.5 q-22.5 23 -54.5 23 l-31 0 q-7 0 -12.5 5.5 q-5.5 5.5 -5.5 12.5 l0 61 q0 7 5.5 12 q5.5 5 12.5 5 l31 0 q32 0 54.5 23 q22.5 23 22.5 55.5 q0 32.5 -25 56.5 l-18 18 q-5 5 -5 12 q0 7 5 12 l45 45 q4 5 12 4.5 q8 -0.5 13 -4.5 l18 -19 q24 -24 56 -24 q32 0 55.5 22.5 q23.5 22.5 23.5 54.5 l0 30 q0 8 5 13 q5 5 13 5 l60 0 q8 0 13 -5 q5 -5 5 -13 l0 -30 q0 -32 23.5 -54.5 q23.5 -22.5 55.5 -22.5 q32 0 56 25 l19 18 q5 4 12.5 4 q7.5 0 12.5 -4 l44 -45 q5 -5 5 -12 q0 -7 -5 -12 l-19 -19 q-24 -23 -24 -56 q0 -33 22.5 -56 q22.5 -23 54.5 -24 l30 0 q8 0 11.5 -4.5 q3.5 -4.5 3.5 -11.5 l0 -30 l0 -30 Z"></path></symbol><symbol id="gearfilled" viewBox="0 -212 1024 1024"><path d="M721 305 q21 0 33.5 14 q12.5 14 12.5 35 l0 61 q0 20 -13 34 q-13 14 -33 14 l-31 0 q-19 1 -32 14 q-13 13 -13 33 q0 20 15 33 l19 19 q15 15 15 35 q0 20 -15 35 l-44 44 q-15 14 -35.5 14 q-20.5 0 -34.5 -14 l-19 -18 q-15 -15 -34.5 -15 q-19.5 0 -33 13 q-13.5 13 -13.5 32 l0 30 q-1 21 -14.5 35.5 q-13.5 14.5 -34.5 14.5 l-61 0 q-21 0 -34.5 -14.5 q-13.5 -14.5 -14.5 -35.5 l0 -30 q0 -19 -13.5 -32 q-13.5 -13 -33.5 -13 q-20 0 -33 14 l-19 19 q-15 14 -35.5 14 q-20.5 0 -34.5 -14 l-45 -44 q-14 -15 -14 -35 q0 -20 14 -35 l19 -18 q15 -14 15 -34 q0 -20 -13 -33 q-13 -13 -32 -14 l-31 0 q-21 -1 -35 -14.5 q-14 -13.5 -15 -34.5 l0 -60 q1 -21 15 -35 q14 -14 35 -14 l31 0 q19 -1 32 -14 q13 -13 13 -33 q0 -20 -15 -34 l-19 -18 q-14 -15 -14 -35 q0 -20 14 -35 l45 -44 q14 -14 35 -14 q21 0 35 14 l19 19 q14 15 33.5 14.5 q19.5 -0.5 33 -13 q13.5 -12.5 14.5 -31.5 l0 -31 q0 -21 14 -35 q14 -14 34 -15 l61 0 q21 1 35 15 q14 14 14 35 l0 31 q1 19 14 32 q13 13 33 13 q20 0 34 -15 l19 -19 q14 -14 35 -14 q21 0 35 14 l45 44 q14 15 14 35 q0 20 -14 35 l-20 19 q-15 14 -14.5 33.5 q0.5 19.5 13 32.5 q12.5 13 32.5 14 l30 0 ZM546 384 q-2 -68 -47 -113 q-45 -45 -113 -47 q-69 2 -114 47 q-45 45 -46 113 l0 0 l0 0 q1 68 46 113 q45 45 114 47 q68 -2 113 -47 q45 -45 47 -113 l0 0 l0 0 Z"></path></symbol><symbol id="home" viewBox="0 -212 1024 1024"><path d="M704 352 l0 416 l-224 0 l0 -256 l-192 0 l0 256 l-224 0 l0 -416 l320 -256 l320 256 ZM672 367 l-288 -230 l-288 230 l0 369 l160 0 l0 -256 l256 0 l0 256 l160 0 l0 -369 ZM768 307 l0 41 l-384 -307 l-384 307 l0 -41 l64 -51 l0 -192 l128 0 l0 90 l192 -154 l384 307 ZM160 96 l-64 0 l0 134 l64 -51 l0 -83 Z"></path></symbol><symbol id="homefilled" viewBox="0 -212 1024 1024"><path d="M704 352 l0 416 l-224 0 l0 -256 l-192 0 l0 256 l-224 0 l0 -416 l320 -256 l320 256 ZM768 307 l0 41 l-384 -307 l-384 307 l0 -41 l64 -51 l0 -192 l128 0 l0 90 l192 -154 l384 307 Z"></path></symbol><symbol id="search" viewBox="0 -212 1024 1024"><path d="M721 768 l-226 -227 q-40 32 -88.5 50 q-48.5 18 -102.5 18 q-130 -3 -215.5 -89 q-85.5 -86 -88.5 -216 q3 -129 88.5 -215 q85.5 -86 215.5 -89 q129 3 214.5 89 q85.5 86 89.5 215 q-1 55 -18.5 103 q-17.5 48 -48.5 88 l227 226 l-47 47 ZM111 497 q39 39 88.5 59.5 q49.5 20.5 104 20.5 q54.5 0 104 -20.5 q49.5 -20.5 88.5 -59.5 q39 -39 59 -88.5 q20 -49.5 20 -104.5 q0 -55 -20 -104 q-20 -49 -59 -88 q-39 -39 -88.5 -59.5 q-49.5 -20.5 -104 -20.5 q-54.5 0 -104 20.5 q-49.5 20.5 -88 59.5 q-38.5 39 -59 88.5 q-20.5 49.5 -20.5 104.5 q0 55 20 104 q20 49 59 88 Z"></path></symbol><symbol id="settings" viewBox="0 -212 1024 1024"><path d="M640 81 q-14 0 -23 9 q-9 9 -9 23 q0 14 9 23 q9 9 23 9 q14 0 23 -9 q9 -9 9 -23 q0 -14 -9 -23 q-9 -9 -23 -9 ZM640 49 q27 1 45 19 q18 18 18 45 q0 27 -18 45 q-18 18 -45 18 q-27 0 -45 -18 q-18 -18 -18 -45 q0 -27 18 -45 q18 -18 45 -19 l0 0 ZM640 625 q-14 0 -23 9 q-9 9 -9 23 q0 14 9 23 q9 9 23 9 q14 0 23 -9 q9 -9 9 -23 q0 -14 -9 -23 q-9 -9 -23 -9 ZM640 593 q27 1 45 19 q18 18 18 45 q0 27 -18 45 q-18 18 -45 18 q-27 0 -45 -18 q-18 -18 -18 -45 q0 -27 18 -45 q18 -18 45 -19 l0 0 ZM256 353 q-14 0 -23 9 q-9 9 -9 23 q0 14 9 23 q9 9 23 9 q14 0 23 -9 q9 -9 9 -23 q0 -14 -9 -23 q-9 -9 -23 -9 ZM256 321 q27 1 45 19 q18 18 18 45 q0 27 -18 45 q-18 18 -45 18 q-27 0 -45 -18 q-18 -18 -18 -45 q0 -27 18 -45 q18 -18 45 -19 l0 0 ZM351 369 q1 8 1 16 q0 8 -1 16 l545 0 l0 -32 l-545 0 ZM160 385 q0 -8 1 -16 l-161 0 l0 32 l161 0 q-1 -8 -1 -16 ZM735 641 q1 8 1 16 q0 8 -1 16 l161 0 l0 -32 l-161 0 ZM544 657 q0 -8 1 -16 l-545 0 l0 32 l545 0 q-1 -8 -1 -16 ZM735 97 q1 8 1 16 q0 8 -1 16 l161 0 l0 -32 l-161 0 ZM0 97 l0 32 l545 0 q-1 -8 -1 -16 q0 -8 1 -16 l-545 0 Z"></path></symbol><symbol id="minus" viewBox="0 -212 1024 1024"><path d="M416 -32 q177 4 294.5 121.5 q117.5 117.5 121.5 294.5 q-4 177 -121.5 294.5 q-117.5 117.5 -294.5 121.5 q-177 -4 -294.5 -121.5 q-117.5 -117.5 -121.5 -294.5 q4 -177 121.5 -294.5 q117.5 -117.5 294.5 -121.5 ZM416 765 q162 -4 269.5 -111.5 q107.5 -107.5 111.5 -269.5 q-4 -162 -111.5 -269.5 q-107.5 -107.5 -269.5 -111.5 q-162 4 -269.5 111.5 q-107.5 107.5 -111.5 269.5 q4 162 111.5 269.5 q107.5 107.5 269.5 111.5 ZM160 402 l512 0 l0 -34 l-512 0 l0 34 Z"></path></symbol><symbol id="minusfilled" viewBox="0 -212 1024 1024"><path d="M416 -32 q177 4 294.5 121.5 q117.5 117.5 121.5 294.5 q-4 177 -121.5 294.5 q-117.5 117.5 -294.5 121.5 q-177 -4 -294.5 -121.5 q-117.5 -117.5 -121.5 -294.5 q4 -177 121.5 -294.5 q117.5 -117.5 294.5 -121.5 ZM672 368 l-512 0 l0 34 l512 0 l0 -34 Z"></path></symbol><symbol id="plusempty" viewBox="0 -212 1024 1024"><path d="M512 368 l-240 0 l0 -240 l-34 0 l0 240 l-238 0 l0 34 l238 0 l0 238 l34 0 l0 -238 l240 0 l0 -34 Z"></path></symbol><symbol id="plus" viewBox="0 -212 1024 1024"><path d="M416 -32 q177 4 294.5 121.5 q117.5 117.5 121.5 294.5 q-4 177 -121.5 294.5 q-117.5 117.5 -294.5 121.5 q-177 -4 -294.5 -121.5 q-117.5 -117.5 -121.5 -294.5 q4 -177 121.5 -294.5 q117.5 -117.5 294.5 -121.5 ZM416 765 q162 -4 269.5 -111.5 q107.5 -107.5 111.5 -269.5 q-4 -162 -111.5 -269.5 q-107.5 -107.5 -269.5 -111.5 q-162 4 -269.5 111.5 q-107.5 107.5 -111.5 269.5 q4 162 111.5 269.5 q107.5 107.5 269.5 111.5 ZM432 368 l240 0 l0 33 l-240 0 l0 239 l-33 0 l0 -239 l-239 0 l0 -33 l239 0 l0 -240 l33 0 l0 240 Z"></path></symbol><symbol id="plusfilled" viewBox="0 -212 1024 1024"><path d="M416 -32 q177 4 294.5 121.5 q117.5 117.5 121.5 294.5 q-4 177 -121.5 294.5 q-117.5 117.5 -294.5 121.5 q-177 -4 -294.5 -121.5 q-117.5 -117.5 -121.5 -294.5 q4 -177 121.5 -294.5 q117.5 -117.5 294.5 -121.5 ZM672 368 l-240 0 l0 -240 l-34 0 l0 240 l-238 0 l0 34 l238 0 l0 238 l34 0 l0 -238 l240 0 l0 -34 Z"></path></symbol><symbol id="back" viewBox="0 -212 1024 1024"><path d="M129 384 l255 255 l-65 65 l-319 -320 l319 -320 l65 65 l-255 255 Z"></path></symbol><symbol id="forward" viewBox="0 -212 1024 1024"><path d="M255 384 l-255 255 l65 65 l319 -320 l-319 -320 l-65 65 l255 255 Z"></path></symbol><symbol id="navigate" viewBox="0 -212 1024 1024"><path d="M416 1 q-77 0 -146.5 29 q-69.5 29 -124 83.5 q-54.5 54.5 -83.5 124 q-29 69.5 -29 146.5 q0 77 29 146.5 q29 69.5 83.5 124 q54.5 54.5 124 83.5 q69.5 29 146.5 29 q77 0 146.5 -29 q69.5 -29 124 -83.5 q54.5 -54.5 83.5 -124 q29 -69.5 29 -146.5 q0 -77 -29 -146.5 q-29 -69.5 -83.5 -124 q-54.5 -54.5 -124 -83.5 q-69.5 -29 -146.5 -29 ZM416 -32 q177 4 294.5 121.5 q117.5 117.5 121.5 294.5 q-4 177 -121.5 294.5 q-117.5 117.5 -294.5 121.5 q-177 -4 -294.5 -121.5 q-117.5 -117.5 -121.5 -294.5 q4 -177 121.5 -294.5 q117.5 -117.5 294.5 -121.5 l0 0 ZM416 640 l0 -256 l-255 0 l447 -192 l-192 448 Z"></path></symbol><symbol id="flag" viewBox="0 -212 1024 1024"><path d="M480 96 q18 -2 32 -5 l0 347 q-14 2 -32 4 q-33 5 -77 7 q-37 -1 -71.5 -6.5 q-34.5 -5.5 -67.5 -13 q-33 -7.5 -64 -16.5 q-31 -9 -64 -9 q-45 0 -70 4.5 q-25 4.5 -34 8.5 l0 287 l-32 0 l0 -613 l7 -5 q1 -2 30 -11.5 q29 -9.5 99 -10.5 q35 0 68.5 5.5 q33.5 5.5 65.5 13 q32 7.5 64 14 q32 6.5 67 6.5 q22 0 42 -2.5 q20 -2.5 37 -4.5 ZM480 128 l-37 5 q-20 2 -42 2 q-37 0 -70.5 -7 q-33.5 -7 -66.5 -14 q-33 -7 -64 -12.5 q-31 -5.5 -64 -5.5 q-45 0 -70 4.5 q-25 4.5 -34 8.5 l0 275 q15 -5 40.5 -8.5 q25.5 -3.5 63.5 -3.5 q35 1 68.5 10 q33.5 9 65.5 16.5 q32 7.5 65 13 q33 5.5 68 5.5 q44 -1 77 -7 l0 -282 Z"></path></symbol><symbol id="loop" viewBox="0 -212 1024 1024"><path d="M978 407 l-105 105 l-106 -106 l21 -22 l85 83 l83 -83 l22 23 ZM897 384 q0 21 -2 43 l-32 -4 q2 -21 2 -41 q-5 -159 -111 -264.5 q-106 -105.5 -265 -109.5 q-103 1 -189.5 51.5 q-86.5 50.5 -138.5 140.5 l-28 -16 q56 -97 150 -152 q94 -55 206 -56 q172 4 287 118 q115 114 121 286 l0 0 q0 1 0 3 l0 1 ZM845 584 q-56 97 -150 152 q-94 55 -206 56 q-171 -4 -285.5 -116.5 q-114.5 -112.5 -122.5 -282.5 l0 0 l0 -9 l0 0 q0 -21 2 -43 l32 4 q-2 20 -2 40 q5 159 111 265 q106 106 265 110 q103 -1 189.5 -51.5 q86.5 -50.5 138.5 -140.5 l28 16 ZM210 361 l-22 23 l-83 -83 l-83 83 l-22 -23 l105 -105 l105 105 Z"></path></symbol><symbol id="more" viewBox="0 -212 1024 1024"><path d="M319 349 q-15 0 -25.5 10.5 q-10.5 10.5 -10.5 25.5 q0 15 10.5 25.5 q10.5 10.5 25.5 10.5 q15 0 25.5 -10.5 q10.5 -10.5 10.5 -25.5 q0 -15 -10.5 -25.5 q-10.5 -10.5 -25.5 -10.5 ZM319 321 q27 1 45 19 q18 18 18 45 q0 27 -18 45 q-18 18 -45 18 q-27 0 -45 -18 q-18 -18 -18 -45 q0 -27 18 -45 q18 -18 45 -19 l0 0 ZM64 349 q-15 0 -25.5 10.5 q-10.5 10.5 -10.5 25.5 q0 15 10.5 25.5 q10.5 10.5 25.5 10.5 q15 0 25 -10.5 q10 -10.5 10 -25.5 q0 -15 -10 -25.5 q-10 -10.5 -25 -10.5 ZM64 321 q27 1 45 19 q18 18 18 45 q0 27 -18 45 q-18 18 -45 18 q-27 0 -45.5 -18 q-18.5 -18 -18.5 -45 q0 -27 18.5 -45 q18.5 -18 45.5 -19 l0 0 ZM575 349 q-15 0 -25.5 10.5 q-10.5 10.5 -10.5 25.5 q0 15 10.5 25.5 q10.5 10.5 25.5 10.5 q15 0 25.5 -10.5 q10.5 -10.5 10.5 -25.5 q0 -15 -10.5 -25.5 q-10.5 -10.5 -25.5 -10.5 ZM575 321 q27 1 45 19 q18 18 18 45 q0 27 -18 45 q-18 18 -45 18 q-27 0 -45 -18 q-18 -18 -18 -45 q0 -27 18 -45 q18 -18 45 -19 l0 0 Z"></path></symbol><symbol id="morefilled" viewBox="0 -212 1024 1024"><path d="M319 321 q27 1 45 19 q18 18 18 45 q0 27 -18 45 q-18 18 -45 18 q-27 0 -45 -18 q-18 -18 -18 -45 q0 -27 18 -45 q18 -18 45 -19 l0 0 ZM64 321 q27 1 45 19 q18 18 18 45 q0 27 -18 45 q-18 18 -45 18 q-27 0 -45.5 -18 q-18.5 -18 -18.5 -45 q0 -27 18.5 -45 q18.5 -18 45.5 -19 l0 0 ZM575 321 q27 1 45 19 q18 18 18 45 q0 27 -18 45 q-18 18 -45 18 q-27 0 -45 -18 q-18 -18 -18 -45 q0 -27 18 -45 q18 -18 45 -19 l0 0 Z"></path></symbol><symbol id="paperplane" viewBox="0 -212 1024 1024"><path d="M640 64 l-292 640 l-115 -230 l-233 -103 l640 -307 ZM346 630 l230 -497 l-312 332 l82 165 ZM76 370 l166 73 l330 -314 l-496 241 Z"></path></symbol><symbol id="arrowdown" viewBox="0 -212 1024 1024"><path d="M320 493 l-281 -301 l-39 41 l320 343 l320 -343 l-39 -41 l-281 301 Z"></path></symbol><symbol id="arrowleft" viewBox="0 -212 1024 1024"><path d="M83 384 l301 281 l-41 39 l-343 -320 l343 -320 l41 39 l-301 281 Z"></path></symbol><symbol id="arrowright" viewBox="0 -212 1024 1024"><path d="M301 384 l-301 281 l41 39 l343 -320 l-343 -320 l-41 39 l301 281 Z"></path></symbol><symbol id="arrowthindown" viewBox="0 -212 1024 1024"><path d="M379 516 q5 5 5 11.5 q0 6.5 -5 11.5 l-176 160 q-2 4 -11 5 q-9 -1 -11 -5 l-176 -160 q-5 -4 -5 -11 q0 -7 5 -11.5 q5 -4.5 11 -4.5 q6 0 11 5 l149 132 l0 -569 q0 -7 4.5 -11.5 q4.5 -4.5 11.5 -4.5 q7 0 11.5 4.5 q4.5 4.5 4.5 11.5 l0 569 l149 -133 q5 -4 11.5 -4 q6.5 0 10.5 4 Z"></path></symbol><symbol id="arrowthinleft" viewBox="0 -212 1024 1024"><path d="M188 571 q-5 5 -11.5 5 q-6.5 0 -11.5 -5 l-160 -176 q-4 -2 -5 -11 q1 -9 5 -11 l160 -176 q4 -5 11 -5 q7 0 11.5 5 q4.5 5 4.5 11 q0 6 -5 11 l-132 149 l569 0 q7 0 11.5 4.5 q4.5 4.5 4.5 11.5 q0 7 -4.5 11.5 q-4.5 4.5 -11.5 4.5 l-569 0 l133 149 q4 5 4 11.5 q0 6.5 -4 10.5 Z"></path></symbol><symbol id="arrowthinright" viewBox="0 -212 1024 1024"><path d="M452 571 q5 5 11.5 5 q6.5 0 11.5 -5 l160 -176 q4 -2 5 -11 q-1 -9 -5 -11 l-160 -176 q-4 -5 -11 -5 q-7 0 -11.5 5 q-4.5 5 -4.5 11 q0 6 5 11 l132 149 l-569 0 q-7 0 -11.5 4.5 q-4.5 4.5 -4.5 11.5 q0 7 4.5 11.5 q4.5 4.5 11.5 4.5 l569 0 l-133 149 q-4 5 -4 11.5 q0 6.5 4 10.5 Z"></path></symbol><symbol id="arrowthinup" viewBox="0 -212 1024 1024"><path d="M379 252 q5 -5 5 -11.5 q0 -6.5 -5 -11.5 l-176 -160 q-2 -4 -11 -5 q-9 1 -11 5 l-176 160 q-5 4 -5 11 q0 7 5 11.5 q5 4.5 11 4.5 q6 0 11 -5 l149 -132 l0 569 q0 7 4.5 11.5 q4.5 4.5 11.5 4.5 q7 0 11.5 -4.5 q4.5 -4.5 4.5 -11.5 l0 -569 l149 133 q5 4 11.5 4 q6.5 0 10.5 -4 Z"></path></symbol><symbol id="arrowup" viewBox="0 -212 1024 1024"><path d="M320 275 l-281 301 l-39 -41 l320 -343 l320 343 l-39 41 l-281 -301 Z"></path></symbol><symbol id="checkmarkempty" viewBox="0 -212 1024 1024"><path d="M415 265 l-35 -36 l-250 251 l-94 -94 l-36 35 l112 112 q9 8 18.5 8 q9.5 0 17.5 -8 l267 -268 Z"></path></symbol><symbol id="checkboxfilled" viewBox="0 -212 1024 1024"><path d="M416 -32 q177 4 294.5 121.5 q117.5 117.5 121.5 294.5 q-4 177 -121.5 294.5 q-117.5 117.5 -294.5 121.5 q-177 -4 -294.5 -121.5 q-117.5 -117.5 -121.5 -294.5 q4 -177 121.5 -294.5 q117.5 -117.5 294.5 -121.5 ZM619 263 l-35 -36 l-250 251 l-94 -94 l-36 35 l112 112 q9 8 18.5 8 q9.5 0 17.5 -8 l267 -268 Z"></path></symbol><symbol id="circle" viewBox="0 -212 1024 1024"><path d="M416 -128 q177 4 294.5 121.5 q117.5 117.5 121.5 294.5 q-4 177 -121.5 294.5 q-117.5 117.5 -294.5 121.5 q-177 -4 -294.5 -121.5 q-117.5 -117.5 -121.5 -294.5 q4 -177 121.5 -294.5 q117.5 -117.5 294.5 -121.5 ZM416 669 q162 -4 269.5 -111.5 q107.5 -107.5 111.5 -269.5 q-4 -162 -111.5 -269.5 q-107.5 -107.5 -269.5 -111.5 q-162 4 -269.5 111.5 q-107.5 107.5 -111.5 269.5 q4 162 111.5 269.5 q107.5 107.5 269.5 111.5 Z"></path></symbol><symbol id="scan" viewBox="0 -212 1024 1024"><path d="M928 444 q14 0 23 -9 q9 -9 9 -23 q0 -14 -9 -23 q-9 -9 -23 -9 l-832 0 q-14 0 -23 9 q-9 9 -9 23 q0 14 9 23 q9 9 23 9 l832 0 ZM832 828 q41 -1 68 -28 q27 -27 28 -68 l0 -160 q0 -14 -9 -23 q-9 -9 -23 -9 q-14 0 -23 9 q-9 9 -9 23 l0 160 q0 14 -9 23 q-9 9 -23 9 l-192 0 q-14 0 -23 9 q-9 9 -9 23 q0 14 9 23 q9 9 23 9 l192 0 ZM352 828 q14 0 23 -9 q9 -9 9 -23 q0 -14 -9 -23 q-9 -9 -23 -9 l-160 0 q-14 0 -23 -9 q-9 -9 -9 -23 l0 -160 q0 -14 -9 -23 q-9 -9 -23 -9 q-14 0 -23 9 q-9 9 -9 23 l0 160 q1 41 28 68 q27 27 68 28 l160 0 ZM128 284 q14 0 23 -9 q9 -9 9 -23 l0 -160 q0 -14 9 -23 q9 -9 23 -9 l160 0 q14 0 23 -9 q9 -9 9 -23 q0 -14 -9 -23 q-9 -9 -23 -9 l-160 0 q-41 1 -68 28 q-27 27 -28 68 l0 160 q0 14 9 23 q9 9 23 9 ZM896 284 q14 0 23 -9 q9 -9 9 -23 l0 -160 q-1 -41 -28 -68 q-27 -27 -68 -28 l-192 0 q-14 0 -23 9 q-9 9 -9 23 q0 14 9 23 q9 9 23 9 l192 0 q14 0 23 9 q9 9 9 23 l0 160 q0 14 9 23 q9 9 23 9 Z"></path></symbol><symbol id="save" viewBox="0 -212 1024 1024"><path d="M824 8 q-4 -4 -14 -6.5 q-10 -2.5 -20 -2.5 l-543 0 q-56 0 -88 33 q-32 33 -32 88 l0 599 q0 57 32 84.5 q32 27.5 88 27.5 l592 0 q54 0 86.5 -33 q32.5 -33 32.5 -81 l0 -550 q0 -6 -1 -16.5 q-1 -10.5 -8 -18.5 l-125 -124 ZM768 255 q0 32 -19 48.5 q-19 16.5 -47 16.5 l-389 0 q-12 0 -22.5 -5.5 q-10.5 -5.5 -19 -14.5 q-8.5 -9 -13 -19.5 q-4.5 -10.5 -4.5 -20.5 l0 -167 q0 -13 9 -22 q9 -9 25 -8 l446 0 q32 0 34 32 l0 160 ZM768 705 l-514 0 l0 -149 q0 -21 11 -33 q11 -12 35 -12 l423 0 q45 1 45 45 l0 149 Z"></path></symbol><symbol id="newuser_2" viewBox="0 -212 1024 1024"><path d="M57 752 l0 0 ZM574 707 l0 -92 l124 0 l0 -124 l92 0 l0 124 l123 0 l0 92 l-123 0 l0 123 l-92 0 l0 -123 l-124 0 ZM121 831 q2 -130 56.5 -224 q54.5 -94 143.5 -141 q-42 -35 -67 -87.5 q-25 -52.5 -25 -113.5 q3 -109 70.5 -181.5 q67.5 -72.5 169.5 -75.5 q102 3 170 75.5 q68 72.5 70 181.5 q0 61 -23.5 111 q-23.5 50 -64.5 86 q21 12 43 29 l0 95 l-125 0 l0 151 l125 0 l0 94 l-543 0 ZM977 752 l0 0 Z"></path></symbol><symbol id="newuser_1" viewBox="0 -212 1024 1024"><path d="M512 455 q96 -1 160 -65 q64 -64 65 -160 q-1 -96 -65 -159.5 q-64 -63.5 -160 -65.5 q-96 2 -159.5 65.5 q-63.5 63.5 -65.5 159.5 q2 96 65.5 160 q63.5 64 159.5 65 ZM512 70 q67 2 111.5 47 q44.5 45 46.5 111 q-2 68 -46.5 112.5 q-44.5 44.5 -111.5 45.5 q-67 -1 -111.5 -45.5 q-44.5 -44.5 -46.5 -112.5 q2 -67 46.5 -111.5 q44.5 -44.5 111.5 -46.5 ZM142 828 q14 -1 23.5 -10.5 q9.5 -9.5 9.5 -23.5 q4 -142 99.5 -237 q95.5 -95 237.5 -100 q14 0 23.5 -9.5 q9.5 -9.5 9.5 -24 q0 -14.5 -9.5 -23.5 q-9.5 -9 -23.5 -10 q-171 4 -285.5 118.5 q-114.5 114.5 -118.5 285.5 q1 14 10 23.5 q9 9.5 24 10.5 ZM844 676 q14 0 23.5 -9.5 q9.5 -9.5 9.5 -24 q0 -14.5 -9.5 -24 q-9.5 -9.5 -23.5 -9.5 l-259 0 q-14 0 -24 9.5 q-10 9.5 -10 24 q0 14.5 10 24 q10 9.5 24 9.5 l259 0 ZM714 806 q15 -1 24.5 -10.5 q9.5 -9.5 9.5 -23.5 l0 -259 q0 -14 -9.5 -23.5 q-9.5 -9.5 -24 -9.5 q-14.5 0 -24 9.5 q-9.5 9.5 -9.5 23.5 l0 259 q0 14 9.5 23.5 q9.5 9.5 23.5 10.5 Z"></path></symbol><symbol id="new_1" viewBox="0 -212 1024 1024"><path d="M523 443 l0 0 ZM192 443 q3 -140 96.5 -233.5 q93.5 -93.5 234.5 -96.5 q140 3 233 96.5 q93 93.5 97 235.5 q-4 139 -97 232 q-93 93 -233 97 q-141 -4 -234.5 -97 q-93.5 -93 -96.5 -234 ZM499 823 q81 0 157 -33 q73 -30 129 -85.5 q56 -55.5 86 -130.5 q34 -74 34 -157 q0 -83 -34 -158 q-30 -72 -86 -128 q-56 -56 -129 -88 q-76 -31 -158 -31 q-82 0 -158 31 q-72 32 -128.5 88 q-56.5 56 -87.5 128 q-32 75 -32 158 q0 83 32 157 q31 75 87.5 130.5 q56.5 55.5 128.5 85.5 q76 33 159 33 ZM499 57 q152 4 253.5 106 q101.5 102 106.5 255 q-5 152 -106.5 254 q-101.5 102 -253.5 105 q-154 -3 -255.5 -105 q-101.5 -102 -105.5 -254 q4 -153 105.5 -255 q101.5 -102 255.5 -106 ZM285 450 l427 0 l0 -65 l-427 0 l0 65 ZM533 631 l0 -426 l-69 0 l0 426 l69 0 Z"></path></symbol><symbol id="new_2" viewBox="0 -212 1024 1024"><path d="M442 896 q186 -5 309.5 -128.5 q123.5 -123.5 127.5 -309.5 q-4 -186 -127.5 -309.5 q-123.5 -123.5 -309.5 -128.5 q-186 5 -310 128.5 q-124 123.5 -128 309.5 q4 186 128 309.5 q124 123.5 310 128.5 ZM439 102 q151 4 251.5 104 q100.5 100 104.5 252 q-4 151 -104.5 248.5 q-100.5 97.5 -251.5 101.5 q-151 -4 -248 -101.5 q-97 -97.5 -100 -248.5 q3 -152 100 -252 q97 -100 248 -104 ZM617 501 q19 0 31 -12.5 q12 -12.5 13 -30.5 l0 0 q-1 -19 -13 -31.5 q-12 -12.5 -31 -12.5 l-131 0 l0 -131 q-1 -19 -13 -31.5 q-12 -12.5 -31 -12.5 l0 0 q-19 0 -31 12.5 q-12 12.5 -13 31.5 l0 131 l-131 0 q-19 0 -31 12.5 q-12 12.5 -13 31.5 l0 0 q1 18 13 30.5 q12 12.5 31 12.5 l131 0 l0 132 q1 18 13 30.5 q12 12.5 31 12.5 l0 0 q19 0 31 -12.5 q12 -12.5 13 -30.5 l0 -132 l65 0 q58 0 66 0 Z"></path></symbol><symbol id="delete_1" viewBox="0 -212 1024 1024"><path d="M247 179 q7 0 11.5 -5 q4.5 -5 3.5 -12 l39 619 q0 -6 -4 -9 q-4 -3 -10 -4 l431 0 q-6 1 -10 4 q-4 3 -4 9 l39 -619 q-1 7 4 12 q5 5 11 5 l-511 0 ZM207 166 q-1 -18 10.5 -30.5 q11.5 -12.5 29.5 -12.5 l511 0 q18 0 29.5 12.5 q11.5 12.5 10.5 30.5 l-39 619 q-1 17 -12.5 28 q-11.5 11 -28.5 11 l-431 0 q-17 0 -28.5 -11 q-11.5 -11 -12.5 -28 l-39 -619 ZM140 179 q-12 -1 -20 -8.5 q-8 -7.5 -8 -19.5 q0 -12 8 -20 q8 -8 20 -8 l725 0 q12 0 20 8 q8 8 8 20 q0 12 -8 19.5 q-8 7.5 -20 8.5 l-725 0 ZM382 179 q-18 -1 -30 -12.5 q-12 -11.5 -12 -28.5 l0 -82 q0 -17 12 -28.5 q12 -11.5 30 -12.5 l241 0 q18 1 30 12.5 q12 11.5 12 28.5 l0 82 q0 17 -12 28.5 q-12 11.5 -30 12.5 l-241 0 ZM396 138 q0 -7 -4 -11 q-4 -4 -10 -4 l241 0 q-6 0 -10 4 q-4 4 -4 11 l0 -82 q0 6 4 10 q4 4 10 5 l-241 0 q6 -1 10 -5 q4 -4 4 -10 l0 82 ZM569 272 q0 -12 8 -20 q8 -8 19.5 -8 q11.5 0 19.5 8 q8 8 8 20 l0 403 q0 12 -8 20 q-8 8 -19.5 8 q-11.5 0 -19.5 -8 q-8 -8 -8 -20 l0 -403 ZM436 675 q0 12 -8 20 q-8 8 -19.5 8 q-11.5 0 -19.5 -8 q-8 -8 -8 -20 l0 -403 q0 -12 8 -20 q8 -8 19.5 -8 q11.5 0 19.5 8 q8 8 8 20 l0 403 Z"></path></symbol><symbol id="delete_2" viewBox="0 -212 1024 1024"><path d="M758 186.25 q36 51 54.5 110.5 q18.5 59.5 18.5 122.5 q-3 162 -106 275.5 q-103 113.5 -264 132.5 q-161 12 -284 -79.5 q-123 -91.5 -157 -249.5 q-28 -160 51.5 -291 q79.5 -131 233.5 -180 q11 -3 21 2 q10 5 13 16.5 q3 11.5 -2 21 q-5 9.5 -17 12.5 q-114 37 -182 128.5 q-68 91.5 -71 211.5 q2 117 67 208 q65 91 176 129 q111 35 218 1.5 q107 -33.5 178 -125.5 q69 -95 71 -206.5 q2 -111.5 -64 -209.5 q-5 -9 -3 -19.5 q2 -10.5 11 -16.5 q9 -6 19.5 -4.5 q10.5 1.5 17.5 10.5 ZM522 79.25 q-11 -3 -16.5 -12.5 q-5.5 -9.5 -2 -21 q3.5 -11.5 13.5 -16.5 q10 -5 21 -2 q75 22 136 71 q9 7 10.5 18 q1.5 11 -6 20 q-7.5 9 -18 10 q-10.5 1 -20.5 -6 q-53 -41 -117 -61 l-1 0 ZM402 57.25 q-3 -4 -5 -9.5 q-2 -5.5 -2 -11 q0 -5.5 2 -10.5 q2 -5 5 -8 l5 -4 q2 -2 4.5 -2.5 q2.5 -0.5 5.5 -1.5 q14 -3 25 8 q7 8 7 19 q0 11 -7 20 q-5 3 -10 5 q-10 5 -20 0 q-5 -2 -10 -5 ZM605 236.25 q8 8 8 19.5 q0 11.5 -9 19.5 l-144 144 l144 145 q8 8 7.5 18.5 q-0.5 10.5 -8.5 18.5 q-8 8 -18 8.5 q-10 0.5 -19 -7.5 l-144 -144 l-145 144 q-11 13 -27 9 q-16 -4 -19.5 -20 q-3.5 -16 8.5 -27 l145 -145 l-145 -145 q-7 -8 -6.5 -18.5 q0.5 -10.5 8.5 -18 q8 -7.5 18 -8 q10 -0.5 19 6.5 l144 145 l145 -145 q8 -8 19 -8 q11 0 19 8 Z"></path></symbol><symbol id="new_2" viewBox="0 -212 1024 1024"><path d="M442 175 q116 3 194 81 q78 78 81 194 q-1 85 -46.5 153 q-45.5 68 -123.5 102 q-79 32 -159 16 q-80 -16 -141 -76 q-60 -61 -76 -141 q-16 -80 16 -159 q34 -78 102 -123.5 q68 -45.5 153 -46.5 ZM635 495 q11 0 19 -8 q8 -8 8 -20 l0 -33 q0 -11 -8 -19.5 q-8 -8.5 -19 -8.5 l-138 0 q-4 0 -7.5 -3 q-3.5 -3 -3.5 -8 l0 -138 q0 -11 -8 -19 q-8 -8 -20 -8 l-33 0 q-11 0 -19 8 q-8 8 -9 19 l0 138 q0 5 -2.5 8 q-2.5 3 -8.5 3 l-138 0 q-11 0 -19 8 q-8 8 -8 20 l0 33 q0 12 8 20 q8 8 19 8 l138 0 q6 0 8.5 3 q2.5 3 3.5 8 l0 138 q0 11 8 19 q8 8 19 8 l34 0 q11 0 19 -8 q8 -8 8 -19 l0 -138 q0 -5 3.5 -8 q3.5 -3 7.5 -3 l138 0 ZM442 884 q183 -5 305.5 -127.5 q122.5 -122.5 127.5 -306.5 q0 -96 -41 -183 q-2 -5 -7.5 -7.5 q-5.5 -2.5 -11 0.5 q-5.5 3 -7.5 8.5 q-2 5.5 1 10.5 q38 82 38 171 q-4 172 -119 287 q-115 115 -286 119 q-172 -4 -287 -119 q-115 -115 -119 -287 q1 -113 57 -207.5 q56 -94.5 156 -149.5 q100 -52 210 -47.5 q110 4.5 205 66.5 q5 3 10.5 2 q5.5 -1 9 -6 q3.5 -5 2 -10.5 q-1.5 -5.5 -5.5 -9.5 q-52 -35 -112 -52.5 q-60 -17.5 -122 -18.5 q-182 3 -305.5 122 q-123.5 119 -132.5 300 q0 188 123 314 q123 126 311 131 ZM793 206 l0 0 ZM777 206 q1 -9 8.5 -13.5 q7.5 -4.5 15 0 q7.5 4.5 7.5 13.5 q0 9 -7.5 13.5 q-7.5 4.5 -15 0 q-7.5 -4.5 -8.5 -13.5 Z"></path></symbol><symbol id="newusesr_3" viewBox="0 -212 1024 1024"><path d="M859 711 l-112 0 l0 -112 l-74 0 l0 112 l-112 0 l0 74 l112 0 l0 111 l74 0 l0 -111 l112 0 l0 -74 ZM691 560 q-56 -53 -129 -82 q71 -50 98 -129 q27 -79 3 -163 q-28 -83 -95.5 -132.5 q-67.5 -49.5 -154.5 -50.5 q-87 1 -154 50.5 q-67 49.5 -95 131.5 q-25 84 2 163 q27 79 98 130 q-119 48 -188.5 150 q-69.5 102 -71.5 230 l519 0 l0 -73 l-438 0 q27 -110 109.5 -181 q82.5 -71 195.5 -79 q12 1 23.5 1 q11.5 0 22.5 -1 q50 3 98 21.5 q48 18.5 88 50.5 l14 0 l-2 -37 l57 0 ZM601 265 q-1 37 -15 71 q-14 34 -40.5 61 q-26.5 27 -60.5 40.5 q-34 13.5 -72 13.5 q-79 -1 -132 -54 q-53 -53 -55 -132 q2 -81 55 -133 q53 -52 132 -55 q80 3 132.5 55.5 q52.5 52.5 55.5 132.5 Z"></path></symbol><symbol id="new_3" viewBox="0 -212 1024 1024"><path d="M449 13 q-29 6 -43 26 q-14 20 -27 41 l42 36 l31 -47 l250 160 l-374 589 l-42 -120 q-20 -58 -81 -52 l-84 9 l-42 3 l97 -155 l-51 -23 l-1 2 q-55 86 -108 171 q-15 22 -2 46 q7 11 17.5 15 q10.5 4 23.5 3 q79 -7 157 -15 q17 -3 22 15 l47 138 q5 14 14 25 q9 11 24 15 l10 0 q22 -8 35 -28 l381 -602 q16 -24 11 -47.5 q-5 -23.5 -30 -39.5 q-108 -70 -218 -139 q-24 -14 -50 -26 l-9 0 ZM247 65 q-90 1 -150 61 q-60 60 -62 149 q2 92 61.5 152.5 q59.5 60.5 150.5 62.5 q91 -2 151 -62.5 q60 -60.5 63 -150.5 q-3 -92 -63 -151.5 q-60 -59.5 -151 -60.5 ZM295 392 q0 16 -7 23.5 q-7 7.5 -22 7.5 l-37 0 q-28 0 -29 -28 q0 -31 0 -62 l-1 -9 l-68 0 q-15 0 -21.5 -6.5 q-6.5 -6.5 -6.5 -22.5 l0 -40 q1 -24 26 -25 l71 -1 l0 -41 q0 -16 1 -33 q2 -22 24.5 -23 q22.5 -1 44.5 0 q24 1 25 26 l0 70 l2 2 l62 0 q20 -1 27 6.5 q7 7.5 7 27.5 q0 17 0 35 q-1 25 -26 25 q-35 0 -72 0 l0 68 Z"></path></symbol><symbol id="delete_2" viewBox="0 -212 1024 1024"><path d="M673 880 q11 0 18.5 -7.5 q7.5 -7.5 8.5 -18.5 l39 -719 q0 -11 -8 -19.5 q-8 -8.5 -20 -9.5 l-574 0 q-12 1 -20 9.5 q-8 8.5 -7 19.5 l39 719 q1 11 8.5 18.5 q7.5 7.5 18.5 7.5 l497 0 ZM166 161 l517 0 l-36 665 l-445 0 l-36 -665 ZM818 161 q11 0 19 -8 q8 -8 8 -19.5 q0 -11.5 -8 -19 q-8 -7.5 -19 -8.5 l-99 0 q-11 1 -19 8.5 q-8 7.5 -8 19 q0 11.5 8 19.5 q8 8 19 8 l99 0 ZM130 161 q11 0 19 -8 q8 -8 8 -19.5 q0 -11.5 -8 -19 q-8 -7.5 -19 -8.5 l-99 0 q-12 1 -19.5 8.5 q-7.5 7.5 -7.5 19 q0 11.5 7.5 19.5 q7.5 8 19.5 8 l99 0 ZM548 154 q11 0 19 -8 q8 -8 8 -19 l0 -92 q0 -11 -8 -19 q-8 -8 -19 -8 l-247 0 q-12 0 -19.5 8 q-7.5 8 -8.5 19 l0 92 q1 11 8.5 19 q7.5 8 19 8 q11.5 0 19.5 -8 q8 -8 8 -19 l0 -65 l192 0 l0 65 q1 11 8.5 19 q7.5 8 19.5 8 ZM296 774 q11 0 18.5 -8.5 q7.5 -8.5 6.5 -19.5 l-27 -505 q-1 -12 -9 -19.5 q-8 -7.5 -19.5 -6.5 q-11.5 1 -19 9 q-7.5 8 -7.5 20 l28 505 q1 11 8.5 18 q7.5 7 18.5 7 l2 0 ZM553 774 q11 0 18.5 -7 q7.5 -7 8.5 -18 l28 -505 q0 -12 -7 -20 q-7 -8 -18.5 -9 q-11.5 -1 -20 6.5 q-8.5 7.5 -9.5 19.5 l-27 505 q0 11 7 19.5 q7 8.5 19 8.5 q0 0 1 0 ZM424 774 q12 0 19.5 -7.5 q7.5 -7.5 7.5 -19.5 l0 -505 q0 -12 -7.5 -19.5 q-7.5 -7.5 -19 -7.5 q-11.5 0 -19.5 7.5 q-8 7.5 -8 19.5 l0 505 q0 12 8 19.5 q8 7.5 19 7.5 Z"></path></symbol><symbol id="print_1" viewBox="0 -212 1024 1024"><path d="M216 220 q6 0 9.5 3.5 q3.5 3.5 3.5 9.5 l0 96 q0 6 -3.5 10 q-3.5 4 -9.5 4 l-88 0 q-5 0 -9 -4 q-4 -4 -4 -10 l0 -47 q1 -27 18.5 -44.5 q17.5 -17.5 44.5 -17.5 l38 0 ZM766 220 q26 0 44 17.5 q18 17.5 19 44.5 l0 47 q0 6 -4.5 10 q-4.5 4 -9.5 4 l-87 0 q-7 0 -10.5 -4 q-3.5 -4 -3.5 -10 l0 -96 q0 -6 3.5 -9.5 q3.5 -3.5 10.5 -3.5 l38 0 ZM229 280 l0 49 q0 6 -3.5 10 q-3.5 4 -9.5 4 l-88 0 q-5 0 -9 -4 q-4 -4 -4 -10 l0 -47 q0 -1 0 -2 l114 0 ZM728 343 q-7 0 -10.5 -4 q-3.5 -4 -3.5 -10 l0 -49 l115 0 l0 49 q0 6 -4.5 10 q-4.5 4 -9.5 4 l-87 0 ZM737 122 q4 3 4 9 l0 198 q0 6 -4 10 q-4 4 -9 4 l-512 0 q-6 0 -10 -4 q-4 -4 -4 -10 l0 -297 q0 -6 4 -9.5 q4 -3.5 10 -4.5 l413 0 q5 1 9 5 l99 99 ZM741 280 l0 49 q0 6 -4 10 q-4 4 -9 4 l-512 0 q-6 0 -10 -4 q-4 -4 -4 -10 l0 -49 l539 0 ZM737 122 q6 6 2.5 14 q-3.5 8 -11.5 8 l-99 0 q-7 0 -10.5 -3.5 q-3.5 -3.5 -3.5 -9.5 l0 -99 q0 -9 8.5 -12.5 q8.5 -3.5 14.5 3.5 l99 99 ZM937 641 q1 30 -19 52 q-20 22 -50 23 l-792 0 q-30 -1 -50.5 -23 q-20.5 -22 -18.5 -52 l23 -262 q3 -28 22 -45.5 q19 -17.5 47 -17.5 l745 0 q28 0 47 17.5 q19 17.5 22 45.5 l24 262 ZM937 641 q1 30 -19 52 q-20 22 -50 23 l-792 0 q-30 -1 -50.5 -23 q-20.5 -22 -18.5 -52 l3 -37 q5 13 15 24 q21 22 51 23 l792 0 q30 -1 51 -23 q10 -11 14 -24 l4 37 ZM156 606 l632 0 l0 -50 l-632 0 l0 50 ZM728 542 q5 1 9 4.5 q4 3.5 4 9.5 l0 307 q0 6 -4 9.5 q-4 3.5 -9 4.5 l-512 0 q-6 -1 -10 -4.5 q-4 -3.5 -4 -9.5 l0 -307 q0 -6 4 -9.5 q4 -3.5 10 -4.5 l512 0 ZM728 542 q5 1 9 4.5 q4 3.5 4 9.5 l0 50 l-539 0 l0 -50 q0 -6 4 -9.5 q4 -3.5 10 -4.5 l512 0 ZM788 609 q5 0 9 -3.5 q4 -3.5 4 -9.5 l0 -40 q0 -6 -4 -9.5 q-4 -3.5 -9 -4.5 l-632 0 q-6 1 -10 4.5 q-4 3.5 -4 9.5 l0 40 q0 6 4 9.5 q4 3.5 10 3.5 q6 0 9.5 -3.5 q3.5 -3.5 3.5 -9.5 l0 -27 l605 0 l0 27 q0 6 3.5 9.5 q3.5 3.5 10.5 3.5 ZM800 442 q10 -1 16 -7.5 q6 -6.5 6 -16 q0 -9.5 -6 -16 q-6 -6.5 -16 -6.5 q-10 0 -16.5 6.5 q-6.5 6.5 -6.5 16 q0 9.5 6.5 16 q6.5 6.5 16.5 7.5 ZM731 442 q10 -1 16.5 -7.5 q6.5 -6.5 6.5 -16 q0 -9.5 -6.5 -16 q-6.5 -6.5 -16.5 -6.5 q-10 0 -16 6.5 q-6 6.5 -6 16 q0 9.5 6 16 q6 6.5 16 7.5 ZM663 442 q9 -1 15.5 -7.5 q6.5 -6.5 6.5 -16 q0 -9.5 -6.5 -16 q-6.5 -6.5 -16 -6.5 q-9.5 0 -15.5 6.5 q-6 6.5 -6 16 q0 9.5 6 16 q6 6.5 16 7.5 ZM800 396 q10 0 16 6.5 q6 6.5 6 16 q0 9.5 -6 16 q-6 6.5 -16 7.5 q-6 0 -10 -3 q11 -6 11 -20 q0 -14 -11 -21 q4 -2 10 -2 ZM731 396 q10 0 16.5 6.5 q6.5 6.5 6.5 16 q0 9.5 -6.5 16 q-6.5 6.5 -16.5 7.5 q-5 0 -10 -3 q12 -6 12 -20 q0 -14 -12 -21 q5 -2 10 -2 ZM663 396 q9 0 15.5 6.5 q6.5 6.5 6.5 16 q0 9.5 -6.5 16 q-6.5 6.5 -15.5 7.5 q-5 0 -11 -3 q13 -6 13 -20 q0 -14 -13 -21 q6 -2 11 -2 Z"></path></symbol><symbol id="save_2" viewBox="0 -212 1024 1024"><path d="M880 168 l0 635 q-1 33 -23.5 55.5 q-22.5 22.5 -55.5 22.5 l-714 0 q-33 0 -55.5 -22.5 q-22.5 -22.5 -23.5 -55.5 l0 -714 q1 -33 23.5 -55.5 q22.5 -22.5 55.5 -23.5 l635 0 l118 119 l40 39 ZM246 287 l396 0 l0 -238 l-396 0 l0 238 ZM722 486 l-556 0 l0 356 l556 0 l0 -356 ZM840 188 l-139 -139 l-19 0 l0 238 q0 17 -12 28.5 q-12 11.5 -28 11.5 l-396 0 q-17 0 -28.5 -11.5 q-11.5 -11.5 -11.5 -28.5 l0 -238 l-119 0 q-17 1 -28 12 q-11 11 -12 28 l0 714 q1 16 12 27.5 q11 11.5 28 11.5 l40 0 l0 -356 q0 -17 11 -28.5 q11 -11.5 28 -11.5 l556 0 q16 0 27.5 11.5 q11.5 11.5 11.5 28.5 l0 356 l40 0 q16 0 27.5 -11.5 q11.5 -11.5 11.5 -27.5 l0 -615 ZM642 763 l-396 0 l0 -39 l396 0 l0 39 ZM523 89 l80 0 l0 159 l-80 0 l0 -159 ZM484 605 l-238 0 l0 -40 l238 0 l0 40 ZM642 684 l-396 0 l0 -40 l396 0 l0 40 Z"></path></symbol><symbol id="delete_3" viewBox="0 -212 1024 1024"><path d="M1011 3 q14 0 13 13 l0 733 q0 7 -4 10 q-4 3 -9 3 l-608 0 q-2 0 -3 -1 l-397 -367 l0 -3 q-2 -1 -3 -2 l0 -2 l0 -9 q2 0 3 -2 l0 -5 l397 -367 q1 -1 3 -1 l608 0 ZM1002 29 l-592 0 l-381 352 l381 352 l592 0 l0 -352 l0 -352 ZM483 519 l144 -141 l-144 -144 l16 -16 l144 144 l141 -144 l16 16 l-141 144 l141 141 l-16 16 l-141 -141 l-144 141 l-16 -16 Z"></path></symbol><symbol id="save_3" viewBox="0 -212 1024 1024"><path d="M883 884 l0 -656 l-219 -219 l-82 0 l0 273 l-437 0 l0 -273 l-137 0 l0 875 l875 0 ZM746 720 l-601 0 l0 -274 l601 0 l0 274 ZM363 228 l137 0 l0 -219 l-137 0 l0 219 Z"></path></symbol><symbol id="save_4" viewBox="0 -212 1024 1024"><path d="M890 184 l0 705 l-882 0 l0 -881 l706 0 l176 176 ZM489 249 l0 -121 l-201 0 l0 200 l321 0 l0 -200 l-40 0 l0 121 l-80 0 ZM609 810 l0 -201 l-321 0 l0 201 l321 0 ZM810 217 l-121 -121 l0 312 l-481 0 l0 -320 l-120 0 l0 722 l120 0 l0 -281 l481 0 l0 281 l121 0 l0 -593 Z"></path></symbol><symbol id="delete_3" viewBox="0 -212 1024 1024"><path d="M143 861.13 l322 0 l0 -343 l-322 0 l0 343 ZM682 884.13 q10 0 16.5 -6.5 q6.5 -6.5 7.5 -16.5 l0 -579 q-1 -10 -7.5 -17 q-6.5 -7 -16.5 -7 l-544 0 q-10 0 -16.5 7 q-6.5 7 -6.5 17 l0 579 q0 10 6.5 16.5 q6.5 6.5 16.5 6.5 l544 0 ZM162 305.13 l496 0 l0 533 l-496 0 l0 -533 ZM684 291.13 q6 0 12 -2 q8 -5 11 -15 l24 -92 q3 -9 -1.5 -17 q-4.5 -8 -15.5 -12 l-525 -140 q-9 -3 -17.5 2 q-8.5 5 -10.5 15 l-25 91 q-2 9 2.5 17.5 q4.5 8.5 14.5 11.5 l525 141 q3 0 6 0 ZM200 65.13 l479 128 l-12 46 l-479 -129 l12 -45 ZM126 790.13 q11 0 17 -7 q6 -7 6 -17 q0 -10 -6 -16.5 q-6 -6.5 -17 -6.5 l-94 0 q-10 0 -17 6.5 q-7 6.5 -7 16.5 q0 10 7 17 q7 7 17 7 l94 0 Z"></path></symbol><symbol id="new_5" viewBox="0 -212 1024 1024"><path d="M174 147 q6 0 9.5 3.5 q3.5 3.5 3.5 9.5 l0 569 q0 5 -3.5 9 q-3.5 4 -9.5 4 l-149 0 q-5 0 -9 -4 q-4 -4 -4 -9 l0 -569 q0 -6 4 -9.5 q4 -3.5 9 -3.5 l149 0 ZM164 690 q0 -2 -2 -2 l-124 0 q-3 0 -3 2 l0 16 q0 2 3 2 l124 0 q2 0 2 -2 l0 -16 ZM164 664 l0 -15 q0 -2 -2 -3 l-124 0 q-3 1 -3 3 l0 16 q0 2 3 2 l124 0 q2 0 2 -2 l0 -1 ZM164 207 q0 -2 -2 -2 l-124 0 q-3 0 -3 2 l0 71 q0 1 3 1 l124 0 q2 0 2 -1 l0 -71 ZM387 10 q5 0 9 4 q4 4 4 9 l0 706 q0 5 -4 9 q-4 4 -9 4 l-149 0 q-5 0 -9 -4 q-4 -4 -4 -9 l0 -706 q0 -5 4 -9 q4 -4 9 -4 l149 0 ZM377 690 q0 -2 -2 -2 l-124 0 q-3 0 -3 2 l0 16 q0 2 3 2 l124 0 q2 0 2 -2 l0 -16 ZM377 649 q0 -2 -2 -3 l-124 0 q-3 1 -3 3 l0 15 q0 3 3 3 l124 0 q2 0 2 -3 l0 -15 ZM377 71 q0 -3 -2 -3 l-124 0 q-3 0 -3 3 l0 70 q0 1 3 1 l124 0 q2 0 2 -1 l0 -70 ZM484 708 q1 17 3 34 l-42 0 q-6 0 -9.5 -4 q-3.5 -4 -3.5 -9 l0 -470 q0 -5 3.5 -9 q3.5 -4 9.5 -4 l136 0 q5 0 9 4 q4 4 4 9 l0 254 q-37 23 -63.5 57 q-26.5 34 -38.5 77 l-35 0 q-2 0 -2 2 l0 16 q0 2 2 2 l31 0 q-2 10 -2 21 l-29 0 q-2 0 -2 2 l0 16 q0 2 2 2 l27 0 ZM455 377 q0 1 2 1 l112 0 q2 0 2 -1 l0 -70 q0 -3 -2 -3 l-112 0 q-2 0 -2 3 l0 70 ZM708 525 q76 2 127 52.5 q51 50.5 52 127.5 q-1 76 -52 127 q-51 51 -127 52 q-77 -1 -128 -52 q-51 -51 -53 -127 q2 -77 53 -127.5 q51 -50.5 128 -52.5 ZM797 731 q11 0 18 -7.5 q7 -7.5 7 -18.5 q0 -11 -7 -18.5 q-7 -7.5 -18 -8.5 l-64 0 l0 -62 q0 -11 -7 -18.5 q-7 -7.5 -18 -7.5 q-11 0 -19 7.5 q-8 7.5 -8 18.5 l0 62 l-62 0 q-11 1 -19 8.5 q-8 7.5 -8 18.5 q0 11 8 18.5 q8 7.5 19 7.5 l62 0 l0 63 q0 11 8 18.5 q8 7.5 19 7.5 q11 0 18 -7.5 q7 -7.5 7 -18.5 l0 -63 l64 0 Z"></path></symbol><symbol id="save_5" viewBox="0 -212 1024 1024"><path d="M884 169 l0 637 q-1 34 -23.5 56.5 q-22.5 22.5 -56.5 22.5 l-717 0 q-33 0 -55.5 -22.5 q-22.5 -22.5 -23.5 -56.5 l0 -717 q1 -33 23.5 -55.5 q22.5 -22.5 55.5 -23.5 l638 0 l119 119 l40 40 ZM247 288 l398 0 l0 -239 l-398 0 l0 239 ZM725 488 l-558 0 l0 358 l558 0 l0 -358 ZM844 189 l-140 -140 l-19 0 l0 239 q0 17 -12 28.5 q-12 11.5 -28 11.5 l-398 0 q-17 0 -28.5 -11.5 q-11.5 -11.5 -11.5 -28.5 l0 -239 l-120 0 q-16 1 -27.5 12.5 q-11.5 11.5 -12.5 27.5 l0 717 q1 17 12.5 28 q11.5 11 27.5 12 l40 0 l0 -358 q0 -17 11.5 -28.5 q11.5 -11.5 28.5 -11.5 l558 0 q17 0 28 11.5 q11 11.5 11 28.5 l0 358 l40 0 q17 -1 28 -12 q11 -11 12 -28 l0 -617 ZM645 766 l-398 0 l0 -39 l398 0 l0 39 ZM525 89 l80 0 l0 160 l-80 0 l0 -160 ZM486 607 l-239 0 l0 -40 l239 0 l0 40 ZM645 687 l-398 0 l0 -40 l398 0 l0 40 Z"></path></symbol><symbol id="save_6" viewBox="0 -212 1024 1024"><path d="M823 139 l0 658 q-1 37 -25.5 61.5 q-24.5 24.5 -60.5 24.5 l-19 0 l0 -388 l-605 0 l0 388 l-19 0 q-37 0 -61.5 -24.5 q-24.5 -24.5 -24.5 -61.5 l0 -704 q0 -36 24.5 -60.5 q24.5 -24.5 61.5 -25.5 l19 0 l0 382 l604 0 l0 -338 l106 88 ZM647 567 l0 316 l-463 0 l0 -316 l463 0 ZM613 747 l-396 0 l0 52 l396 0 l0 -52 ZM613 647 l-396 0 l0 52 l396 0 l0 -52 ZM646 7 l0 311 l-461 0 l0 -311 l461 0 ZM565 102 l-70 0 l0 103 l70 0 l0 -103 Z"></path></symbol><symbol id="fanxuan" viewBox="0 -212 1024 1024"><path d="M64 75 l466 0 l0 -58 l-466 0 l0 58 ZM64 657 l58 0 l0 -582 l-58 0 l0 582 ZM123 657 l581 0 l0 -58 l-581 0 l0 58 ZM646 599 l58 0 l0 -233 l-58 0 l0 233 ZM239 308 l291 0 l0 -58 l-291 0 l0 58 ZM821 832 l58 0 l0 -582 l-58 0 l0 582 ZM239 832 l582 0 l0 -58 l-582 0 l0 58 Z"></path></symbol><symbol id="quanxuan-copy" viewBox="0 -212 1024 1024"><path d="M16 68 l465 0 l0 -58 l-465 0 l0 58 ZM16 650 l58 0 l0 -582 l-58 0 l0 582 ZM66 650 l590 0 l0 -58 l-590 0 l0 58 ZM598 592 l58 0 l0 -233 l-58 0 l0 233 ZM772 824 l59 0 l0 -581 l-59 0 l0 581 ZM191 824 l581 0 l0 -58 l-581 0 l0 58 ZM191 243 l232 232 l58 -58 l-233 -232 l-57 58 ZM422 359 l58 57 l349 -348 l-58 -57 l-349 348 Z"></path></symbol><symbol id="uniE613" viewBox="0 -212 1024 1024"><path d="M177 177.01 q4 -0.5 13.5 0 q9.5 0.5 13 1.5 q3.5 1 7 3 q3.5 2 6.5 6 q3 4 5 7.5 q2 3.5 3 7.5 q1 4 1.5 11.5 q0.5 7.5 0 16.5 q-0.5 9 -2 16 q-1.5 7 -4.5 17.5 q-3 10.5 -7.5 23 q-4.5 12.5 -9 24 q-4.5 11.5 -8.5 18.5 q-4 7 -7.5 13 q-3.5 6 -10 14.5 q-6.5 8.5 -13.5 15 q-7 6.5 -15 11 q-8 4.5 -13 6.5 q-5 2 -9.5 2.5 q-4.5 0.5 -14.5 0.5 q-10 0 -16 -2 q-6 -2 -10 -5 q-4 -3 -6 -6 q-2 -3 -3.5 -6.5 q-1.5 -3.5 -2 -7.5 q-0.5 -4 -1 -12 q-0.5 -8 0.5 -16 q1 -8 2.5 -15 q1.5 -7 7.5 -27 q6 -20 11 -32.5 q5 -12.5 9 -21 q4 -8.5 7.5 -14 q3.5 -5.5 9.5 -13.5 q6 -8 12.5 -14 q6.5 -6 8.5 -8 q2 -2 6 -4.5 q4 -2.5 9.5 -5 q5.5 -2.5 10.5 -4 q5 -1.5 9 -2 ZM690 176.51 q19 -2 53 -2.5 q34 -0.5 48 25.5 q2 6 2 12 q0 6 -1 13 q-2 10 -4 17 q-2 7 -7 16 q-11 19 -29 32 q-18 13 -41 14 q-8 0 -16.5 0 q-8.5 0 -16.5 0 l-31 89 l-31 0 l74 -216 ZM827 176.51 l52 0 q13 3 24.5 8.5 q11.5 5.5 16.5 18.5 q1 5 1.5 10 q0.5 5 1.5 9 q0 19 -4 36.5 q-4 17.5 -10 35.5 q-10 29 -28 53.5 q-18 24.5 -47 37.5 q-20 7 -39.5 7.5 q-19.5 0.5 -40.5 -0.5 l73 -216 ZM1013 176.51 l27 0 l-18 216 l-32 0 l5 -60 l-43 0 l-35 60 l-32 0 l128 -216 ZM248 239.51 l27 0 l-7 20 l2 0 q5 -5 8 -8 q3 -3 10 -7 q14 -7 29 -4.5 q15 2.5 25 15.5 q4 7 4.5 15.5 q0.5 8.5 0.5 16.5 q-6 31 -19.5 56 q-13.5 25 -41.5 42 q-16 9 -33 8.5 q-17 -0.5 -22 -20.5 l-1 0 l-19 57 l-29 1 l66 -192 ZM476 318.51 l-85 1 q-4 9 -6 17.5 q-2 8.5 0 18.5 q4 11 16.5 11.5 q12.5 0.5 21.5 -4.5 q7 -4 10.5 -11 q3.5 -7 6.5 -14 l31 0 q-8 16 -20 31 q-12 15 -30 20 q-5 2 -10.5 3 q-5.5 1 -10.5 1 l-10 0 q-5 -1 -9.5 -1.5 q-4.5 -0.5 -8.5 -2.5 q-11 -6 -14.5 -18 q-3.5 -12 -2.5 -23 q1 -6 2 -12.5 q1 -6.5 2 -13.5 q6 -20 18 -39 q12 -19 30 -31 q14 -9 32.5 -12 q18.5 -3 33.5 7 q3 3 6 6.5 q3 3.5 5 7.5 q4 15 0.5 30 q-3.5 15 -8.5 28 ZM529 239.51 l28 0 l-7 23 l1 0 q5 -6 8.5 -9 q3.5 -3 10.5 -7 q17 -9 36 -7 q19 2 25 23 q0 3 -0.5 8 q-0.5 5 -1.5 8 q-10 29 -19.5 57.5 q-9.5 28.5 -19.5 56.5 l-28 0 l38 -111 q1 -10 -5 -14 q-6 -4 -15 -3 q-5 1 -11 4.5 q-6 3.5 -8 4.5 l-15 14 q-16 24 -24 50.5 q-8 26.5 -16 54.5 l-29 0 l52 -153 ZM712 203.51 l-25 73 l32 0 q17 -5 28 -16 q11 -11 14 -29 q1 -8 0 -14 q-1 -6 -8 -11 q-9 -4 -21 -4 q-12 0 -20 1 ZM850 202.51 l-56 164 q5 1 10.5 1 q5.5 0 11.5 -2 q29 -12 42.5 -35 q13.5 -23 22.5 -53 q7 -18 9 -40 q2 -22 -18 -32 q-5 -3 -11 -3 q-6 0 -11 0 ZM186 205.01 q-3 -1.5 -9 -1.5 q-6 0 -9.5 1.5 q-3.5 1.5 -7.5 4 q-4 2.5 -8.5 7 q-4.5 4.5 -7.5 9.5 q-3 5 -6.5 11 q-3.5 6 -11 25 q-7.5 19 -11 30.5 q-3.5 11.5 -6 21.5 q-2.5 10 -4 18.5 q-1.5 8.5 -1.5 14 q0 5.5 0.5 7.5 q0.5 2 1.5 4.5 q1 2.5 3.5 4.5 q2.5 2 6 3 q3.5 1 8 1 q4.5 0 7 -0.5 q2.5 -0.5 8 -4 q5.5 -3.5 9.5 -7.5 q4 -4 9.5 -13 q5.5 -9 10.5 -20 q5 -11 10 -24.5 q5 -13.5 9.5 -27.5 q4.5 -14 6.5 -23.5 q2 -9.5 2.5 -17.5 q0.5 -8 -0.5 -11.5 q-1 -3.5 -4 -7 q-3 -3.5 -6 -5 ZM1004 246.51 l-2 1 l-34 58 l30 0 l6 -59 ZM398 296.51 l55 0 q2 -7 2.5 -10 q0.5 -3 0.5 -10 q-2 -10 -10.5 -12.5 q-8.5 -2.5 -16.5 1.5 q-11 5 -18 12.5 q-7 7.5 -13 18.5 ZM307 265.51 q-3 -1 -8.5 -1 q-5.5 0 -11 2.5 q-5.5 2.5 -10 6 q-4.5 3.5 -7.5 6 q-3 2.5 -6.5 8 q-3.5 5.5 -8.5 16 q-5 10.5 -8 22 q-3 11.5 -3 18 q0 6.5 1.5 10.5 q1.5 4 2.5 6 q1 2 4 4.5 q3 2.5 5.5 3.5 q2.5 1 7 1 q4.5 0 6.5 -1 q2 -1 7.5 -4 q5.5 -3 8.5 -6.5 q3 -3.5 7 -9 q4 -5.5 9 -17 q5 -11.5 7.5 -18.5 q2.5 -7 4 -16 q1.5 -9 1.5 -13 q0 -4 -0.5 -7.5 q-0.5 -3.5 -3 -6.5 q-2.5 -3 -5.5 -4 Z"></path></symbol></defs></svg>