<?xml version="1.0" standalone="no"?><!DOCTYPE svg PUBLIC "-//W3C//DTD SVG 1.1//EN" "http://www.w3.org/Graphics/SVG/1.1/DTD/svg11.dtd" ><svg xmlns="http://www.w3.org/2000/svg"><metadata></metadata><defs><font id="FontEditor 1.0 : fonteditor" horiz-adv-x="1067"><font-face font-family="fonteditor" font-weight="400" font-stretch="normal" units-per-em="1024" panose-1="2 0 6 3 0 0 0 0 0 0" ascent="812" descent="-212" x-height="0" bbox="-8 -224 1040 896" underline-thickness="0" underline-position="50" unicode-range="U+e001-e613" /><missing-glyph horiz-adv-x="374" d="M34 0 l0 682 l272 0 l0 -682 l-272 0 ZM68 34 l204 0 l0 614 l-204 0 l0 -614 Z" /><glyph glyph-name="spinnercycle" unicode="&#xe465;" d="M475 762 l0 0 q13 0 21 -8.5 q8 -8.5 9 -21.5 l0 -125 q-1 -13 -9 -21.5 q-8 -8.5 -21 -8.5 l0 0 q-13 0 -21.5 8.5 q-8.5 8.5 -8.5 21.5 l0 125 q0 13 8.5 21.5 q8.5 8.5 21.5 8.5 l0 0 ZM475 -2 l0 0 q13 0 21 -8.5 q8 -8.5 9 -21.5 l0 -126 q-1 -12 -9 -20.5 q-8 -8.5 -21 -9.5 l0 0 q-13 1 -21.5 9.5 q-8.5 8.5 -8.5 20.5 l0 126 q0 13 8.5 21.5 q8.5 8.5 21.5 8.5 l0 0 ZM950 287 l0 0 q-1 -12 -9 -20.5 q-8 -8.5 -21 -8.5 l-126 0 q-13 0 -21 8.5 q-8 8.5 -9 20.5 l0 0 q1 13 9 21.5 q8 8.5 21 8.5 l126 0 q13 0 21 -8.5 q8 -8.5 9 -21.5 l0 0 ZM186 287 l0 0 q-1 -12 -9.5 -20.5 q-8.5 -8.5 -20.5 -8.5 l-126 0 q-13 0 -21.5 8.5 q-8.5 8.5 -8.5 20.5 l0 0 q0 13 8.5 21.5 q8.5 8.5 21.5 8.5 l126 0 q12 0 20.5 -8.5 q8.5 -8.5 9.5 -21.5 l0 0 ZM886 525 l0 0 q6 -11 3 -22.5 q-3 -11.5 -14 -18.5 l-109 -63 q-11 -6 -22.5 -3 q-11.5 3 -18.5 14 l0 0 q-6 11 -2.5 22.5 q3.5 11.5 13.5 18.5 l109 63 q11 6 23 3 q12 -3 18 -14 l0 0 ZM224 143 l0 0 q6 -11 3 -22.5 q-3 -11.5 -14 -18.5 l-109 -63 q-11 -6 -22.5 -3 q-11.5 3 -17.5 14 l0 0 q-6 11 -3 22.5 q3 11.5 14 18.5 l108 63 q12 6 23.5 3 q11.5 -3 17.5 -14 l0 0 ZM712 699 l0 0 q11 -7 14 -18.5 q3 -11.5 -3 -22.5 l-63 -109 q-6 -11 -17.5 -14 q-11.5 -3 -22.5 3 l0 0 q-11 7 -14 18.5 q-3 11.5 3 22.5 l63 109 q6 11 17.5 14 q11.5 3 22.5 -3 l0 0 ZM330 37 l0 0 q11 -7 14 -18.5 q3 -11.5 -3 -22.5 l-63 -109 q-6 -11 -17.5 -14 q-11.5 -3 -23.5 3 l0 0 q-10 7 -13.5 18.5 q-3.5 11.5 2.5 22.5 l63 109 q7 11 18.5 14 q11.5 3 22.5 -3 l0 0 ZM237 699 l0 0 q12 6 23.5 3 q11.5 -3 17.5 -14 l63 -109 q6 -11 3 -22.5 q-3 -11.5 -14 -18.5 l0 0 q-11 -6 -22.5 -3 q-11.5 3 -18.5 14 l-63 109 q-6 11 -2.5 22.5 q3.5 11.5 13.5 18.5 l0 0 ZM620 37 l0 0 q11 6 22.5 3 q11.5 -3 17.5 -14 l63 -109 q6 -11 3 -22.5 q-3 -11.5 -14 -18.5 l0 0 q-11 -6 -22.5 -3 q-11.5 3 -17.5 14 l-63 109 q-6 11 -3 22.5 q3 11.5 14 18.5 l0 0 ZM64 525 l0 0 q6 11 17.5 14 q11.5 3 22.5 -3 l109 -63 q11 -7 14 -18.5 q3 -11.5 -3 -22.5 l0 0 q-6 -11 -17.5 -14 q-11.5 -3 -23.5 3 l-108 63 q-11 7 -14 18.5 q-3 11.5 3 22.5 l0 0 ZM725 143 l0 0 q7 11 18.5 14 q11.5 3 22.5 -3 l109 -63 q11 -7 14 -18.5 q3 -11.5 -3 -22.5 l0 0 q-6 -11 -18 -14 q-12 -3 -23 3 l-109 63 q-10 7 -13.5 18.5 q-3.5 11.5 2.5 22.5 l0 0 Z" /><glyph glyph-name="chat" unicode="&#xe263;" d="M512 768 q-215 -4 -360.5 -126 q-145.5 -122 -151.5 -306 q1 -104 53.5 -191.5 q52.5 -87.5 142.5 -147.5 q-2 -85 -40 -135.5 q-38 -50.5 -44 -51.5 q10 0 113 26 q103 26 178 78 q53 -10 109 -10 q214 4 355.5 126 q141.5 122 146.5 306 q-5 184 -146.5 306 q-141.5 122 -355.5 126 ZM511 -12 q-179 2 -300 93 q-121 91 -125 242 q4 153 125 255 q121 102 300 106 q178 -4 295.5 -106 q117.5 -102 121.5 -255 q-4 -151 -121.5 -242 q-117.5 -91 -295.5 -93 ZM516 411 q-30 -1 -50.5 -19.5 q-20.5 -18.5 -20.5 -51 q0 -32.5 20.5 -54 q20.5 -21.5 51 -21.5 q30.5 0 51.5 21.5 q21 21.5 21 54 q0 32.5 -21 51 q-21 18.5 -52 19.5 ZM284 411 q-31 -1 -51 -19.5 q-20 -18.5 -20 -51 q0 -32.5 20 -54 q20 -21.5 51 -21.5 q31 0 52 21.5 q21 21.5 21 54 q0 32.5 -21 51 q-21 18.5 -52 19.5 ZM748 411 q-31 -1 -51 -19.5 q-20 -18.5 -20 -51 q0 -32.5 20 -54 q20 -21.5 51 -21.5 q31 0 51.5 21.5 q20.5 21.5 20.5 54 q0 32.5 -20.5 51 q-20.5 18.5 -51.5 19.5 Z" /><glyph glyph-name="eye" unicode="&#xe568;" d="M986 288 q-3 -81 -137.5 -184.5 q-134.5 -103.5 -355.5 -113.5 q-216 10 -352.5 112.5 q-136.5 102.5 -140.5 185.5 q4 83 140.5 185.5 q136.5 102.5 352.5 111.5 q223 -9 356.5 -111.5 q133.5 -102.5 136.5 -185.5 ZM493 531 q-101 -2 -168 -71 q-67 -69 -69 -172 q2 -103 69 -172 q67 -69 168 -71 q102 2 169 71 q67 69 69 172 q-2 103 -69 172 q-67 69 -169 71 ZM493 443 q-64 -1 -107 -45 q-43 -44 -44 -110 q1 -65 44 -109 q43 -44 107 -46 q64 2 107 46 q43 44 44 109 q-1 66 -44 110 q-43 44 -107 45 Z" /><glyph glyph-name="bars" unicode="&#xe563;" d="M0 316 l895 0 l0 -48 l-895 0 l0 48 ZM0 615 l895 0 l0 -48 l-895 0 l0 48 ZM0 16 l895 0 l0 -47 l-895 0 l0 47 Z" /><glyph glyph-name="weibo" unicode="&#xe260;" d="M468 398 q-17 5 -15.5 13.5 q1.5 8.5 3 10 q1.5 1.5 7.5 29 q6 27.5 -13 57.5 q-31 29 -74 14 q-43 -15 -48 -20 q-23 -9 -23.5 2 q-0.5 11 4.5 36 q2 33 -16 61.5 q-18 28.5 -82 3.5 q-68 -36 -114.5 -101 q-46.5 -65 -48.5 -72 q-37 -69 -42.5 -113 q-5.5 -44 -3.5 -46 q15 -112 87.5 -155.5 q72.5 -43.5 151.5 -48.5 q82 -8 166 33 q84 41 120 128 q26 86 -5 125 q-31 39 -54 43 ZM248 112 q-79 -3 -131.5 38.5 q-52.5 41.5 -54.5 109.5 q2 67 54.5 112.5 q52.5 45.5 131.5 52.5 q80 3 132.5 -33.5 q52.5 -36.5 54.5 -103.5 q-2 -68 -54.5 -118.5 q-52.5 -50.5 -132.5 -57.5 ZM228 367 q-74 -19 -85 -76 q-11 -57 -7 -64 q-1 -2 3 -22.5 q4 -20.5 25 -36.5 q47 -31 88.5 -18 q41.5 13 66.5 53 q24 46 5 107 q-19 61 -96 57 ZM202 192 q-15 -2 -25 7 q-10 9 -10 25 q0 16 9 29.5 q9 13.5 24 15.5 q17 2 26.5 -8 q9.5 -10 9.5 -26 q0 -16 -9.5 -28 q-9.5 -12 -24.5 -15 ZM263 259 q-5 -5 -10 -4.5 q-5 0.5 -8 6.5 q-3 6 -2 13 q1 7 6.5 12.5 q5.5 5.5 10.5 4.5 q5 -1 8 -7 q3 -6 1.5 -13 q-1.5 -7 -6.5 -12 ZM518 451 q6 1 11 6 q5 5 6 13 l0 2 q2 103 -42 114.5 q-44 11.5 -51 5.5 q-8 0 -12.5 -6 q-4.5 -6 -4.5 -15.5 q0 -9.5 4.5 -15.5 q4.5 -6 12.5 -6 q53 9 57.5 -30 q4.5 -39 1.5 -46 q0 -9 5 -15 q5 -6 12 -7 ZM506 705 q-29 8 -52.5 5 q-23.5 -3 -32.5 -6 l-3 -2 q-8 -3 -13 -11 q-5 -8 -5 -19 q0 -14 7 -22.5 q7 -8.5 18 -9.5 l8 2 q7 2 14 5 q10 6 50.5 -6.5 q40.5 -12.5 71.5 -70.5 q14 -45 12 -72.5 q-2 -27.5 -4 -32.5 l-2 -10 q-3 -9 -3 -21.5 q0 -12.5 7 -20 q7 -7.5 16.5 -8 q9.5 -0.5 16 4.5 q6.5 5 8.5 22 l1 0 q25 129 -18 194.5 q-43 65.5 -97 78.5 Z" /><glyph glyph-name="weixin" unicode="&#xe261;" d="M718 225 q-16 0 -27 11.5 q-11 11.5 -11 28 q0 16.5 11 27.5 q11 11 27 11 q16 0 27 -11 q11 -11 11 -27.5 q0 -16.5 -11 -28 q-11 -11.5 -27 -11.5 ZM518 225 q-16 0 -27 11.5 q-11 11.5 -11 28 q0 16.5 11 27.5 q11 11 27.5 11 q16.5 0 27.5 -11 q11 -11 11 -27.5 q0 -16.5 -11 -28 q-11 -11.5 -28 -11.5 ZM896 169 q-2 98 -74 164.5 q-72 66.5 -182 75.5 l-20 1 q-118 -3 -196 -71 q-78 -68 -81 -170 q0 -30 8 -58 q24 -80 97 -130.5 q73 -50.5 172 -52.5 q67 1 123 25 l62 -42 q1 -1 8 -3 q7 -2 7 14 l-18 66 q44 34 69 80.5 q25 46.5 25 100.5 ZM196 440 q-16 0 -27 11 q-11 11 -11 28 q0 17 11 28 q11 11 27.5 11 q16.5 0 27 -11 q10.5 -11 10.5 -28 q0 -17 -10.5 -28 q-10.5 -11 -27.5 -11 ZM441 518 q16 0 27 -11 q11 -11 11 -28 q0 -17 -11 -28 q-11 -11 -27.5 -11 q-16.5 0 -27.5 11 q-11 11 -11 28 q0 17 11 28 q11 11 28 11 ZM620 430 q9 0 17 -1 q-19 104 -106 170 q-87 66 -210 68 q-137 -3 -227 -81.5 q-90 -78.5 -94 -196.5 q1 -65 31.5 -120 q30.5 -55 83.5 -94 l-24 -89 q-1 -2 0 -13 q1 -11 23 -4 l88 61 q55 -20 119 -20 l10 0 q-8 29 -8 59 q3 111 87 184.5 q84 73.5 210 76.5 Z" /><glyph glyph-name="pengyouquan" unicode="&#xe262;" d="M285 156 l-265 265 q-20 -63 -20 -132 q0 -76 24 -144 l271 0 l-10 11 ZM873 434 l-271 0 l10 -11 l265 -265 q19 62 20 131 q-1 77 -24 145 ZM844 500 q-34 63 -84 111.5 q-50 48.5 -114 80.5 l-191 -192 l389 0 ZM53 78 q33 -62 83 -110.5 q50 -48.5 113 -79.5 l191 190 l-387 0 ZM659 274 l0 -381 q62 34 111 84 q49 50 80 113 l-191 191 l0 -7 ZM448 738 q-76 -1 -144 -24 l0 -271 l275 275 q-62 19 -131 20 ZM317 -139 q62 -20 131 -20 q76 0 144 24 l0 270 l-10 -9 l-265 -265 ZM237 685 q-62 -33 -110.5 -83.5 q-48.5 -50.5 -79.5 -113.5 l190 -190 l0 387 Z" /><glyph glyph-name="map" unicode="&#xe364;" d="M851 671 l-183 42 q-6 2 -11 -1 l-219 -100 l-201 84 q-7 3 -14 0 l-211 -82 q-11 -5 -12 -17 l0 -580 q0 -10 8 -15 q8 -5 17 -2 l205 80 l202 -85 q3 -1 7 -1 q4 0 7 2 l30 13 q35 -70 69.5 -126 q34.5 -56 44.5 -70 q5 -8 15 -8 q10 0 15 8 q14 19 61 98 q47 79 83 163 l78 -18 q9 -2 16 3.5 q7 5.5 7 13.5 l0 581 q-1 13 -14 17 ZM605 -143 q-43 67 -92.5 161 q-49.5 94 -53.5 147 q1 62 42.5 103.5 q41.5 41.5 103.5 42.5 q62 -1 103.5 -42.5 q41.5 -41.5 43.5 -103.5 q-5 -53 -54.5 -147 q-49.5 -94 -92.5 -161 ZM828 96 l-51 12 q11 33 11 57 q-2 77 -53.5 129 q-51.5 52 -129.5 54 q-78 -2 -129.5 -54 q-51.5 -52 -53.5 -129 q0 -23 10.5 -55 q10.5 -32 27.5 -68 l-22 -10 l-201 84 q-4 2 -7.5 2 q-3.5 0 -6.5 -2 l-186 -72 l0 540 l193 76 l202 -85 q7 -3 14 1 l220 100 l162 -37 l0 -543 ZM230 586 q-8 0 -13 -5 q-5 -5 -6 -13 l0 -368 q1 -8 6 -13 q5 -5 13 -5 q8 0 13 5 q5 5 5 13 l0 368 q0 8 -5 13 q-5 5 -13 5 ZM439 515 q-8 0 -13.5 -5.5 q-5.5 -5.5 -5.5 -12.5 l0 -141 q0 -8 5.5 -13 q5.5 -5 13 -5 q7.5 0 13 5 q5.5 5 5.5 13 l0 141 q0 7 -5.5 12.5 q-5.5 5.5 -12.5 5.5 ZM650 594 l0 -186 q0 -8 5.5 -13 q5.5 -5 13 -5 q7.5 0 12.5 5 q5 5 6 13 l0 186 q-1 8 -6 13 q-5 5 -12.5 5 q-7.5 0 -13 -5 q-5.5 -5 -5.5 -13 ZM605 254 q-29 0 -48 -19.5 q-19 -19.5 -19 -48.5 q0 -29 19 -48.5 q19 -19.5 48 -19.5 q29 0 48.5 19.5 q19.5 19.5 19.5 48.5 q0 29 -19.5 48.5 q-19.5 19.5 -48.5 19.5 ZM605 154 q-13 1 -22 9.5 q-9 8.5 -9 22 q0 13.5 9 22.5 q9 9 22.5 9 q13.5 0 22.5 -9 q9 -9 9 -22.5 q0 -13.5 -9 -22 q-9 -8.5 -23 -9.5 Z" /><glyph glyph-name="qq" unicode="&#xe264;" d="M122 331 l-2 5 l-2 11 l0 14 l3 12 l5 14 l4 8 l5 7 l0 5 l2 12 l4 16 l2 3 l4 8 l3 2 l0 19 l3 21 l3 13 l4 14 l5 16 l11 25 l9 17 l6 9 l3 5 l17 24 l16 19 l18 19 l11 10 l16 13 l9 7 l19 10 l11 5 l11 5 l34 11 l11 3 l13 2 l38 6 l13 0 l39 0 l40 -4 l25 -6 l26 -7 l13 -4 l24 -11 l12 -5 l11 -7 l20 -13 l5 -4 l4 -3 l9 -7 l15 -15 l7 -8 l6 -8 l7 -8 l20 -34 l11 -26 l6 -17 l10 -39 l3 -13 l6 -40 l16 -28 l3 -7 l4 -16 l4 -18 l0 -4 l-1 -4 l0 -6 l-4 -15 l-2 -5 l-2 -6 l0 -2 l24 -36 l4 -8 l6 -10 l11 -21 l13 -26 l7 -17 l6 -17 l5 -17 l2 -15 l4 -30 l0 -19 l-2 -19 l-2 -11 l-5 -14 l-2 -4 l-4 -8 l-10 -11 l-9 -3 l-3 0 l-7 3 l-7 5 l-10 12 l-11 17 l-10 21 l-2 1 l-2 -2 l-4 -6 l-16 -43 l-19 -29 l-10 -15 l-15 -15 l2 -2 l5 -3 l22 -11 l18 -10 l9 -7 l12 -9 l5 -8 l3 -4 l3 -8 l1 -8 l-1 -3 l0 -3 l0 -3 l-2 -3 l0 -2 l-6 -8 l-9 -10 l-6 -5 l-6 -3 l-15 -7 l-13 -5 l-46 -10 l-12 0 l-11 -2 l-37 0 l-26 2 l-40 5 l-14 4 l-13 2 l-13 4 l-14 5 l-13 4 l-17 6 l-4 1 l-11 0 l-27 2 l-5 -5 l-7 -4 l-28 -14 l-22 -9 l-16 -4 l-12 -3 l-24 -2 l-10 0 l-61 0 l-22 2 l-42 7 l-10 3 l-9 2 l-17 7 l-8 4 l-6 4 l-7 5 l-7 7 l-5 9 l-4 12 l0 3 l1 4 l0 4 l1 3 l0 11 l3 9 l3 5 l7 10 l9 7 l5 1 l8 4 l16 5 l20 2 l3 1 l0 1 l-1 2 l-4 2 l-16 13 l-15 14 l-17 20 l-4 6 l-4 6 l-4 7 l-3 7 l-5 7 l-10 26 l-3 8 l-2 11 l-2 0 l0 1 l-1 0 l-3 -1 l-1 -2 l0 -2 l-9 -18 l-12 -15 l-4 -4 l-10 -10 l-12 -7 l-5 -2 l-7 -2 l-8 0 l-2 0 l-1 3 l-2 1 l-4 10 l-3 9 l-4 23 l0 22 l1 16 l4 26 l9 28 l7 19 l5 9 l5 11 l12 20 l14 19 l6 8 l24 25 l24 21 l8 6 l3 2 Z" /><glyph glyph-name="circlefilled" unicode="&#xe441;" d="M250 383 q3 -89 62 -148.5 q59 -59.5 149 -61.5 q89 2 148.5 61.5 q59.5 59.5 61.5 148.5 q-2 90 -61.5 149 q-59.5 59 -148.5 62 q-90 -3 -149 -62 q-59 -59 -62 -149 ZM921 383 q-4 -195 -134 -325 q-130 -130 -326 -135 q-196 5 -326 135 q-130 130 -135 325 q5 196 135 326 q130 130 326 135 q196 -5 326 -135 q130 -130 134 -326 ZM461 783 q-170 -5 -282.5 -117.5 q-112.5 -112.5 -117.5 -282.5 q5 -169 117.5 -282 q112.5 -113 282.5 -117 q169 4 282 117 q113 113 117 282 q-4 170 -117 282.5 q-113 112.5 -282 117.5 Z" /><glyph glyph-name="list" unicode="&#xe562;" d="M854 674 l-547 0 q-14 0 -23.5 10 q-9.5 10 -9.5 24.5 q0 14.5 9.5 24 q9.5 9.5 23.5 9.5 l547 0 q14 0 23.5 -9.5 q9.5 -9.5 9.5 -24 q0 -14.5 -9.5 -24.5 q-9.5 -10 -23.5 -10 ZM854 435 l-547 0 q-14 1 -23.5 10.5 q-9.5 9.5 -9.5 24 q0 14.5 9.5 24 q9.5 9.5 23.5 9.5 l547 0 q14 0 23.5 -9.5 q9.5 -9.5 9.5 -24 q0 -14.5 -9.5 -24 q-9.5 -9.5 -23.5 -10.5 ZM854 196 l-547 0 q-14 1 -23.5 10.5 q-9.5 9.5 -9.5 24 q0 14.5 9.5 24 q9.5 9.5 23.5 10.5 l547 0 q14 -1 23.5 -10.5 q9.5 -9.5 9.5 -24 q0 -14.5 -9.5 -24 q-9.5 -9.5 -23.5 -10.5 ZM103 606 q-44 1 -73 30 q-29 29 -30 72 q1 44 30 73 q29 29 73 30 q43 -1 72 -30 q29 -29 30 -73 q-1 -43 -30 -72 q-29 -29 -72 -30 ZM103 742 q-15 0 -24.5 -9.5 q-9.5 -9.5 -9.5 -24 q0 -14.5 9.5 -24 q9.5 -9.5 24 -9.5 q14.5 0 24 9.5 q9.5 9.5 9.5 24 q0 14.5 -9.5 24 q-9.5 9.5 -23.5 9.5 ZM103 367 q-44 1 -73 30 q-29 29 -30 72 q1 44 30 73 q29 29 73 30 q43 -1 72 -30 q29 -29 30 -73 q-1 -43 -30 -72 q-29 -29 -72 -30 ZM103 503 q-15 0 -24.5 -9.5 q-9.5 -9.5 -9.5 -24 q0 -14.5 9.5 -24 q9.5 -9.5 24 -9.5 q14.5 0 24 9.5 q9.5 9.5 9.5 24 q0 14.5 -9.5 24 q-9.5 9.5 -23.5 9.5 ZM103 128 q-44 1 -73 30 q-29 29 -30 72 q1 44 30 73 q29 29 73 30 q43 -1 72 -30 q29 -29 30 -73 q-1 -43 -30 -72 q-29 -29 -72 -30 ZM103 265 q-15 -1 -24.5 -10.5 q-9.5 -9.5 -9.5 -24 q0 -14.5 9.5 -24 q9.5 -9.5 24 -9.5 q14.5 0 24 9.5 q9.5 9.5 9.5 24 q0 14.5 -9.5 24 q-9.5 9.5 -23.5 10.5 Z" /><glyph glyph-name="spinner" unicode="&#xe464;" d="M512 800 q-214 -5 -358 -146 q-144 -141 -154 -354 q9 186 125.5 308.5 q116.5 122.5 290.5 127.5 q177 -5 294.5 -131.5 q117.5 -126.5 121.5 -316.5 q1 -41 28 -68 q27 -27 68 -27 q41 0 68 27 q27 27 28 68 q-5 218 -149.5 362.5 q-144.5 144.5 -362.5 149.5 ZM512 -224 q214 5 358 146 q144 141 154 354 q-9 -186 -125.5 -308.5 q-116.5 -122.5 -290.5 -127.5 q-177 5 -294.5 131.5 q-117.5 126.5 -121.5 316.5 q-1 41 -28 68 q-27 27 -68 27 q-41 0 -68 -27 q-27 -27 -28 -68 q5 -218 149.5 -362.5 q144.5 -144.5 362.5 -149.5 Z" /><glyph glyph-name="pulldown" unicode="&#xe588;" d="M222 -89 l222 296 l-145 0 l0 432 l-155 0 l0 -432 l-144 0 l222 -296 Z" /><glyph glyph-name="image" unicode="&#xe363;" d="M672 352 q41 1 68 28 q27 27 27 68 q0 41 -27 68 q-27 27 -68 27 q-41 0 -68 -27 q-27 -27 -27 -68 q0 -41 27 -68 q27 -27 68 -28 ZM840 672 l-784 0 q-24 -1 -39.5 -17 q-15.5 -16 -16.5 -40 l0 -654 q1 -24 16.5 -40 q15.5 -16 39.5 -17 l784 0 q24 1 39.5 17 q15.5 16 16.5 40 l0 654 q-1 24 -16.5 40 q-15.5 16 -39.5 17 ZM634 277 q-10 11 -26 12 q-14 -1 -25 -11 l-38 -32 q-10 -9 -23 -9 q-13 0 -22 8 l-8 8 l-108 116 q-13 15 -33.5 14.5 q-20.5 -0.5 -33.5 -14.5 l-253 -305 l0 521 q2 10 9 16.5 q7 6.5 17 6.5 l716 0 q10 0 17.5 -6.5 q7.5 -6.5 7.5 -17.5 l1 -521 l-198 214 Z" /><glyph glyph-name="camera" unicode="&#xe301;" d="M707 576 l-123 0 q-47 53 -69.5 75 q-22.5 22 -39.5 21 l-177 0 q-17 1 -39.5 -21 q-22.5 -22 -69.5 -75 l-27 0 l0 32 l-68 0 l0 -32 l-27 0 q-27 -1 -46.5 -18 q-19.5 -17 -20.5 -43 l0 -352 q1 -28 20.5 -47 q19.5 -19 46.5 -20 l640 0 q27 1 43.5 20 q16.5 19 17.5 47 l0 352 q-1 26 -17.5 43 q-16.5 17 -43.5 18 ZM736 163 q0 -15 -8 -25 q-8 -10 -21 -10 l-640 0 q-14 1 -24 11 q-10 10 -11 24 l0 352 q0 12 10 20.5 q10 8.5 25 8.5 l136 0 l9 6 l22 28 q34 38 51 54 q7 6 10 7 q3 1 2 1 l177 0 q0 0 3 -1 q3 -1 11 -8 q9 -8 22 -24 l50 -57 l9 -6 l138 0 q13 0 21 -8 q8 -8 8 -21 l0 -352 ZM384 517 q-73 -2 -121 -50 q-48 -48 -50 -121 q2 -73 50 -121 q48 -48 121 -50 q73 2 121 50 q48 48 50 121 q-2 73 -50 121 q-48 48 -121 50 ZM384 207 q-59 1 -98.5 40.5 q-39.5 39.5 -40.5 98.5 q1 59 40.5 98.5 q39.5 39.5 98.5 40.5 q59 -1 98.5 -40.5 q39.5 -39.5 40.5 -98.5 q-1 -59 -40.5 -98.5 q-39.5 -39.5 -98.5 -40.5 ZM576 512 l34 0 l0 -34 l-34 0 l0 34 ZM384 346 l0 0 ZM320 346 q1 -27 19 -45 q18 -18 45 -18 q27 0 45 18 q18 18 18 45 q0 27 -18 45 q-18 18 -45 18 q-27 0 -45 -18 q-18 -18 -19 -45 Z" /><glyph glyph-name="contact" unicode="&#xe100;" d="M416 704 q-177 -4 -294.5 -121.5 q-117.5 -117.5 -121.5 -294.5 q4 -177 121.5 -294.5 q117.5 -117.5 294.5 -121.5 q177 4 294.5 121.5 q117.5 117.5 121.5 294.5 q-4 177 -121.5 294.5 q-117.5 117.5 -294.5 121.5 ZM416 669 q162 -4 269.5 -111.5 q107.5 -107.5 111.5 -269.5 q0 -70 -23 -132 q-23 -62 -65 -112 q-33 13 -88 32 q-55 19 -98 32 q-4 0 -5 3.5 q-1 3.5 -0.5 16.5 q0.5 13 4 25 q3.5 12 9 23 q5.5 11 11 28 q5.5 17 7.5 35 q7 7 14.5 22.5 q7.5 15.5 12.5 43.5 q5 23 4 35 q-1 12 -5 20 l-1 3 q-1 7 0.5 30.5 q1.5 23.5 5.5 47.5 q4 17 -2 45.5 q-6 28.5 -27 57.5 q-14 18 -42 35 q-28 17 -75 21 l-35 0 q-47 -4 -75 -21 q-28 -17 -41 -35 q-22 -29 -28 -57.5 q-6 -28.5 -2 -45.5 q4 -24 5.5 -47.5 q1.5 -23.5 0.5 -30.5 l-1 -3 q-4 -8 -5 -20 q-1 -12 4 -35 q6 -28 13 -43.5 q7 -15.5 14 -22.5 q2 -18 7.5 -35 q5.5 -17 10.5 -28 q8 -16 8 -48 q0 -14 -1 -17.5 q-1 -3.5 -4 -3.5 q-45 -13 -98.5 -32 q-53.5 -19 -82.5 -32 q-42 50 -65.5 112.5 q-23.5 62.5 -23.5 132.5 q4 162 111.5 269.5 q107.5 107.5 269.5 111.5 Z" /><glyph glyph-name="contactfilled" unicode="&#xe130;" d="M416 704 q-177 -4 -294.5 -121.5 q-117.5 -117.5 -121.5 -294.5 q4 -177 121.5 -294.5 q117.5 -117.5 294.5 -121.5 q177 4 294.5 121.5 q117.5 117.5 121.5 294.5 q-4 177 -121.5 294.5 q-117.5 117.5 -294.5 121.5 ZM416 -93 q-89 0 -164 36.5 q-75 36.5 -128 99.5 q29 13 82.5 32 q53.5 19 97.5 32 q4 0 5 3.5 q1 3.5 1 17.5 q0 32 -8 48 q-5 11 -10.5 28 q-5.5 17 -7.5 35 q-7 7 -14.5 22.5 q-7.5 15.5 -13.5 43.5 q-4 23 -3 35 q1 12 4 20 l1 3 q2 7 0 30.5 q-2 23.5 -6 47.5 q-3 17 3 45.5 q6 28.5 27 57.5 q14 18 41.5 35 q27.5 17 74.5 21 l35 0 q48 -4 76 -21 q28 -17 41 -35 q21 -29 27 -57.5 q6 -28.5 3 -45.5 q-4 -24 -5.5 -47.5 q-1.5 -23.5 -0.5 -30.5 l1 -3 q3 -8 4 -20 q1 -12 -3 -35 q-6 -28 -13.5 -43.5 q-7.5 -15.5 -13.5 -22.5 q-3 -17 -8 -34 q-5 -17 -10.5 -28.5 q-5.5 -11.5 -9.5 -23 q-4 -11.5 -4 -25 q0 -13.5 1 -17 q1 -3.5 4 -3.5 q43 -13 98 -32 q55 -19 88 -32 q-53 -64 -128 -100.5 q-75 -36.5 -164 -36.5 Z" /><glyph glyph-name="download" unicode="&#xe403;" d="M384 608 l0 -32 l224 0 l0 -544 l-576 0 l0 544 l224 0 l0 32 l-256 0 l0 -608 l640 0 l0 608 l-256 0 ZM194 391 l-23 -23 l149 -149 l149 149 l-23 23 l-110 -109 l0 486 l-32 0 l0 -486 l-110 109 Z" /><glyph glyph-name="email" unicode="&#xe201;" d="M0 544 l0 -512 l768 0 l0 512 l-768 0 ZM384 264 l-326 248 l652 0 l-326 -248 ZM32 64 l0 428 l230 -175 l-136 -155 l4 -4 l158 139 l96 -73 l96 73 l158 -139 l4 4 l-136 155 l230 175 l0 -428 l-704 0 Z" /><glyph glyph-name="emailfilled" unicode="&#xe231;" d="M768 128 l0 484 l-262 -199 l136 -155 l-4 -4 l-158 139 l-96 -73 l-96 73 l-158 -139 l-4 4 l136 155 l-262 199 l0 -484 l768 0 ZM751 640 l-735 0 l368 -280 l367 280 Z" /><glyph glyph-name="help" unicode="&#xe505;" d="M416 800 q-177 -4 -294.5 -121.5 q-117.5 -117.5 -121.5 -294.5 q4 -177 121.5 -294.5 q117.5 -117.5 294.5 -121.5 q177 4 294.5 121.5 q117.5 117.5 121.5 294.5 q-4 177 -121.5 294.5 q-117.5 117.5 -294.5 121.5 ZM416 3 q-162 4 -269.5 111.5 q-107.5 107.5 -111.5 269.5 q4 162 111.5 269.5 q107.5 107.5 269.5 111.5 q162 -4 269.5 -111.5 q107.5 -107.5 111.5 -269.5 q-4 -162 -111.5 -269.5 q-107.5 -107.5 -269.5 -111.5 ZM423 604 q-65 0 -99.5 -31 q-34.5 -31 -35.5 -93 l38 0 q-2 92 95 93 q36 -1 60.5 -22.5 q24.5 -21.5 25.5 -57.5 q-1 -23 -11.5 -42 q-10.5 -19 -27.5 -34 q-33 -30 -46 -59 q-13 -29 -14 -70 l38 0 q0 36 7 55.5 q7 19.5 39 50.5 q23 21 37.5 44.5 q14.5 23.5 14.5 56.5 q-1 52 -35.5 80.5 q-34.5 28.5 -85.5 28.5 ZM425 231 q-15 0 -24.5 -9.5 q-9.5 -9.5 -9.5 -24 q0 -14.5 9.5 -24 q9.5 -9.5 24 -9.5 q14.5 0 24 9.5 q9.5 9.5 9.5 24 q0 14.5 -9.5 24 q-9.5 9.5 -23.5 9.5 Z" /><glyph glyph-name="helpfilled" unicode="&#xe535;" d="M416 800 q-177 -4 -294.5 -121.5 q-117.5 -117.5 -121.5 -294.5 q4 -177 121.5 -294.5 q117.5 -117.5 294.5 -121.5 q177 4 294.5 121.5 q117.5 117.5 121.5 294.5 q-4 177 -121.5 294.5 q-117.5 117.5 -294.5 121.5 ZM425 164 q-15 0 -24.5 9.5 q-9.5 9.5 -9.5 24 q0 14.5 9.5 24 q9.5 9.5 24 9.5 q14.5 0 24 -9.5 q9.5 -9.5 9.5 -24 q0 -14.5 -9.5 -24 q-9.5 -9.5 -23.5 -9.5 ZM492 395 q-32 -32 -39 -51.5 q-7 -19.5 -7 -55.5 l-38 0 q1 42 14 70.5 q13 28.5 46 58.5 q17 15 27.5 34 q10.5 19 11.5 42 q-1 36 -25.5 57.5 q-24.5 21.5 -60.5 22.5 q-97 -1 -95 -93 l-38 0 q1 63 35.5 94 q34.5 31 99.5 30 q51 0 85.5 -28.5 q34.5 -28.5 35.5 -80.5 q0 -32 -14.5 -56 q-14.5 -24 -37.5 -44 Z" /><glyph glyph-name="location" unicode="&#xe303;" d="M268 832 q-114 -3 -189.5 -77.5 q-75.5 -74.5 -78.5 -187.5 q0 -25 5 -51 q5 -26 14 -50 l0 0 l249 -530 l249 530 q19 48 19 100 q-3 114 -78.5 188.5 q-75.5 74.5 -189.5 77.5 ZM486 477 l0 -1 l-218 -463 l-218 463 q-18 45 -18 91 q3 99 69.5 164.5 q66.5 65.5 166.5 68.5 q100 -3 167 -68 q67 -65 69 -165 q0 -46 -18 -90 ZM268 704 q-54 -1 -90.5 -37.5 q-36.5 -36.5 -37.5 -90.5 q1 -54 37.5 -90.5 q36.5 -36.5 90.5 -37.5 q54 1 90.5 37.5 q36.5 36.5 37.5 90.5 q-1 54 -37.5 90.5 q-36.5 36.5 -90.5 37.5 ZM268 482 q-40 1 -66.5 27.5 q-26.5 26.5 -26.5 66.5 q0 40 26.5 66.5 q26.5 26.5 66.5 26.5 q40 0 66.5 -26.5 q26.5 -26.5 26.5 -66.5 q0 -40 -26.5 -66.5 q-26.5 -26.5 -66.5 -27.5 Z" /><glyph glyph-name="locationfilled" unicode="&#xe333;" d="M268 832 q-114 -3 -189.5 -77.5 q-75.5 -74.5 -78.5 -187.5 q0 -25 5 -51 q5 -26 14 -50 l0 0 l249 -530 l249 530 q19 48 19 100 q-3 114 -78.5 188.5 q-75.5 74.5 -189.5 77.5 ZM268 482 q-40 1 -66.5 27.5 q-26.5 26.5 -26.5 66.5 q0 40 26.5 66.5 q26.5 26.5 66.5 26.5 q40 0 66.5 -26.5 q26.5 -26.5 26.5 -66.5 q0 -40 -26.5 -66.5 q-26.5 -26.5 -66.5 -27.5 Z" /><glyph glyph-name="locked" unicode="&#xe506;" d="M528 352 l0 144 q-2 88 -61 147 q-59 59 -147 61 q-88 -2 -147 -61 q-59 -59 -61 -147 l0 -144 l-112 0 l0 -480 l640 0 l0 480 l-112 0 ZM144 496 q2 75 51.5 124.5 q49.5 49.5 124.5 51.5 q75 -2 124.5 -51.5 q49.5 -49.5 51.5 -124.5 l0 -144 l-352 0 l0 144 ZM608 -96 l-576 0 l0 416 l576 0 l0 -416 ZM384 160 q-1 27 -19 45 q-18 18 -45 18 q-27 0 -45 -18 q-18 -18 -19 -45 q0 -23 13.5 -39.5 q13.5 -16.5 34.5 -22.5 l0 -82 q0 -7 4.5 -11.5 q4.5 -4.5 11.5 -4.5 q7 0 11.5 4.5 q4.5 4.5 4.5 11.5 l0 82 q21 6 34.5 22.5 q13.5 16.5 13.5 39.5 ZM320 128 q-14 0 -23 9 q-9 9 -9 23 q0 14 9 23 q9 9 23 9 q14 0 23 -9 q9 -9 9 -23 q0 -14 -9 -23 q-9 -9 -23 -9 Z" /><glyph glyph-name="micoff" unicode="&#xe360;" d="M17 816 l28 16 l515 -880 l-28 -16 l-515 880 ZM256 189 q37 0 69 17 l-227 385 l0 -235 q2 -71 46.5 -118 q44.5 -47 111.5 -49 ZM414 356 l0 309 q-2 71 -46.5 118 q-44.5 47 -111.5 49 q-38 0 -70.5 -17.5 q-32.5 -17.5 -54.5 -46.5 l274 -467 q9 26 9 55 ZM512 353 l0 159 l-34 0 l0 -159 q-1 -66 -34 -117 l20 -34 q23 32 35.5 70 q12.5 38 12.5 81 ZM278 98 q51 4 95 26 l-19 32 q-44 -22 -96 -22 q-93 2 -155 64 q-62 62 -65 154 l0 160 l-38 0 l0 -159 q3 -104 70 -175 q67 -71 170 -80 l0 -126 l-146 0 l0 -36 l322 0 l0 36 l-138 0 l0 126 Z" /><glyph glyph-name="mic" unicode="&#xe302;" d="M256 832 q-67 -2 -111.5 -49 q-44.5 -47 -46.5 -118 l0 -309 q2 -71 46.5 -118 q44.5 -47 111.5 -49 q67 2 111.5 49 q44.5 47 46.5 118 l0 309 q-2 71 -46.5 118 q-44.5 47 -111.5 49 ZM382 356 q-1 -57 -37 -95.5 q-36 -38.5 -89 -39.5 q-53 1 -89 39.5 q-36 38.5 -37 95.5 l0 309 q1 57 37 95.5 q36 38.5 89 39.5 q53 -1 89 -39.5 q36 -38.5 37 -95.5 l0 -309 ZM478 512 l0 -159 q-2 -93 -64.5 -154.5 q-62.5 -61.5 -155.5 -64.5 q-93 3 -155.5 64.5 q-62.5 61.5 -64.5 154.5 l0 159 l-38 0 l0 -159 q2 -104 69.5 -175 q67.5 -71 170.5 -80 l0 -126 l-146 0 l0 -36 l322 0 l0 36 l-138 0 l0 126 q101 9 166.5 80 q65.5 71 67.5 175 l0 159 l-34 0 Z" /><glyph glyph-name="micfilled" unicode="&#xe332;" d="M256 189 q67 2 111.5 49 q44.5 47 46.5 118 l0 309 q-2 71 -46.5 118 q-44.5 47 -111.5 49 q-67 -2 -111.5 -49 q-44.5 -47 -46.5 -118 l0 -309 q2 -71 46.5 -118 q44.5 -47 111.5 -49 ZM478 512 l0 -159 q-2 -93 -64.5 -154.5 q-62.5 -61.5 -155.5 -64.5 q-93 3 -155.5 64.5 q-62.5 61.5 -64.5 154.5 l0 159 l-38 0 l0 -159 q2 -104 69.5 -175 q67.5 -71 170.5 -80 l0 -126 l-146 0 l0 -36 l322 0 l0 36 l-138 0 l0 126 q101 9 166.5 80 q65.5 71 67.5 175 l0 159 l-34 0 Z" /><glyph glyph-name="personaddfilled" unicode="&#xe132;" d="M640 590 l-50 0 l0 50 l-28 0 l0 -50 l-50 0 l0 -28 l50 0 l0 -50 l28 0 l0 50 l50 0 l0 28 ZM535 168 q-21 7 -44.5 10.5 q-23.5 3.5 -42.5 7.5 q-11 2 -22.5 7 q-11.5 5 -17.5 11 q-4 11 -3.5 44.5 q0.5 33.5 1.5 37.5 l7 12 q6 11 11.5 25 q5.5 14 9.5 37 l4 25 q1 -1 7.5 2.5 q6.5 3.5 11 21.5 q4.5 18 8.5 30 q4 12 3.5 25.5 q-0.5 13.5 -5 16.5 q-4.5 3 -5.5 3 q-1 0 -0.5 0 q0.5 0 5 21 q4.5 21 6.5 64 q1 53 -37 93 q-38 40 -112 42 q-74 -2 -111.5 -42 q-37.5 -40 -37.5 -93 q2 -43 6.5 -64 q4.5 -21 5 -21 q0.5 0 -0.5 0 q-1 0 -5.5 -3 q-4.5 -3 -5 -16.5 q-0.5 -13.5 3.5 -25 q4 -11.5 8.5 -29.5 q4.5 -18 11 -22 q6.5 -4 7.5 -3 l4 -25 q4 -23 9.5 -37 q5.5 -14 11.5 -25 l7 -12 q1 -4 1.5 -37.5 q0.5 -33.5 -3.5 -44.5 q-6 -6 -17.5 -11 q-11.5 -5 -22.5 -7 q-19 -4 -43 -7.5 q-24 -3.5 -44 -10.5 q-23 -6 -62 -31 q-39 -25 -43 -73 l640 0 q-4 48 -43 73 q-39 25 -62 31 Z" /><glyph glyph-name="refreshempty" unicode="&#xe461;" d="M256 128 q-109 3 -181 75 q-72 72 -75 181 q3 109 75 181 q72 72 181 75 l0 88 l192 -128 l-192 -111 l0 111 q-92 -2 -153 -63 q-61 -61 -63 -153 q2 -92 63 -153 q61 -61 153 -63 q92 2 153 63 q61 61 63 153 l40 0 q-3 -109 -75 -181.5 q-72 -72.5 -181 -74.5 Z" /><glyph glyph-name="refresh" unicode="&#xe407;" d="M632 384 q-2 -92 -63 -153 q-61 -61 -153 -63 q-92 2 -153 63 q-61 61 -63 153 q2 92 63 153 q61 61 153 63 l0 -111 l192 111 l-192 128 l0 -88 q-109 -3 -181 -75 q-72 -72 -75 -181 q3 -109 75 -181.5 q72 -72.5 181 -74.5 q109 2 181 74.5 q72 72.5 75 181.5 l-40 0 ZM416 800 q-177 -4 -294.5 -121.5 q-117.5 -117.5 -121.5 -294.5 q4 -177 121.5 -294.5 q117.5 -117.5 294.5 -121.5 q177 4 294.5 121.5 q117.5 117.5 121.5 294.5 q-4 177 -121.5 294.5 q-117.5 117.5 -294.5 121.5 ZM416 3 q-162 4 -269.5 111.5 q-107.5 107.5 -111.5 269.5 q4 162 111.5 269.5 q107.5 107.5 269.5 111.5 q162 -4 269.5 -111.5 q107.5 -107.5 111.5 -269.5 q-4 -162 -111.5 -269.5 q-107.5 -107.5 -269.5 -111.5 Z" /><glyph glyph-name="refreshfilled" unicode="&#xe437;" d="M416 800 q-177 -4 -294.5 -121.5 q-117.5 -117.5 -121.5 -294.5 q4 -177 121.5 -294.5 q117.5 -117.5 294.5 -121.5 q177 4 294.5 121.5 q117.5 117.5 121.5 294.5 q-4 177 -121.5 294.5 q-117.5 117.5 -294.5 121.5 ZM416 128 q-109 3 -181 75 q-72 72 -75 181 q3 109 75 181 q72 72 181 75 l0 88 l192 -128 l-192 -111 l0 111 q-92 -2 -153 -63 q-61 -61 -63 -153 q2 -92 63 -153 q61 -61 153 -63 q92 2 153 63 q61 61 63 153 l40 0 q-3 -109 -75 -181.5 q-72 -72.5 -181 -74.5 Z" /><glyph glyph-name="reload" unicode="&#xe462;" d="M384 768 q163 -4 271 -112 q108 -108 113 -271 l110 105 l18 -18 l-141 -136 l-133 136 l18 18 l102 -105 q-4 152 -105 253 q-101 101 -253 104 q-152 -3 -253.5 -104.5 q-101.5 -101.5 -104.5 -253.5 q3 -152 104.5 -253.5 q101.5 -101.5 253.5 -104.5 q120 2 210.5 68.5 q90.5 66.5 128.5 174.5 l25 -7 q-41 -116 -138 -188 q-97 -72 -226 -74 q-163 4 -271.5 112.5 q-108.5 108.5 -112.5 271.5 q4 163 112.5 271.5 q108.5 108.5 271.5 112.5 Z" /><glyph glyph-name="starhalf" unicode="&#xe463;" d="M280 286 l-109 -318 l277 197 l277 -197 l-109 318 l280 196 l-343 0 l-105 318 l-105 -318 l-343 0 l280 -196 ZM448 695 l82 -247 l262 0 l-216 -149 l85 -245 l-213 151 l0 490 Z" /><glyph glyph-name="star" unicode="&#xe408;" d="M896 482 l-343 0 l-105 318 l-105 -318 l-343 0 l280 -196 l-109 -318 l277 197 l277 -197 l-110 318 l281 196 ZM661 54 l-213 152 l-213 -152 l85 245 l-216 149 l262 0 l82 247 l82 -247 l262 0 l-216 -149 l85 -245 Z" /><glyph glyph-name="starfilled" unicode="&#xe438;" d="M896 482 l-343 0 l-105 318 l-105 -318 l-343 0 l280 -196 l-109 -318 l277 197 l277 -197 l-110 318 l281 196 Z" /><glyph glyph-name="phone" unicode="&#xe200;" d="M674 129 q-25 25 -74 54.5 q-49 29.5 -93 31.5 q-19 0 -32 -8 q-21 -13 -36 -21.5 q-15 -8.5 -22 -9.5 q-4 0 -10 4 q-6 4 -15 13 l-2 2 q-27 23 -38 33.5 q-11 10.5 -21 21.5 l-30 31 l-35 39 q-24 25 -26 37 q-1 6 5 16.5 q6 10.5 19 28.5 q33 44 3 107 q-12 25 -29.5 48 q-17.5 23 -35.5 44 l-2 3 q-29 36 -67 36 q-22 -1 -38.5 -9 q-16.5 -8 -25.5 -14 l-3 -2 q-21 -14 -35.5 -31 q-14.5 -17 -20.5 -36 q-10 -26 -7 -68.5 q3 -42.5 43 -116.5 q34 -63 71 -113 q37 -50 87 -101 q45 -47 77.5 -73.5 q32.5 -26.5 78.5 -59.5 q53 -38 101.5 -59 q48.5 -21 84.5 -21 q32 -2 62 7.5 q30 9.5 67 52.5 q37 46 30.5 77.5 q-6.5 31.5 -31.5 55.5 ZM651 17 q-29 -35 -52 -42.5 q-23 -7.5 -53.5 -6.5 q-30.5 1 -74.5 20.5 q-44 19.5 -93 54.5 q-45 32 -76.5 58 q-31.5 26 -75.5 72 q-48 49 -83.5 97 q-35.5 48 -69.5 110 q-34 64 -38 100 q-4 36 5 58 q4 13 15 26 q11 13 27 23 l3 2 q9 5 21 11 q12 6 27 7 q23 0 44 -25 l2 -2 q40 -47 60.5 -87.5 q20.5 -40.5 -0.5 -71.5 q-16 -21 -23.5 -37 q-7.5 -16 -6.5 -30.5 q1 -14.5 10 -27 q9 -12.5 24 -29.5 l36 -39 l30 -32 q10 -11 22 -22 q12 -11 39 -35 l2 -2 q12 -11 22 -17.5 q10 -6.5 23 -6.5 q13 0 30 8.5 q17 8.5 45 26.5 q5 4 16 4 q35 -3 78.5 -28.5 q43.5 -25.5 65.5 -48.5 q19 -17 22.5 -36 q3.5 -19 -23.5 -52 Z" /><glyph glyph-name="phonefilled" unicode="&#xe230;" d="M674 129 q-25 25 -74 54.5 q-49 29.5 -93 31.5 q-19 0 -32 -8 q-21 -13 -36 -21.5 q-15 -8.5 -22 -9.5 q-4 0 -10 4 q-6 4 -15 13 l-2 2 q-27 23 -38 33.5 q-11 10.5 -21 21.5 l-30 31 l-35 39 q-24 25 -26 37 q-1 6 5 16.5 q6 10.5 19 28.5 q33 44 3 107 q-12 25 -29.5 48 q-17.5 23 -35.5 44 l-2 3 q-29 36 -67 36 q-22 -1 -38.5 -9 q-16.5 -8 -25.5 -14 l-3 -2 q-21 -14 -35.5 -31 q-14.5 -17 -20.5 -36 q-10 -26 -7 -68.5 q3 -42.5 43 -116.5 q34 -63 71 -113 q37 -50 87 -101 q45 -47 77.5 -73.5 q32.5 -26.5 78.5 -59.5 q53 -38 101.5 -59 q48.5 -21 84.5 -21 q32 -2 62 7.5 q30 9.5 67 52.5 q37 46 30.5 77.5 q-6.5 31.5 -31.5 55.5 Z" /><glyph glyph-name="undo" unicode="&#xe406;" d="M768 64 q4 29 -9.5 108.5 q-13.5 79.5 -88.5 162.5 q-52 53 -122 80.5 q-70 27.5 -164 31.5 l0 161 l-384 -256 l384 -256 l0 160 q59 -2 98.5 -13 q39.5 -11 74.5 -27 q47 -22 84 -63 q37 -41 68 -91 l38 -62 l21 0 l0 64 ZM736 77 q-69 119 -159 166 q-90 47 -225 45 l0 -130 l-296 194 l296 193 l0 -129 q288 -21 343 -169.5 q55 -148.5 41 -169.5 Z" /><glyph glyph-name="upload" unicode="&#xe402;" d="M384 608 l0 -32 l224 0 l0 -544 l-576 0 l0 544 l224 0 l0 32 l-256 0 l0 -608 l640 0 l0 608 l-256 0 ZM194 660 l-23 23 l149 149 l149 -149 l-23 -23 l-110 109 l0 -486 l-32 0 l0 486 l-110 -109 Z" /><glyph glyph-name="videocam" unicode="&#xe300;" d="M513 640 l-442 0 q-29 -1 -49.5 -19 q-20.5 -18 -21.5 -46 l0 -376 q1 -29 21.5 -49.5 q20.5 -20.5 49.5 -21.5 l442 0 q29 1 47.5 21.5 q18.5 20.5 19.5 49.5 l0 376 q-1 28 -19.5 46 q-18.5 18 -47.5 19 ZM546 199 q0 -15 -9 -25.5 q-9 -10.5 -24 -11.5 l-442 0 q-14 1 -25 11.5 q-11 10.5 -12 25.5 l0 376 q1 14 11.5 22 q10.5 8 25.5 9 l442 -1 q14 0 23.5 -8 q9.5 -8 9.5 -22 l0 -376 ZM640 470 l0 -171 l196 -107 l0 384 l-196 -106 ZM802 516 l0 -265 l-128 67 l0 132 l128 67 l0 -1 Z" /><glyph glyph-name="paperclip" unicode="&#xe567;" d="M297 490 q-9 0 -15.5 -6.5 q-6.5 -6.5 -7.5 -16.5 l0 -390 q-2 -65 -36.5 -96 q-34.5 -31 -78 -30.5 q-43.5 0.5 -78 32 q-34.5 31.5 -35.5 96.5 l0 470 q1 47 34 67 q16 10 35 9.5 q19 -0.5 35 -9.5 q33 -21 33 -68 l0 -449 q-1 -23 -10 -35 q-6 -7 -14 -7 q-8 0 -15 10.5 q-7 10.5 -7 30.5 l0 346 q0 10 -6.5 16.5 q-6.5 6.5 -16 6.5 q-9.5 0 -16 -6.5 q-6.5 -6.5 -6.5 -16.5 l-1 -345 q1 -44 21.5 -66.5 q20.5 -22.5 47.5 -22.5 q29 0 48.5 24.5 q19.5 24.5 19.5 63.5 l1 449 q0 36 -14.5 64 q-14.5 28 -41.5 44.5 q-27 16.5 -58 16.5 q-31 0 -58 -15.5 q-27 -15.5 -41.5 -43.5 q-14.5 -28 -15.5 -64 l0 -470 q2 -86 49.5 -130.5 q47.5 -44.5 109.5 -44.5 q31 -1 60.5 11 q29.5 12 51.5 34.5 q22 22.5 35 54 q13 31.5 13 73.5 l0 389 q1 11 -5.5 17.5 q-6.5 6.5 -16.5 6.5 Z" /><glyph glyph-name="person" unicode="&#xe101;" d="M213 493 l0 0 l0 0 ZM535 168 q-21 7 -44.5 10.5 q-23.5 3.5 -42.5 7.5 q-11 2 -22.5 7 q-11.5 5 -17.5 11 q-4 11 -3.5 44.5 q0.5 33.5 1.5 37.5 l7 12 q6 11 11.5 25 q5.5 14 9.5 37 l4 25 q1 -1 7.5 2.5 q6.5 3.5 11 21.5 q4.5 18 8.5 30 q4 12 3.5 25.5 q-0.5 13.5 -5 16.5 q-4.5 3 -6.5 3 l0 0 q1 0 5.5 21 q4.5 21 6.5 64 q1 53 -37 93 q-38 40 -112 42 q-74 -2 -111.5 -42 q-37.5 -40 -37.5 -93 q2 -43 6.5 -64 q4.5 -21 5.5 -21 l0 0 q-2 0 -6.5 -3 q-4.5 -3 -5 -16.5 q-0.5 -13.5 3.5 -25 q4 -11.5 8.5 -29.5 q4.5 -18 11 -22 q6.5 -4 7.5 -3 l4 -25 q4 -23 9.5 -37 q5.5 -14 11.5 -25 l7 -12 q1 -4 1.5 -37.5 q0.5 -33.5 -3.5 -44.5 q-6 -6 -17.5 -11 q-11.5 -5 -22.5 -7 q-19 -4 -43 -7.5 q-24 -3.5 -44 -10.5 q-23 -6 -62 -31 q-39 -25 -43 -73 l640 0 q-4 48 -43 73 q-39 25 -62 31 ZM320 96 l-275 0 q6 8 17 15 q21 16 54 27 q10 4 24 7 l27 4 q17 3 32 6 q6 1 25 8 q19 7 32 21 q7 7 9.5 21.5 q2.5 14.5 1.5 42.5 l-1 48 l-12 20 q-5 9 -8.5 17.5 q-3.5 8.5 -7 25.5 q-3.5 17 -5.5 31 q0 0 0 0 l-1 7 q-2 7 -9 9 q-7 2 -10 7 l-8 37 q-3 16 1 21 q4 5 7 11 q1 10 0 12 l0 0 q-1 1 -4.5 20 q-3.5 19 -5.5 55 q0 41 28 70 q32 33 89 33 q57 0 89 -33 q28 -29 28 -70 q-2 -36 -5.5 -55 q-3.5 -19 -4.5 -20 l0 0 q0 0 -1 -11 q2 -7 7 -12 q5 -5 2 -21 l-9 -37 q-2 -4 -9 -6.5 q-7 -2.5 -9 -9.5 l-2 -7 q0 0 1 0 q-3 -14 -6.5 -31 q-3.5 -17 -6.5 -25.5 q-3 -8.5 -8 -17.5 l-7 -13 l-5 -7 l-2 -48 q0 -28 2.5 -42.5 q2.5 -14.5 9.5 -21.5 q13 -14 32 -21 q19 -7 25 -8 q15 -3 32 -6 l27 -4 q13 -3 24 -7 q33 -11 54 -27 q10 -7 16 -15 l-274 0 Z" /><glyph glyph-name="personfilled" unicode="&#xe131;" d="M535 168 q-21 7 -44.5 10.5 q-23.5 3.5 -42.5 7.5 q-11 2 -22.5 7 q-11.5 5 -17.5 11 q-4 11 -3.5 44.5 q0.5 33.5 1.5 37.5 l7 12 q6 11 11.5 25 q5.5 14 9.5 37 l4 25 q1 -1 7.5 2.5 q6.5 3.5 11 21.5 q4.5 18 8.5 30 q4 12 3.5 25.5 q-0.5 13.5 -5 16.5 q-4.5 3 -6.5 3 l0 0 q1 0 5.5 21 q4.5 21 6.5 64 q1 53 -37 93 q-38 40 -112 42 q-74 -2 -111.5 -42 q-37.5 -40 -37.5 -93 q2 -43 6.5 -64 q4.5 -21 5.5 -21 l0 0 q-2 0 -6.5 -3 q-4.5 -3 -5 -16.5 q-0.5 -13.5 3.5 -25 q4 -11.5 8.5 -29.5 q4.5 -18 11 -22 q6.5 -4 7.5 -3 l4 -25 q4 -23 9.5 -37 q5.5 -14 11.5 -25 l7 -12 q1 -4 1.5 -37.5 q0.5 -33.5 -3.5 -44.5 q-6 -6 -17.5 -11 q-11.5 -5 -22.5 -7 q-19 -4 -43 -7.5 q-24 -3.5 -44 -10.5 q-23 -6 -62 -31 q-39 -25 -43 -73 l640 0 q-4 48 -43 73 q-39 25 -62 31 Z" /><glyph glyph-name="personadd" unicode="&#xe102;" d="M640 494 l-50 0 l0 50 l-28 0 l0 -50 l-50 0 l0 -28 l50 0 l0 -50 l28 0 l0 50 l50 0 l0 28 ZM213 397 q0 0 0 0 l0 0 ZM535 72 q-21 7 -44.5 10.5 q-23.5 3.5 -42.5 7.5 q-11 2 -22.5 7 q-11.5 5 -17.5 11 q-4 11 -3.5 44.5 q0.5 33.5 1.5 37.5 l7 12 q6 11 11.5 25 q5.5 14 9.5 37 l4 25 q1 -1 7.5 2.5 q6.5 3.5 11 21.5 q4.5 18 8.5 30 q4 12 3.5 25.5 q-0.5 13.5 -5 16.5 q-4.5 3 -5.5 3 q-1 0 -0.5 0 q0.5 0 5 21 q4.5 21 6.5 64 q1 53 -37 93 q-38 40 -112 42 q-74 -2 -111.5 -42 q-37.5 -40 -37.5 -93 q2 -43 6.5 -64 q4.5 -21 5 -21 q0.5 0 -0.5 0.5 q-1 0.5 -5.5 -3 q-4.5 -3.5 -5 -17 q-0.5 -13.5 3.5 -25 q4 -11.5 8.5 -29.5 q4.5 -18 11 -22 q6.5 -4 7.5 -3 l4 -25 q4 -23 9.5 -37 q5.5 -14 11.5 -25 l7 -12 q1 -4 1.5 -37.5 q0.5 -33.5 -3.5 -44.5 q-6 -6 -17.5 -11 q-11.5 -5 -22.5 -7 q-19 -4 -43 -7.5 q-24 -3.5 -44 -10.5 q-23 -6 -62 -31 q-39 -25 -43 -73 l640 0 q-4 48 -43 73 q-39 25 -62 31 ZM320 0 l-275 0 q6 8 17 15 q21 16 54 27 q10 4 24 7 l27 4 q17 3 32 6 q6 1 25 8 q19 7 32 21 q7 7 9.5 21.5 q2.5 14.5 1.5 42.5 l-1 48 l-12 20 q-5 9 -8.5 17.5 q-3.5 8.5 -7 25.5 q-3.5 17 -5.5 31 q0 0 0 0 l-1 7 q-2 7 -9 9 q-7 2 -10 7 l-8 37 q-3 16 1 21 q4 5 7 11 q1 10 0.5 11 q-0.5 1 -1 1.5 q-0.5 0.5 -4 19.5 q-3.5 19 -5.5 55 q0 41 28 70 q32 33 89 33 q57 0 89 -33 q28 -29 28 -70 q-2 -36 -5.5 -55 q-3.5 -19 -4 -19.5 q-0.5 -0.5 -0.5 -0.5 q0 0 -1 -11 q2 -7 7 -12 q5 -5 2 -21 l-9 -37 q-2 -4 -9 -6.5 q-7 -2.5 -9 -9.5 l-2 -7 q0 0 1 0 q-3 -14 -6.5 -31 q-3.5 -17 -6.5 -25.5 q-3 -8.5 -8 -17.5 l-7 -13 l-5 -7 l-2 -48 q0 -28 2.5 -42.5 q2.5 -14.5 9.5 -21.5 q13 -14 32 -21 q19 -7 25 -8 q15 -4 32 -6 l27 -4 q13 -3 24 -7 q33 -12 54 -27 q10 -7 16 -15 l-274 0 Z" /><glyph glyph-name="chatboxes" unicode="&#xe203;" d="M32 768 l512 0 l0 -192 l32 0 l0 224 l-576 0 l0 -448 l224 0 l0 32 l-192 0 l0 384 ZM256 544 l0 -448 l325 0 l128 -128 l27 0 l0 128 l96 0 l0 448 l-576 0 ZM800 128 l-96 0 l0 -109 l-110 109 l-306 0 l0 384 l512 0 l0 -384 Z" /><glyph glyph-name="chatboxesfilled" unicode="&#xe233;" d="M576 800 l-576 0 l0 -448 l224 0 l0 224 l352 0 l0 224 ZM256 544 l0 -448 l325 0 l128 -128 l27 0 l0 128 l96 0 l0 448 l-576 0 Z" /><glyph glyph-name="chatbubble" unicode="&#xe202;" d="M384 672 q149 -3 248.5 -81 q99.5 -78 103.5 -196 q0 -54 -25.5 -102 q-25.5 -48 -74.5 -86 q-49 -38 -113 -58 q-64 -20 -137 -20 q-43 0 -77.5 4.5 q-34.5 4.5 -61.5 14.5 l-6 1 q-14 5 -30 5 q-16 0 -32 -6 l-10 -3 l-92 -40 q20 63 24.5 78.5 q4.5 15.5 3.5 16.5 q0 22 -13 41 l-7 9 q-52 67 -53 146 q4 117 103.5 195 q99.5 78 248.5 81 ZM384 704 q-163 -3 -271.5 -90 q-108.5 -87 -112.5 -219 q0 -46 16 -88 q16 -42 45 -78 l7 -10 l-2 4 q0 0 0 0 l0 0 q0 0 0 0 q7 -10 7 -23 q-2 -9 -18 -59 l-18 -57 q-2 -6 2.5 -12 q4.5 -6 12.5 -8 l5 0 q4 0 8 1 l104 45 l21 8 q0 0 -1 0 q10 4 21.5 4 q11.5 0 21.5 -3 l3 -2 q35 -11 72.5 -15.5 q37.5 -4.5 78.5 -4.5 q163 2 270.5 85 q107.5 83 111.5 213 q-4 132 -112.5 219 q-108.5 87 -271.5 90 l0 0 Z" /><glyph glyph-name="chatbubblefilled" unicode="&#xe232;" d="M384 704 q-163 -3 -271.5 -90 q-108.5 -87 -112.5 -219 q0 -46 16 -88 q16 -42 45 -78 l7 -10 l-2 4 q0 0 0 0 l0 0 q0 0 0 0 q7 -10 7 -23 q-2 -9 -18 -59 l-18 -57 q-2 -6 2.5 -12 q4.5 -6 12.5 -8 l5 0 q4 0 8 1 l104 45 l21 8 q0 0 -1 0 q10 4 21.5 4 q11.5 0 21.5 -3 l3 -2 q35 -11 72.5 -15.5 q37.5 -4.5 78.5 -4.5 q163 2 270.5 85 q107.5 83 111.5 213 q-4 132 -112.5 219 q-108.5 87 -271.5 90 l0 0 Z" /><glyph glyph-name="closeempty" unicode="&#xe460;" d="M360 576 l-168 -169 l-168 168 l-24 -23 l168 -168 l-168 -168 l24 -23 l168 167 l168 -168 l24 23 l-169 169 l169 168 l-24 24 Z" /><glyph glyph-name="close" unicode="&#xe404;" d="M710 678 q-128 122 -294 122 q-166 0 -294 -122 q-122 -128 -122 -294 q0 -166 122 -294 q128 -122 294 -122 q166 0 294 122 q122 128 122 294 q0 166 -122 294 ZM686 114 q-118 -111 -270 -111 q-152 0 -270 111 q-111 118 -111 270 q0 152 111 270 q118 111 270 111 q152 0 270 -111 q111 -118 111 -270 q0 -152 -111 -270 ZM584 576 l-168 -168 l-168 167 l-24 -23 l168 -168 l-168 -168 l24 -23 l168 167 l168 -168 l24 24 l-169 168 l169 168 l-24 24 Z" /><glyph glyph-name="closefilled" unicode="&#xe434;" d="M710 678 q-128 122 -294 122 q-166 0 -294 -122 q-122 -128 -122 -294 q0 -166 122 -294 q128 -122 294 -122 q166 0 294 122 q122 128 122 294 q0 166 -122 294 ZM608 216 l-24 -24 l-168 168 l-168 -167 l-24 23 l168 168 l-168 168 l24 23 l168 -167 l168 168 l24 -24 l-169 -168 l169 -168 Z" /><glyph glyph-name="compose" unicode="&#xe400;" d="M576 96 l-544 0 l0 512 l416 0 l32 32 l-480 0 l0 -576 l608 0 l0 448 l-32 -32 l0 -384 ZM315 328 l-19 19 l342 343 l-22 23 l-360 -360 l0 -65 l64 0 l361 360 l-23 23 l-343 -343 ZM728 735 l-25 25 q-8 8 -19.5 8 q-11.5 0 -19.5 -8 l-25 -24 l65 -65 l24 25 q8 8 8 19.5 q0 11.5 -8 19.5 Z" /><glyph glyph-name="trash" unicode="&#xe401;" d="M576 573 l-160 0 l0 40 q-1 25 -17.5 41.5 q-16.5 16.5 -41.5 17.5 l-139 0 q-24 -1 -40.5 -17.5 q-16.5 -16.5 -17.5 -41.5 l0 -40 l-160 0 l0 -29 l42 0 l47 -581 q1 -25 17.5 -41.5 q16.5 -16.5 41.5 -17.5 l282 0 q25 1 41.5 17.5 q16.5 16.5 17.5 41.5 l46 581 l41 0 l0 29 ZM189 613 q1 13 9 21 q8 8 20 9 l139 0 q13 -1 21 -9 q8 -8 9 -21 l0 -40 l-198 0 l0 40 ZM459 -36 l0 -1 q0 -13 -8.5 -21 q-8.5 -8 -20.5 -9 l-282 0 q-12 1 -20.5 9 q-8.5 8 -8.5 21 l-48 581 l435 0 l-47 -580 ZM274 480 l28 0 l0 -482 l-28 0 l0 482 ZM416 480 l-29 0 l-22 -482 l30 0 l21 482 ZM189 480 l-29 0 l21 -482 l30 0 l-22 482 Z" /><glyph glyph-name="redo" unicode="&#xe405;" d="M4 96 l21 0 l38 62 q31 50 68 91 q37 41 84 63 q35 16 74.5 27 q39.5 11 98.5 13 l0 -160 l384 256 l-384 256 l0 -161 q-94 -4 -164 -31.5 q-70 -27.5 -123 -80.5 q-74 -83 -87.5 -162.5 q-13.5 -79.5 -9.5 -108.5 l0 -64 ZM420 512 l0 129 l296 -193 l-296 -194 l0 130 q-135 2 -225 -45 q-90 -47 -159 -166 q-14 21 41 169.5 q55 148.5 343 169.5 Z" /><glyph glyph-name="info" unicode="&#xe504;" d="M407 552 l0 0 ZM367 552 q0 -17 11.5 -28.5 q11.5 -11.5 28.5 -11.5 q17 0 28.5 11.5 q11.5 11.5 11.5 28.5 q0 17 -11.5 28.5 q-11.5 11.5 -28.5 11.5 q-17 0 -28.5 -11.5 q-11.5 -11.5 -11.5 -28.5 ZM448 208 l0 256 l-96 0 l0 -16 l32 0 l0 -240 l-32 0 l0 -16 l128 0 l0 16 l-32 0 ZM416 800 q-177 -4 -294.5 -121.5 q-117.5 -117.5 -121.5 -294.5 q4 -177 121.5 -294.5 q117.5 -117.5 294.5 -121.5 q177 4 294.5 121.5 q117.5 117.5 121.5 294.5 q-4 177 -121.5 294.5 q-117.5 117.5 -294.5 121.5 ZM416 3 q-162 4 -269.5 111.5 q-107.5 107.5 -111.5 269.5 q4 162 111.5 269.5 q107.5 107.5 269.5 111.5 q162 -4 269.5 -111.5 q107.5 -107.5 111.5 -269.5 q-4 -162 -111.5 -269.5 q-107.5 -107.5 -269.5 -111.5 Z" /><glyph glyph-name="infofilled" unicode="&#xe534;" d="M416 800 q-177 -4 -294.5 -121.5 q-117.5 -117.5 -121.5 -294.5 q4 -177 121.5 -294.5 q117.5 -117.5 294.5 -121.5 q177 4 294.5 121.5 q117.5 117.5 121.5 294.5 q-4 177 -121.5 294.5 q-117.5 117.5 -294.5 121.5 ZM407 592 q17 0 28.5 -11.5 q11.5 -11.5 11.5 -28.5 q0 -17 -11.5 -28.5 q-11.5 -11.5 -28.5 -11.5 q-17 0 -28.5 11.5 q-11.5 11.5 -11.5 28.5 q0 17 11.5 28.5 q11.5 11.5 28.5 11.5 ZM480 192 l-128 0 l0 16 l32 0 l0 240 l-32 0 l0 16 l96 0 l0 -256 l32 0 l0 -16 Z" /><glyph glyph-name="gear" unicode="&#xe502;" d="M386 576 q-39 0 -74 -14.5 q-35 -14.5 -62 -42 q-27 -27.5 -41.5 -62 q-14.5 -34.5 -14.5 -73.5 q0 -39 14.5 -73.5 q14.5 -34.5 41.5 -62 q27 -27.5 62 -42 q35 -14.5 73.5 -14.5 q38.5 0 73.5 14.5 q35 14.5 62.5 42 q27.5 27.5 41.5 62 q14 34.5 14 73.5 q0 39 -14 73.5 q-14 34.5 -41.5 62 q-27.5 27.5 -62.5 42 q-35 14.5 -73 14.5 ZM386 224 q-69 2 -114 47 q-45 45 -46 113 q1 68 46 113 q45 45 114 47 q68 -2 113 -47 q45 -45 47 -113 q-2 -68 -47 -113 q-45 -45 -113 -47 ZM721 464 l-30 0 q-20 1 -32.5 14 q-12.5 13 -13 32.5 q-0.5 19.5 14.5 32.5 l20 19 q14 16 14 35.5 q0 19.5 -14 34.5 l-45 44 q-14 14 -35 14 q-21 0 -35 -14 l-19 -18 q-14 -16 -34 -15.5 q-20 0.5 -33.5 13.5 q-13.5 13 -14.5 32 l0 30 q0 21 -13.5 35 q-13.5 14 -34.5 15 l-60 0 q-22 -1 -35.5 -15 q-13.5 -14 -14.5 -35 l0 -31 q-1 -19 -14 -31.5 q-13 -12.5 -32.5 -13 q-19.5 -0.5 -33.5 14.5 l-19 19 q-15 14 -35.5 14 q-20.5 0 -34.5 -14 l-45 -44 q-14 -15 -14 -35 q0 -20 14 -35 l19 -18 q15 -14 15 -34 q0 -20 -13 -33 q-13 -13 -32 -13 l-31 0 q-21 -1 -35 -15 q-14 -14 -15 -35 l0 -60 q1 -21 15 -35 q14 -14 35 -15 l31 0 q19 0 32 -13.5 q13 -13.5 13 -33 q0 -19.5 -15 -33.5 l-19 -18 q-14 -16 -14 -35.5 q0 -19.5 14 -34.5 l45 -44 q14 -14 34.5 -14 q20.5 0 35.5 14 l19 19 q13 14 33 14 q20 0 33 -13 q13 -13 14 -32 l0 -30 q0 -21 14 -35.5 q14 -14.5 35 -14.5 l61 0 q21 0 35 14.5 q14 14.5 15 35.5 l0 30 q0 19 13.5 32 q13.5 13 33 13 q19.5 0 33.5 -15 l19 -19 q14 -13 35 -13 q21 0 35 13 l45 45 q14 15 14 34.5 q0 19.5 -14 35.5 l-20 19 q-15 14 -14.5 33.5 q0.5 19.5 13 33 q12.5 13.5 32.5 13.5 l30 0 q21 1 33.5 14 q12.5 13 13.5 34 l0 61 q-1 21 -13.5 35 q-12.5 14 -33.5 15 ZM736 384 l0 -30 q0 -7 -3.5 -11.5 q-3.5 -4.5 -11.5 -4.5 l-30 0 q-32 -1 -54.5 -24 q-22.5 -23 -22.5 -56 q0 -33 24 -56 l19 -19 q5 -5 5 -12 q0 -7 -5 -12 l-44 -45 q-5 -4 -12.5 -4 q-7.5 0 -12.5 4 l-19 18 q-24 25 -56 25 q-32 0 -55.5 -22.5 q-23.5 -22.5 -23.5 -54.5 l0 -30 q0 -8 -5 -13 q-5 -5 -13 -5 l-60 0 q-8 0 -13 5 q-5 5 -5 13 l0 30 q0 32 -23.5 54.5 q-23.5 22.5 -55.5 22.5 q-32 0 -56 -24 l-18 -19 q-5 -4 -13 -4.5 q-8 -0.5 -12 4.5 l-45 45 q-5 5 -5 12 q0 7 5 12 l18 18 q25 24 25 56.5 q0 32.5 -22.5 55.5 q-22.5 23 -54.5 23 l-31 0 q-7 0 -12.5 5 q-5.5 5 -5.5 12 l0 61 q0 7 5.5 12.5 q5.5 5.5 12.5 5.5 l31 0 q32 0 54.5 23 q22.5 23 22.5 55.5 q0 32.5 -25 56.5 l-18 18 q-6 7 -6 12 q0 5 6 12 l44 45 q5 4 12.5 4 q7.5 0 12.5 -4 l19 -19 q23 -25 55.5 -25 q32.5 0 56 22.5 q23.5 22.5 23.5 54.5 l0 31 q0 7 5 12.5 q5 5.5 12 5.5 l61 0 q7 0 11.5 -5.5 q4.5 -5.5 4.5 -12.5 l0 -31 q1 -31 24 -54 q23 -23 56 -23 q33 0 57 25 l18 18 q5 5 12.5 5 q7.5 0 12.5 -4 l45 -45 q5 -5 5 -12 q0 -7 -5 -12 l-19 -19 q-24 -23 -24.5 -55.5 q-0.5 -32.5 22.5 -55.5 q23 -23 55 -23 l30 0 q8 0 11.5 -6 q3.5 -6 3.5 -12 l0 -30 Z" /><glyph glyph-name="gearfilled" unicode="&#xe532;" d="M721 463 l-30 0 q-20 1 -32.5 14 q-12.5 13 -13 32.5 q-0.5 19.5 14.5 33.5 l20 19 q14 15 14 35 q0 20 -14 35 l-45 44 q-14 14 -35 14 q-21 0 -35 -14 l-19 -19 q-14 -15 -34 -15 q-20 0 -33 13 q-13 13 -14 32 l0 31 q0 21 -14 35 q-14 14 -35 15 l-61 0 q-20 -1 -34 -15 q-14 -14 -14 -35 l0 -31 q-1 -19 -14.5 -31.5 q-13.5 -12.5 -33 -13 q-19.5 -0.5 -33.5 14.5 l-19 19 q-14 14 -35 14 q-21 0 -35 -14 l-45 -44 q-14 -15 -14 -35 q0 -20 14 -35 l19 -18 q15 -14 15 -34 q0 -20 -13 -33 q-13 -13 -32 -14 l-31 0 q-21 0 -35 -14 q-14 -14 -15 -35 l0 -60 q1 -21 15 -34.5 q14 -13.5 35 -14.5 l31 0 q19 -1 32 -14 q13 -13 13 -33 q0 -20 -15 -34 l-19 -18 q-14 -15 -14 -35 q0 -20 14 -35 l45 -44 q14 -14 34.5 -14 q20.5 0 35.5 14 l19 19 q13 14 33 14 q20 0 33.5 -13 q13.5 -13 13.5 -32 l0 -30 q1 -21 14.5 -35.5 q13.5 -14.5 34.5 -14.5 l61 0 q21 0 34.5 14.5 q13.5 14.5 14.5 35.5 l0 30 q0 19 13.5 32 q13.5 13 33 13 q19.5 0 34.5 -15 l19 -18 q14 -14 34.5 -14 q20.5 0 35.5 14 l44 44 q15 15 15 35 q0 20 -15 35 l-19 19 q-15 13 -15 33 q0 20 13 33 q13 13 32 14 l31 0 q20 0 33 14 q13 14 13 34 l0 61 q0 21 -12.5 35 q-12.5 14 -33.5 14 ZM546 384 l0 0 q-2 -68 -47 -113 q-45 -45 -113 -47 q-69 2 -114 47 q-45 45 -46 113 l0 0 l0 0 q1 68 46 113 q45 45 114 47 q68 -2 113 -47 q45 -45 47 -113 l0 0 Z" /><glyph glyph-name="home" unicode="&#xe500;" d="M384 672 l-320 -256 l0 -416 l224 0 l0 256 l192 0 l0 -256 l224 0 l0 416 l-320 256 ZM672 32 l-160 0 l0 256 l-256 0 l0 -256 l-160 0 l0 369 l288 230 l288 -230 l0 -369 ZM384 768 l-192 -154 l0 90 l-128 0 l0 -192 l-64 -51 l0 -41 l384 307 l384 -307 l0 41 l-384 307 ZM160 589 l-64 -51 l0 134 l64 0 l0 -83 Z" /><glyph glyph-name="homefilled" unicode="&#xe530;" d="M384 672 l-320 -256 l0 -416 l224 0 l0 256 l192 0 l0 -256 l224 0 l0 416 l-320 256 ZM384 768 l-192 -154 l0 90 l-128 0 l0 -192 l-64 -51 l0 -41 l384 307 l384 -307 l0 41 l-384 307 Z" /><glyph glyph-name="search" unicode="&#xe466;" d="M768 47 l-227 226 q31 40 48.5 88 q17.5 48 18.5 103 q-4 129 -89.5 215 q-85.5 86 -214.5 89 q-130 -3 -215.5 -89 q-85.5 -86 -88.5 -215 q3 -130 88.5 -216 q85.5 -86 215.5 -89 q54 0 102.5 18 q48.5 18 88.5 50 l226 -227 l47 47 ZM111 271 q-39 39 -59 88 q-20 49 -20 104 q0 55 20.5 104.5 q20.5 49.5 59 88.5 q38.5 39 88 59.5 q49.5 20.5 104 20.5 q54.5 0 104 -20.5 q49.5 -20.5 88.5 -59.5 q39 -39 59 -88 q20 -49 20 -104 q0 -55 -20 -104.5 q-20 -49.5 -59 -88.5 q-39 -39 -88.5 -59.5 q-49.5 -20.5 -104 -20.5 q-54.5 0 -104 20.5 q-49.5 20.5 -88.5 59.5 Z" /><glyph glyph-name="settings" unicode="&#xe560;" d="M640 688 q14 0 23 -9 q9 -9 9 -23 q0 -14 -9 -23 q-9 -9 -23 -9 q-14 0 -23 9 q-9 9 -9 23 q0 14 9 23 q9 9 23 9 ZM640 720 q-27 -1 -45 -19 q-18 -18 -18 -45 q0 -27 18 -45 q18 -18 45 -18 q27 0 45 18 q18 18 18 45 q0 27 -18 45 q-18 18 -45 19 l0 0 ZM640 144 q14 0 23 -9 q9 -9 9 -23 q0 -14 -9 -23 q-9 -9 -23 -9 q-14 0 -23 9 q-9 9 -9 23 q0 14 9 23 q9 9 23 9 ZM640 176 q-27 -1 -45 -19 q-18 -18 -18 -45 q0 -27 18 -45 q18 -18 45 -18 q27 0 45 18 q18 18 18 45 q0 27 -18 45 q-18 18 -45 19 l0 0 ZM256 416 q14 0 23 -9 q9 -9 9 -23 q0 -14 -9 -23 q-9 -9 -23 -9 q-14 0 -23 9 q-9 9 -9 23 q0 14 9 23 q9 9 23 9 ZM256 448 q-27 -1 -45 -19 q-18 -18 -18 -45 q0 -27 18 -45 q18 -18 45 -18 q27 0 45 18 q18 18 18 45 q0 27 -18 45 q-18 18 -45 19 l0 0 ZM351 400 l545 0 l0 -32 l-545 0 q1 8 1 16 q0 8 -1 16 ZM160 384 q0 -8 1 -16 l-161 0 l0 32 l161 0 q-1 -8 -1 -16 ZM735 128 l161 0 l0 -32 l-161 0 q1 8 1 16 q0 8 -1 16 ZM544 112 q0 -8 1 -16 l-545 0 l0 32 l545 0 q-1 -8 -1 -16 ZM735 672 l161 0 l0 -32 l-161 0 q1 8 1 16 q0 8 -1 16 ZM545 672 q-1 -8 -1 -16 q0 -8 1 -16 l-545 0 l0 32 l545 0 Z" /><glyph glyph-name="minus" unicode="&#xe410;" d="M416 800 q-177 -4 -294.5 -121.5 q-117.5 -117.5 -121.5 -294.5 q4 -177 121.5 -294.5 q117.5 -117.5 294.5 -121.5 q177 4 294.5 121.5 q117.5 117.5 121.5 294.5 q-4 177 -121.5 294.5 q-117.5 117.5 -294.5 121.5 ZM416 3 q-162 4 -269.5 111.5 q-107.5 107.5 -111.5 269.5 q4 162 111.5 269.5 q107.5 107.5 269.5 111.5 q162 -4 269.5 -111.5 q107.5 -107.5 111.5 -269.5 q-4 -162 -111.5 -269.5 q-107.5 -107.5 -269.5 -111.5 ZM160 400 l512 0 l0 -34 l-512 0 l0 34 Z" /><glyph glyph-name="minusfilled" unicode="&#xe440;" d="M416 800 q-177 -4 -294.5 -121.5 q-117.5 -117.5 -121.5 -294.5 q4 -177 121.5 -294.5 q117.5 -117.5 294.5 -121.5 q177 4 294.5 121.5 q117.5 117.5 121.5 294.5 q-4 177 -121.5 294.5 q-117.5 117.5 -294.5 121.5 ZM672 366 l-512 0 l0 34 l512 0 l0 -34 Z" /><glyph glyph-name="plusempty" unicode="&#xe468;" d="M512 366 l-240 0 l0 -238 l-34 0 l0 238 l-238 0 l0 34 l238 0 l0 240 l34 0 l0 -240 l240 0 l0 -34 Z" /><glyph glyph-name="plus" unicode="&#xe409;" d="M416 800 q-177 -4 -294.5 -121.5 q-117.5 -117.5 -121.5 -294.5 q4 -177 121.5 -294.5 q117.5 -117.5 294.5 -121.5 q177 4 294.5 121.5 q117.5 117.5 121.5 294.5 q-4 177 -121.5 294.5 q-117.5 117.5 -294.5 121.5 ZM416 3 q-162 4 -269.5 111.5 q-107.5 107.5 -111.5 269.5 q4 162 111.5 269.5 q107.5 107.5 269.5 111.5 q162 -4 269.5 -111.5 q107.5 -107.5 111.5 -269.5 q-4 -162 -111.5 -269.5 q-107.5 -107.5 -269.5 -111.5 ZM432 640 l-33 0 l0 -240 l-239 0 l0 -33 l239 0 l0 -239 l33 0 l0 239 l240 0 l0 33 l-240 0 l0 240 Z" /><glyph glyph-name="plusfilled" unicode="&#xe439;" d="M416 800 q-177 -4 -294.5 -121.5 q-117.5 -117.5 -121.5 -294.5 q4 -177 121.5 -294.5 q117.5 -117.5 294.5 -121.5 q177 4 294.5 121.5 q117.5 117.5 121.5 294.5 q-4 177 -121.5 294.5 q-117.5 117.5 -294.5 121.5 ZM672 366 l-240 0 l0 -238 l-34 0 l0 238 l-238 0 l0 34 l238 0 l0 240 l34 0 l0 -240 l240 0 l0 -34 Z" /><glyph glyph-name="back" unicode="&#xe471;" d="M384 639 l-65 65 l-319 -320 l319 -320 l65 65 l-255 255 l255 255 Z" /><glyph glyph-name="forward" unicode="&#xe470;" d="M0 639 l65 65 l319 -320 l-319 -320 l-65 65 l255 255 l-255 255 Z" /><glyph glyph-name="navigate" unicode="&#xe501;" d="M416 767 q77 0 146.5 -29 q69.5 -29 124 -83.5 q54.5 -54.5 83.5 -124 q29 -69.5 29 -146.5 q0 -77 -29 -146.5 q-29 -69.5 -83.5 -124 q-54.5 -54.5 -124 -83.5 q-69.5 -29 -146.5 -29 q-77 0 -146.5 29 q-69.5 29 -124 83.5 q-54.5 54.5 -83.5 124 q-29 69.5 -29 146.5 q0 77 29 146.5 q29 69.5 83.5 124 q54.5 54.5 124 83.5 q69.5 29 146.5 29 ZM416 800 q-177 -4 -294.5 -121.5 q-117.5 -117.5 -121.5 -294.5 q4 -177 121.5 -294.5 q117.5 -117.5 294.5 -121.5 q177 4 294.5 121.5 q117.5 117.5 121.5 294.5 q-4 177 -121.5 294.5 q-117.5 117.5 -294.5 121.5 l0 0 ZM608 576 l-447 -192 l255 0 l0 -256 l192 448 Z" /><glyph glyph-name="flag" unicode="&#xe508;" d="M480 672 q-17 -2 -37 -4.5 q-20 -2.5 -42 -2.5 q-35 0 -67 6.5 q-32 6.5 -64 14 q-32 7.5 -65.5 13 q-33.5 5.5 -68.5 5.5 q-70 -1 -99 -10.5 q-29 -9.5 -30 -11.5 l-7 -5 l0 -613 l32 0 l0 287 q9 4 34 8.5 q25 4.5 70 4.5 q33 0 64 -9 q31 -9 64 -16.5 q33 -7.5 67.5 -13 q34.5 -5.5 71.5 -6.5 q44 2 77 7 q18 2 32 4 l0 347 q-14 -3 -32 -5 ZM480 358 q-33 -6 -77 -7 q-35 0 -68 5.5 q-33 5.5 -65 13 q-32 7.5 -65.5 16.5 q-33.5 9 -68.5 10 q-38 0 -63.5 -3.5 q-25.5 -3.5 -40.5 -8.5 l0 275 q9 4 34 8.5 q25 4.5 70 4.5 q33 0 64 -5.5 q31 -5.5 64 -12.5 q33 -7 66.5 -14 q33.5 -7 70.5 -7 q22 0 42 2 l37 5 l0 -282 Z" /><glyph glyph-name="loop" unicode="&#xe565;" d="M956 384 l-83 -83 l-85 83 l-21 -22 l106 -106 l105 105 l-22 23 ZM897 385 q0 2 0 3 l0 0 q-6 172 -121 286 q-115 114 -287 118 q-112 -1 -206 -56 q-94 -55 -150 -152 l28 -16 q52 90 138.5 140.5 q86.5 50.5 189.5 51.5 q159 -4 265 -109.5 q106 -105.5 111 -264.5 q0 -20 -2 -41 l32 -4 q2 22 2 43 l0 1 ZM817 200 q-52 -90 -138.5 -140.5 q-86.5 -50.5 -189.5 -51.5 q-159 4 -265 110 q-106 106 -111 265 q0 20 2 40 l-32 4 q-2 -22 -2 -43 l0 0 l0 -9 l0 0 q8 -170 122.5 -282.5 q114.5 -112.5 285.5 -116.5 q112 1 206 56 q94 55 150 152 l-28 16 ZM105 512 l-105 -105 l22 -23 l83 83 l83 -83 l22 23 l-105 105 Z" /><glyph glyph-name="more" unicode="&#xe507;" d="M319 420 q15 0 25.5 -10.5 q10.5 -10.5 10.5 -25.5 q0 -15 -10.5 -25.5 q-10.5 -10.5 -25.5 -10.5 q-15 0 -25.5 10.5 q-10.5 10.5 -10.5 25.5 q0 15 10.5 25.5 q10.5 10.5 25.5 10.5 ZM319 448 q-27 -1 -45 -19 q-18 -18 -18 -45 q0 -27 18 -45 q18 -18 45 -18 q27 0 45 18 q18 18 18 45 q0 27 -18 45 q-18 18 -45 19 l0 0 ZM64 420 q15 0 25 -10.5 q10 -10.5 10 -25.5 q0 -15 -10 -25.5 q-10 -10.5 -25 -10.5 q-15 0 -25.5 10.5 q-10.5 10.5 -10.5 25.5 q0 15 10.5 25.5 q10.5 10.5 25.5 10.5 ZM64 448 q-27 -1 -45.5 -19 q-18.5 -18 -18.5 -45 q0 -27 18.5 -45 q18.5 -18 45.5 -18 q27 0 45 18 q18 18 18 45 q0 27 -18 45 q-18 18 -45 19 l0 0 ZM575 420 q15 0 25.5 -10.5 q10.5 -10.5 10.5 -25.5 q0 -15 -10.5 -25.5 q-10.5 -10.5 -25.5 -10.5 q-15 0 -25.5 10.5 q-10.5 10.5 -10.5 25.5 q0 15 10.5 25.5 q10.5 10.5 25.5 10.5 ZM575 448 q-27 -1 -45 -19 q-18 -18 -18 -45 q0 -27 18 -45 q18 -18 45 -18 q27 0 45 18 q18 18 18 45 q0 27 -18 45 q-18 18 -45 19 l0 0 Z" /><glyph glyph-name="morefilled" unicode="&#xe537;" d="M319 448 q-27 -1 -45 -19 q-18 -18 -18 -45 q0 -27 18 -45 q18 -18 45 -18 q27 0 45 18 q18 18 18 45 q0 27 -18 45 q-18 18 -45 19 l0 0 ZM64 448 q-27 -1 -45.5 -19 q-18.5 -18 -18.5 -45 q0 -27 18.5 -45 q18.5 -18 45.5 -18 q27 0 45 18 q18 18 18 45 q0 27 -18 45 q-18 18 -45 19 l0 0 ZM575 448 q-27 -1 -45 -19 q-18 -18 -18 -45 q0 -27 18 -45 q18 -18 45 -18 q27 0 45 18 q18 18 18 45 q0 27 -18 45 q-18 18 -45 19 l0 0 Z" /><glyph glyph-name="paperplane" unicode="&#xe503;" d="M0 397 l233 -103 l115 -230 l292 640 l-640 -307 ZM264 303 l312 332 l-230 -497 l-82 165 ZM572 639 l-330 -314 l-166 73 l496 241 Z" /><glyph glyph-name="arrowdown" unicode="&#xe581;" d="M601 576 l39 -41 l-320 -343 l-320 343 l39 41 l281 -301 l281 301 Z" /><glyph glyph-name="arrowleft" unicode="&#xe582;" d="M384 665 l-41 39 l-343 -320 l343 -320 l41 39 l-301 281 l301 281 Z" /><glyph glyph-name="arrowright" unicode="&#xe583;" d="M0 665 l41 39 l343 -320 l-343 -320 l-41 39 l301 281 l-301 281 Z" /><glyph glyph-name="arrowthindown" unicode="&#xe585;" d="M379 252 q-4 4 -10.5 4 q-6.5 0 -11.5 -4 l-149 -133 l0 569 q0 7 -4.5 11.5 q-4.5 4.5 -11.5 4.5 q-7 0 -11.5 -4.5 q-4.5 -4.5 -4.5 -11.5 l0 -569 l-149 132 q-5 5 -11 5 q-6 0 -11 -4.5 q-5 -4.5 -5 -11.5 q0 -7 5 -11 l176 -160 q2 -4 11 -5 q9 1 11 5 l176 160 q5 5 5 11.5 q0 6.5 -5 11.5 Z" /><glyph glyph-name="arrowthinleft" unicode="&#xe586;" d="M188 197 q4 4 4 10.5 q0 6.5 -4 11.5 l-133 149 l569 0 q7 0 11.5 4.5 q4.5 4.5 4.5 11.5 q0 7 -4.5 11.5 q-4.5 4.5 -11.5 4.5 l-569 0 l132 149 q5 5 5 11 q0 6 -4.5 11 q-4.5 5 -11.5 5 q-7 0 -11 -5 l-160 -176 q-4 -2 -5 -11 q1 -9 5 -11 l160 -176 q5 -5 11.5 -5 q6.5 0 11.5 5 Z" /><glyph glyph-name="arrowthinright" unicode="&#xe587;" d="M452 197 q-4 4 -4 10.5 q0 6.5 4 11.5 l133 149 l-569 0 q-7 0 -11.5 4.5 q-4.5 4.5 -4.5 11.5 q0 7 4.5 11.5 q4.5 4.5 11.5 4.5 l569 0 l-132 149 q-5 5 -5 11 q0 6 4.5 11 q4.5 5 11.5 5 q7 0 11 -5 l160 -176 q4 -2 5 -11 q-1 -9 -5 -11 l-160 -176 q-5 -5 -11.5 -5 q-6.5 0 -11.5 5 Z" /><glyph glyph-name="arrowthinup" unicode="&#xe584;" d="M379 516 q-4 -4 -10.5 -4 q-6.5 0 -11.5 4 l-149 133 l0 -569 q0 -7 -4.5 -11.5 q-4.5 -4.5 -11.5 -4.5 q-7 0 -11.5 4.5 q-4.5 4.5 -4.5 11.5 l0 569 l-149 -132 q-5 -5 -11 -5 q-6 0 -11 4.5 q-5 4.5 -5 11.5 q0 7 5 11 l176 160 q2 4 11 5 q9 -1 11 -5 l176 -160 q5 -5 5 -11.5 q0 -6.5 -5 -11.5 Z" /><glyph glyph-name="arrowup" unicode="&#xe580;" d="M601 192 l39 41 l-320 343 l-320 -343 l39 -41 l281 301 l281 -301 Z" /><glyph glyph-name="checkmarkempty" unicode="&#xe472;" d="M148 237 q-8 -8 -17.5 -8 q-9.5 0 -18.5 8 l-112 112 l36 35 l94 -94 l250 251 l35 -36 l-267 -268 Z" /><glyph glyph-name="checkboxfilled" unicode="&#xe442;" d="M416 800 q-177 -4 -294.5 -121.5 q-117.5 -117.5 -121.5 -294.5 q4 -177 121.5 -294.5 q117.5 -117.5 294.5 -121.5 q177 4 294.5 121.5 q117.5 117.5 121.5 294.5 q-4 177 -121.5 294.5 q-117.5 117.5 -294.5 121.5 ZM352 237 q-8 -8 -17.5 -8 q-9.5 0 -18.5 8 l-112 112 l36 35 l94 -94 l250 251 l35 -36 l-267 -268 Z" /><glyph glyph-name="circle" unicode="&#xe411;" d="M416 704 q-177 -4 -294.5 -121.5 q-117.5 -117.5 -121.5 -294.5 q4 -177 121.5 -294.5 q117.5 -117.5 294.5 -121.5 q177 4 294.5 121.5 q117.5 117.5 121.5 294.5 q-4 177 -121.5 294.5 q-117.5 117.5 -294.5 121.5 ZM416 -93 q-162 4 -269.5 111.5 q-107.5 107.5 -111.5 269.5 q4 162 111.5 269.5 q107.5 107.5 269.5 111.5 q162 -4 269.5 -111.5 q107.5 -107.5 111.5 -269.5 q-4 -162 -111.5 -269.5 q-107.5 -107.5 -269.5 -111.5 Z" /><glyph glyph-name="scan" unicode="&#xe612;" d="M928 380 l-832 0 q-14 0 -23 9 q-9 9 -9 23 q0 14 9 23 q9 9 23 9 l832 0 q14 0 23 -9 q9 -9 9 -23 q0 -14 -9 -23 q-9 -9 -23 -9 ZM832 -4 l-192 0 q-14 0 -23 9 q-9 9 -9 23 q0 14 9 23 q9 9 23 9 l192 0 q14 0 23 9 q9 9 9 23 l0 160 q0 14 9 23 q9 9 23 9 q14 0 23 -9 q9 -9 9 -23 l0 -160 q-1 -41 -28 -68 q-27 -27 -68 -28 ZM352 -4 l-160 0 q-41 1 -68 28 q-27 27 -28 68 l0 160 q0 14 9 23 q9 9 23 9 q14 0 23 -9 q9 -9 9 -23 l0 -160 q0 -14 9 -23 q9 -9 23 -9 l160 0 q14 0 23 -9 q9 -9 9 -23 q0 -14 -9 -23 q-9 -9 -23 -9 ZM128 540 q-14 0 -23 9 q-9 9 -9 23 l0 160 q1 41 28 68 q27 27 68 28 l160 0 q14 0 23 -9 q9 -9 9 -23 q0 -14 -9 -23 q-9 -9 -23 -9 l-160 0 q-14 0 -23 -9 q-9 -9 -9 -23 l0 -160 q0 -14 -9 -23 q-9 -9 -23 -9 ZM896 540 q-14 0 -23 9 q-9 9 -9 23 l0 160 q0 14 -9 23 q-9 9 -23 9 l-192 0 q-14 0 -23 9 q-9 9 -9 23 q0 14 9 23 q9 9 23 9 l192 0 q41 -1 68 -28 q27 -27 28 -68 l0 -160 q0 -14 -9 -23 q-9 -9 -23 -9 Z" /><glyph glyph-name="save" unicode="&#xe001;" d="M949 698 q7 -8 8 -18.5 q1 -10.5 1 -16.5 l0 -550 q0 -48 -32.5 -81 q-32.5 -33 -86.5 -33 l-592 0 q-56 0 -88 27.5 q-32 27.5 -32 84.5 l0 599 q0 55 32 88 q32 33 88 33 l543 0 q10 0 20 -2.5 q10 -2.5 14 -6.5 l125 -124 ZM768 735 q-2 32 -34 32 l-446 0 q-16 1 -25 -8 q-9 -9 -9 -22 l0 -167 q0 -10 4.5 -20.5 q4.5 -10.5 13 -19.5 q8.5 -9 19 -14.5 q10.5 -5.5 22.5 -5.5 l389 0 q28 0 47 16.5 q19 16.5 19 48.5 l0 160 ZM768 274 q0 44 -45 45 l-423 0 q-24 0 -35 -12 q-11 -12 -11 -33 l0 -149 l514 0 l0 149 Z" /><glyph glyph-name="newuser_2" unicode="&#xe002;" d="M57 87 l0 0 ZM698 132 l0 -123 l92 0 l0 123 l123 0 l0 92 l-123 0 l0 124 l-92 0 l0 -124 l-124 0 l0 -92 l124 0 ZM664 8 l0 94 l-125 0 l0 151 l125 0 l0 95 q-22 17 -43 29 q41 36 64.5 86 q23.5 50 23.5 111 q-2 109 -70 181.5 q-68 72.5 -170 75.5 q-102 -3 -169.5 -75.5 q-67.5 -72.5 -70.5 -181.5 q0 -61 25 -113.5 q25 -52.5 67 -87.5 q-89 -47 -143.5 -141 q-54.5 -94 -56.5 -224 l543 0 ZM977 87 l0 0 Z" /><glyph glyph-name="newuser_1" unicode="&#xe003;" d="M512 378 q-96 1 -159.5 65 q-63.5 64 -65.5 160 q2 96 65.5 159.5 q63.5 63.5 159.5 65.5 q96 -2 160 -65.5 q64 -63.5 65 -159.5 q-1 -96 -65 -160 q-64 -64 -160 -65 ZM512 763 q-67 -2 -111.5 -46.5 q-44.5 -44.5 -46.5 -111.5 q2 -68 46.5 -112.5 q44.5 -44.5 111.5 -45.5 q67 1 111.5 45.5 q44.5 44.5 46.5 112.5 q-2 66 -46.5 111 q-44.5 45 -111.5 47 ZM142 5 q-15 1 -24 10.5 q-9 9.5 -10 23.5 q4 171 118.5 285.5 q114.5 114.5 285.5 118.5 q14 -1 23.5 -10 q9.5 -9 9.5 -23.5 q0 -14.5 -9.5 -24 q-9.5 -9.5 -23.5 -9.5 q-142 -5 -237.5 -100 q-95.5 -95 -99.5 -237 q0 -14 -9.5 -23.5 q-9.5 -9.5 -23.5 -10.5 ZM844 157 l-259 0 q-14 0 -24 9.5 q-10 9.5 -10 24 q0 14.5 10 24 q10 9.5 24 9.5 l259 0 q14 0 23.5 -9.5 q9.5 -9.5 9.5 -24 q0 -14.5 -9.5 -24 q-9.5 -9.5 -23.5 -9.5 ZM714 27 q-14 1 -23.5 10.5 q-9.5 9.5 -9.5 23.5 l0 259 q0 14 9.5 23.5 q9.5 9.5 24 9.5 q14.5 0 24 -9.5 q9.5 -9.5 9.5 -23.5 l0 -259 q0 -14 -9.5 -23.5 q-9.5 -9.5 -24.5 -10.5 Z" /><glyph glyph-name="new_1" unicode="&#xe004;" d="M523 392 l0 0 ZM192 392 q3 -141 96.5 -234 q93.5 -93 234.5 -97 q140 4 233 97 q93 93 97 232 q-4 142 -97 235.5 q-93 93.5 -233 96.5 q-141 -3 -234.5 -96.5 q-93.5 -93.5 -96.5 -233.5 ZM499 12 q-83 0 -159 33 q-72 30 -128.5 85.5 q-56.5 55.5 -87.5 130.5 q-32 74 -32 157 q0 83 32 158 q31 72 87.5 128 q56.5 56 128.5 88 q76 31 158 31 q82 0 158 -31 q73 -32 129 -88 q56 -56 86 -128 q34 -75 34 -158 q0 -83 -34 -157 q-30 -75 -86 -130.5 q-56 -55.5 -129 -85.5 q-76 -33 -157 -33 ZM499 778 q-154 -4 -255.5 -106 q-101.5 -102 -105.5 -255 q4 -152 105.5 -254 q101.5 -102 255.5 -105 q152 3 253.5 105 q101.5 102 106.5 254 q-5 153 -106.5 255 q-101.5 102 -253.5 106 ZM285 450 l427 0 l0 -65 l-427 0 l0 65 ZM464 204 l0 426 l69 0 l0 -426 l-69 0 Z" /><glyph glyph-name="new_2" unicode="&#xe005;" d="M442 20 q-186 5 -310 128.5 q-124 123.5 -128 309.5 q4 186 128 309.5 q124 123.5 310 128.5 q186 -5 309.5 -128.5 q123.5 -123.5 127.5 -309.5 q-4 -186 -127.5 -309.5 q-123.5 -123.5 -309.5 -128.5 ZM439 814 q-151 -4 -248 -104 q-97 -100 -100 -252 q3 -151 100 -248.5 q97 -97.5 248 -101.5 q151 4 251.5 101.5 q100.5 97.5 104.5 248.5 q-4 152 -104.5 252 q-100.5 100 -251.5 104 ZM617 415 q-8 0 -66 0 l-65 0 l0 -132 q-1 -18 -13 -30.5 q-12 -12.5 -31 -12.5 l0 0 q-19 0 -31 12.5 q-12 12.5 -13 30.5 l0 132 l-131 0 q-19 0 -31 12.5 q-12 12.5 -13 30.5 l0 0 q1 19 13 31.5 q12 12.5 31 12.5 l131 0 l0 131 q1 19 13 31.5 q12 12.5 31 12.5 l0 0 q19 0 31 -12.5 q12 -12.5 13 -31.5 l0 -131 l131 0 q19 0 31 -12.5 q12 -12.5 13 -31.5 l0 0 q-1 -18 -13 -30.5 q-12 -12.5 -31 -12.5 Z" /><glyph glyph-name="delete_1" unicode="&#xe006;" d="M247 660 l511 0 q-6 0 -11 5 q-5 5 -4 12 l-39 -619 q0 6 4 9 q4 3 10 4 l-431 0 q6 -1 10 -4 q4 -3 4 -9 l-39 619 q1 -7 -3.5 -12 q-4.5 -5 -11.5 -5 ZM246 54 q1 -17 12.5 -28 q11.5 -11 28.5 -11 l431 0 q17 0 28.5 11 q11.5 11 12.5 28 l39 619 q1 18 -10.5 30.5 q-11.5 12.5 -29.5 12.5 l-511 0 q-18 0 -29.5 -12.5 q-11.5 -12.5 -10.5 -30.5 l39 -619 ZM865 660 q12 1 20 8.5 q8 7.5 8 19.5 q0 12 -8 20 q-8 8 -20 8 l-725 0 q-12 0 -20 -8 q-8 -8 -8 -20 q0 -12 8 -19.5 q8 -7.5 20 -8.5 l725 0 ZM382 660 l241 0 q18 1 30 12.5 q12 11.5 12 28.5 l0 82 q0 17 -12 28.5 q-12 11.5 -30 12.5 l-241 0 q-18 -1 -30 -12.5 q-12 -11.5 -12 -28.5 l0 -82 q0 -17 12 -28.5 q12 -11.5 30 -12.5 ZM396 783 q0 -6 -4 -10 q-4 -4 -10 -5 l241 0 q-6 1 -10 5 q-4 4 -4 10 l0 -82 q0 7 4 11 q4 4 10 4 l-241 0 q6 0 10 -4 q4 -4 4 -11 l0 82 ZM569 164 q0 -12 8 -20 q8 -8 19.5 -8 q11.5 0 19.5 8 q8 8 8 20 l0 403 q0 12 -8 20 q-8 8 -19.5 8 q-11.5 0 -19.5 -8 q-8 -8 -8 -20 l0 -403 ZM436 567 q0 12 -8 20 q-8 8 -19.5 8 q-11.5 0 -19.5 -8 q-8 -8 -8 -20 l0 -403 q0 -12 8 -20 q8 -8 19.5 -8 q11.5 0 19.5 8 q8 8 8 20 l0 403 Z" /><glyph glyph-name="delete_2" unicode="&#xe007;" d="M758 652 q-7 9 -17.5 10.5 q-10.5 1.5 -19.5 -4.5 q-9 -6 -11 -16.5 q-2 -10.5 3 -19.5 q66 -98 64 -209.5 q-2 -111.5 -71 -206.5 q-71 -92 -178 -125.5 q-107 -33.5 -218 1.5 q-111 38 -176 129 q-65 91 -67 208 q3 120 71 211.5 q68 91.5 182 128.5 q12 3 17 12.5 q5 9.5 2 21 q-3 11.5 -13 16.5 q-10 5 -21 2 q-154 -49 -233.5 -180 q-79.5 -131 -51.5 -291 q34 -158 157 -249.5 q123 -91.5 284 -79.5 q161 19 264 132.5 q103 113.5 106 275.5 q0 63 -18.5 122.5 q-18.5 59.5 -54.5 110.5 ZM523 759 q64 -20 117 -61 q10 -7 20.5 -6 q10.5 1 18 10 q7.5 9 6 20 q-1.5 11 -10.5 18 q-61 49 -136 71 q-11 3 -21 -2 q-10 -5 -13.5 -16.5 q-3.5 -11.5 2 -21 q5.5 -9.5 16.5 -12.5 l1 0 ZM402 781 q5 -3 10 -5 q10 -5 20 0 q5 2 10 5 q7 9 7 20 q0 11 -7 19 q-11 11 -25 8 q-3 -1 -5.5 -1.5 q-2.5 -0.5 -4.5 -2.5 l-5 -4 q-3 -3 -5 -8 q-2 -5 -2 -10.5 q0 -5.5 2 -11 q2 -5.5 5 -9.5 ZM605 602 q-8 8 -19 8 q-11 0 -19 -8 l-145 -145 l-144 145 q-9 7 -19 6.5 q-10 -0.5 -18 -8 q-8 -7.5 -8.5 -18 q-0.5 -10.5 6.5 -18.5 l145 -145 l-145 -145 q-12 -11 -8.5 -27 q3.5 -16 19.5 -20 q16 -4 27 9 l145 144 l144 -144 q9 -8 19 -7.5 q10 0.5 18 8.5 q8 8 8.5 18.5 q0.5 10.5 -7.5 18.5 l-144 145 l144 144 q9 8 9 19.5 q0 11.5 -8 19.5 Z" /><glyph glyph-name="new_2" unicode="&#xe008;" d="M442 726 q-85 -1 -153 -46.5 q-68 -45.5 -102 -123.5 q-32 -79 -16 -159 q16 -80 76 -141 q61 -60 141 -76 q80 -16 159 16 q78 34 123.5 102 q45.5 68 46.5 153 q-3 116 -81 194 q-78 78 -194 81 ZM635 406 l-138 0 q-4 0 -7.5 -3 q-3.5 -3 -3.5 -8 l0 -138 q0 -11 -8 -19 q-8 -8 -19 -8 l-34 0 q-11 0 -19 8 q-8 8 -8 19 l0 138 q-1 5 -3.5 8 q-2.5 3 -8.5 3 l-138 0 q-11 0 -19 8 q-8 8 -8 20 l0 33 q0 12 8 20 q8 8 19 8 l138 0 q6 0 8.5 3 q2.5 3 2.5 8 l0 138 q1 11 9 19 q8 8 19 8 l33 0 q12 0 20 -8 q8 -8 8 -19 l0 -138 q0 -5 3.5 -8 q3.5 -3 7.5 -3 l138 0 q11 0 19 -8.5 q8 -8.5 8 -19.5 l0 -33 q0 -12 -8 -20 q-8 -8 -19 -8 ZM442 17 q-188 5 -311 131 q-123 126 -123 314 q9 181 132.5 300 q123.5 119 305.5 122 q62 -1 122 -18.5 q60 -17.5 112 -52.5 q4 -4 5.5 -9.5 q1.5 -5.5 -2 -10.5 q-3.5 -5 -9 -6 q-5.5 -1 -10.5 2 q-95 62 -205 66.5 q-110 4.5 -210 -47.5 q-100 -55 -156 -149.5 q-56 -94.5 -57 -207.5 q4 -172 119 -287 q115 -115 287 -119 q171 4 286 119 q115 115 119 287 q0 89 -38 171 q-3 5 -1 10.5 q2 5.5 7.5 8.5 q5.5 3 11 0.5 q5.5 -2.5 7.5 -7.5 q41 -87 41 -183 q-5 -184 -127.5 -306.5 q-122.5 -122.5 -305.5 -127.5 ZM793 695 l0 0 ZM777 695 q1 -9 8.5 -13.5 q7.5 -4.5 15 0 q7.5 4.5 7.5 13.5 q0 9 -7.5 13.5 q-7.5 4.5 -15 0 q-7.5 -4.5 -8.5 -13.5 Z" /><glyph glyph-name="newusesr_3" unicode="&#xe009;" d="M859 114 l-112 0 l0 -111 l-74 0 l0 111 l-112 0 l0 74 l112 0 l0 112 l74 0 l0 -112 l112 0 l0 -74 ZM634 339 l2 -37 l-14 0 q-40 32 -88 50.5 q-48 18.5 -98 21.5 q-11 -1 -22.5 -1 q-11.5 0 -23.5 1 q-113 -8 -195.5 -79 q-82.5 -71 -109.5 -181 l438 0 l0 -73 l-519 0 q2 128 71.5 230 q69.5 102 188.5 150 q-71 51 -98 130 q-27 79 -2 163 q28 82 95 131.5 q67 49.5 154 50.5 q87 -1 154.5 -50.5 q67.5 -49.5 95.5 -132.5 q24 -84 -3 -163 q-27 -79 -98 -129 q73 -29 129 -82 l-57 0 ZM601 634 q-3 80 -55.5 132.5 q-52.5 52.5 -132.5 55.5 q-79 -3 -132 -55 q-53 -52 -55 -133 q2 -79 55 -132 q53 -53 132 -54 q38 0 72 13.5 q34 13.5 60.5 40.5 q26.5 27 40.5 61 q14 34 15 71 Z" /><glyph glyph-name="new_3" unicode="&#xe010;" d="M458 895 q26 -12 50 -26 q110 -69 218 -139 q25 -16 30 -39.5 q5 -23.5 -11 -47.5 l-381 -602 q-13 -20 -35 -28 l-10 0 q-15 4 -24 15 q-9 11 -14 25 l-47 138 q-5 18 -22 15 q-78 -8 -157 -15 q-13 -1 -23.5 3 q-10.5 4 -17.5 15 q-13 24 2 46 q53 85 108 171 l1 2 l51 -23 l-97 -155 l42 3 l84 9 q61 6 81 -52 l42 -120 l374 589 l-250 160 l-31 -47 l-42 36 q13 21 27 41 q14 20 43 26 l9 0 ZM247 843 q91 -1 151 -60.5 q60 -59.5 63 -151.5 q-3 -90 -63 -150.5 q-60 -60.5 -151 -62.5 q-91 2 -150.5 62.5 q-59.5 60.5 -61.5 152.5 q2 89 62 149 q60 60 150 61 ZM295 584 q37 0 72 0 q25 0 26 25 q0 18 0 35 q0 20 -7 27.5 q-7 7.5 -27 6.5 l-62 0 l-2 2 l0 70 q-1 25 -25 26 q-22 1 -44.5 0 q-22.5 -1 -24.5 -23 q-1 -17 -1 -33 l0 -41 l-71 -1 q-25 -1 -26 -25 l0 -40 q0 -16 6.5 -22.5 q6.5 -6.5 21.5 -6.5 l68 0 l1 -9 q0 -31 0 -62 q1 -28 29 -28 l37 0 q15 0 22 7.5 q7 7.5 7 23.5 l0 68 Z" /><glyph glyph-name="delete_2" unicode="&#xe011;" d="M673 8 l-497 0 q-11 0 -18.5 7.5 q-7.5 7.5 -8.5 18.5 l-39 719 q-1 11 7 19.5 q8 8.5 20 9.5 l574 0 q12 -1 20 -9.5 q8 -8.5 8 -19.5 l-39 -719 q-1 -11 -8.5 -18.5 q-7.5 -7.5 -18.5 -7.5 ZM202 62 l445 0 l36 665 l-517 0 l36 -665 ZM818 727 l-99 0 q-11 0 -19 8 q-8 8 -8 19.5 q0 11.5 8 19 q8 7.5 19 8.5 l99 0 q11 -1 19 -8.5 q8 -7.5 8 -19 q0 -11.5 -8 -19.5 q-8 -8 -19 -8 ZM130 727 l-99 0 q-12 0 -19.5 8 q-7.5 8 -7.5 19.5 q0 11.5 7.5 19 q7.5 7.5 19.5 8.5 l99 0 q11 -1 19 -8.5 q8 -7.5 8 -19 q0 -11.5 -8 -19.5 q-8 -8 -19 -8 ZM548 734 q-12 0 -19.5 8 q-7.5 8 -8.5 19 l0 65 l-192 0 l0 -65 q0 -11 -8 -19 q-8 -8 -19.5 -8 q-11.5 0 -19 8 q-7.5 8 -8.5 19 l0 92 q1 11 8.5 19 q7.5 8 19.5 8 l247 0 q11 0 19 -8 q8 -8 8 -19 l0 -92 q0 -11 -8 -19 q-8 -8 -19 -8 ZM294 114 q-11 0 -18.5 7 q-7.5 7 -8.5 18 l-28 505 q0 12 7.5 20 q7.5 8 19 9 q11.5 1 19.5 -6.5 q8 -7.5 9 -19.5 l27 -505 q1 -11 -6.5 -19.5 q-7.5 -8.5 -18.5 -8.5 l-2 0 ZM553 114 q-1 0 -1 0 q-12 0 -19 8.5 q-7 8.5 -7 19.5 l27 505 q1 12 9.5 19.5 q8.5 7.5 20 6.5 q11.5 -1 18.5 -9 q7 -8 7 -20 l-28 -505 q-1 -11 -8.5 -18 q-7.5 -7 -18.5 -7 ZM424 114 q-11 0 -19 7.5 q-8 7.5 -8 19.5 l0 505 q0 12 8 19.5 q8 7.5 19.5 7.5 q11.5 0 19 -7.5 q7.5 -7.5 7.5 -19.5 l0 -505 q0 -12 -7.5 -19.5 q-7.5 -7.5 -19.5 -7.5 Z" /><glyph glyph-name="print_1" unicode="&#xe012;" d="M216 675 l-38 0 q-27 0 -44.5 -17.5 q-17.5 -17.5 -18.5 -44.5 l0 -47 q0 -6 4 -10 q4 -4 9 -4 l88 0 q6 0 9.5 4 q3.5 4 3.5 10 l0 96 q0 6 -3.5 9.5 q-3.5 3.5 -9.5 3.5 ZM766 675 l-38 0 q-7 0 -10.5 -3.5 q-3.5 -3.5 -3.5 -9.5 l0 -96 q0 -6 3.5 -10 q3.5 -4 10.5 -4 l87 0 q5 0 9.5 4 q4.5 4 4.5 10 l0 47 q-1 27 -19 44.5 q-18 17.5 -44 17.5 ZM115 615 q0 -1 0 -2 l0 -47 q0 -6 4 -10 q4 -4 9 -4 l88 0 q6 0 9.5 4 q3.5 4 3.5 10 l0 49 l-114 0 ZM728 552 l87 0 q5 0 9.5 4 q4.5 4 4.5 10 l0 49 l-115 0 l0 -49 q0 -6 3.5 -10 q3.5 -4 10.5 -4 ZM737 773 l-99 99 q-4 4 -9 5 l-413 0 q-6 -1 -10 -4.5 q-4 -3.5 -4 -9.5 l0 -297 q0 -6 4 -10 q4 -4 10 -4 l512 0 q5 0 9 4 q4 4 4 10 l0 198 q0 6 -4 9 ZM202 615 l0 -49 q0 -6 4 -10 q4 -4 10 -4 l512 0 q5 0 9 4 q4 4 4 10 l0 49 l-539 0 ZM737 773 l-99 99 q-6 7 -14.5 3.5 q-8.5 -3.5 -8.5 -12.5 l0 -99 q0 -6 3.5 -9.5 q3.5 -3.5 10.5 -3.5 l99 0 q8 0 11.5 8 q3.5 8 -2.5 14 ZM937 254 l-24 262 q-3 28 -22 45.5 q-19 17.5 -47 17.5 l-745 0 q-28 0 -47 -17.5 q-19 -17.5 -22 -45.5 l-23 -262 q-2 -30 18.5 -52 q20.5 -22 50.5 -23 l792 0 q30 1 50 23 q20 22 19 52 ZM933 291 q-4 -13 -14 -24 q-21 -22 -51 -23 l-792 0 q-30 1 -51 23 q-10 11 -15 24 l-3 -37 q-2 -30 18.5 -52 q20.5 -22 50.5 -23 l792 0 q30 1 50 23 q20 22 19 52 l-4 37 ZM156 339 l632 0 l0 -50 l-632 0 l0 50 ZM728 353 l-512 0 q-6 -1 -10 -4.5 q-4 -3.5 -4 -9.5 l0 -307 q0 -6 4 -9.5 q4 -3.5 10 -4.5 l512 0 q5 1 9 4.5 q4 3.5 4 9.5 l0 307 q0 6 -4 9.5 q-4 3.5 -9 4.5 ZM728 353 l-512 0 q-6 -1 -10 -4.5 q-4 -3.5 -4 -9.5 l0 -50 l539 0 l0 50 q0 6 -4 9.5 q-4 3.5 -9 4.5 ZM788 286 q-7 0 -10.5 3.5 q-3.5 3.5 -3.5 9.5 l0 27 l-605 0 l0 -27 q0 -6 -3.5 -9.5 q-3.5 -3.5 -9.5 -3.5 q-6 0 -10 3.5 q-4 3.5 -4 9.5 l0 40 q0 6 4 9.5 q4 3.5 10 4.5 l632 0 q5 -1 9 -4.5 q4 -3.5 4 -9.5 l0 -40 q0 -6 -4 -9.5 q-4 -3.5 -9 -3.5 ZM800 453 q-10 1 -16.5 7.5 q-6.5 6.5 -6.5 16 q0 9.5 6.5 16 q6.5 6.5 16.5 6.5 q10 0 16 -6.5 q6 -6.5 6 -16 q0 -9.5 -6 -16 q-6 -6.5 -16 -7.5 ZM731 453 q-10 1 -16 7.5 q-6 6.5 -6 16 q0 9.5 6 16 q6 6.5 16 6.5 q10 0 16.5 -6.5 q6.5 -6.5 6.5 -16 q0 -9.5 -6.5 -16 q-6.5 -6.5 -16.5 -7.5 ZM663 453 q-10 1 -16 7.5 q-6 6.5 -6 16 q0 9.5 6 16 q6 6.5 15.5 6.5 q9.5 0 16 -6.5 q6.5 -6.5 6.5 -16 q0 -9.5 -6.5 -16 q-6.5 -6.5 -15.5 -7.5 ZM800 499 q-6 0 -10 -2 q11 -7 11 -21 q0 -14 -11 -20 q4 -3 10 -3 q10 1 16 7.5 q6 6.5 6 16 q0 9.5 -6 16 q-6 6.5 -16 6.5 ZM731 499 q-5 0 -10 -2 q12 -7 12 -21 q0 -14 -12 -20 q5 -3 10 -3 q10 1 16.5 7.5 q6.5 6.5 6.5 16 q0 9.5 -6.5 16 q-6.5 6.5 -16.5 6.5 ZM663 499 q-5 0 -11 -2 q13 -7 13 -21 q0 -14 -13 -20 q6 -3 11 -3 q9 1 15.5 7.5 q6.5 6.5 6.5 16 q0 9.5 -6.5 16 q-6.5 6.5 -15.5 6.5 Z" /><glyph glyph-name="save_2" unicode="&#xe013;" d="M840 762 l-118 119 l-635 0 q-33 -1 -55.5 -23.5 q-22.5 -22.5 -23.5 -55.5 l0 -714 q1 -33 23.5 -55.5 q22.5 -22.5 55.5 -22.5 l714 0 q33 0 55.5 22.5 q22.5 22.5 23.5 55.5 l0 635 l-40 39 ZM246 842 l396 0 l0 -238 l-396 0 l0 238 ZM722 49 l-556 0 l0 356 l556 0 l0 -356 ZM840 88 q0 -16 -11.5 -27.5 q-11.5 -11.5 -27.5 -11.5 l-40 0 l0 356 q0 17 -11.5 28.5 q-11.5 11.5 -27.5 11.5 l-556 0 q-17 0 -28 -11.5 q-11 -11.5 -11 -28.5 l0 -356 l-40 0 q-17 0 -28 11.5 q-11 11.5 -12 27.5 l0 714 q1 17 12 28 q11 11 28 12 l119 0 l0 -238 q0 -17 11.5 -28.5 q11.5 -11.5 28.5 -11.5 l396 0 q16 0 28 11.5 q12 11.5 12 28.5 l0 238 l19 0 l139 -139 l0 -615 ZM642 167 l-396 0 l0 -39 l396 0 l0 39 ZM523 643 l80 0 l0 159 l-80 0 l0 -159 ZM484 326 l-238 0 l0 -40 l238 0 l0 40 ZM642 247 l-396 0 l0 -40 l396 0 l0 40 Z" /><glyph glyph-name="delete_3" unicode="&#xe014;" d="M1011 762 l-608 0 q-2 0 -3 -1 l-397 -367 l0 -5 q-1 -2 -3 -2 l0 -9 l0 -2 q1 -1 3 -2 l0 -3 l397 -367 q1 -1 3 -1 l608 0 q5 0 9 3 q4 3 4 10 l0 733 q1 13 -13 13 ZM1002 384 l0 -352 l-592 0 l-381 352 l381 352 l592 0 l0 -352 ZM499 230 l144 141 l141 -141 l16 16 l-141 141 l141 144 l-16 16 l-141 -144 l-144 144 l-16 -16 l144 -144 l-144 -141 l16 -16 Z" /><glyph glyph-name="save_3" unicode="&#xe015;" d="M8 9 l0 875 l137 0 l0 -273 l437 0 l0 273 l82 0 l219 -219 l0 -656 l-875 0 ZM746 447 l-601 0 l0 -274 l601 0 l0 274 ZM363 884 l137 0 l0 -219 l-137 0 l0 219 Z" /><glyph glyph-name="save_4" unicode="&#xe019;" d="M714 889 l-706 0 l0 -881 l882 0 l0 705 l-176 176 ZM569 648 l0 121 l40 0 l0 -200 l-321 0 l0 200 l201 0 l0 -121 l80 0 ZM288 87 l0 201 l321 0 l0 -201 l-321 0 ZM810 87 l-121 0 l0 281 l-481 0 l0 -281 l-120 0 l0 722 l120 0 l0 -320 l481 0 l0 312 l121 -121 l0 -593 Z" /><glyph glyph-name="delete_3" unicode="&#xe020;" d="M143 378 l322 0 l0 -343 l-322 0 l0 343 ZM682 12 l-544 0 q-10 0 -16.5 6.5 q-6.5 6.5 -6.5 16.5 l0 579 q0 10 6.5 17 q6.5 7 16.5 7 l544 0 q10 0 16.5 -7 q6.5 -7 7.5 -17 l0 -579 q-1 -10 -7.5 -16.5 q-6.5 -6.5 -16.5 -6.5 ZM162 58 l496 0 l0 533 l-496 0 l0 -533 ZM684 605 q-3 0 -6 0 l-525 141 q-10 3 -14.5 11.5 q-4.5 8.5 -2.5 17.5 l25 91 q2 10 10.5 15 q8.5 5 17.5 2 l525 -140 q11 -4 15.5 -12 q4.5 -8 1.5 -17 l-24 -92 q-3 -10 -11 -15 q-6 -2 -12 -2 ZM188 786 l479 -129 l12 46 l-479 128 l-12 -45 ZM126 106 l-94 0 q-10 0 -17 7 q-7 7 -7 17 q0 10 7 16.5 q7 6.5 17 6.5 l94 0 q11 0 17 -6.5 q6 -6.5 6 -16.5 q0 -10 -6 -17 q-6 -7 -17 -7 Z" /><glyph glyph-name="new_5" unicode="&#xe016;" d="M174 747 l-149 0 q-5 0 -9 -3.5 q-4 -3.5 -4 -9.5 l0 -569 q0 -5 4 -9 q4 -4 9 -4 l149 0 q6 0 9.5 4 q3.5 4 3.5 9 l0 569 q0 6 -3.5 9.5 q-3.5 3.5 -9.5 3.5 ZM164 188 q0 -2 -2 -2 l-124 0 q-3 0 -3 2 l0 16 q0 2 3 2 l124 0 q2 0 2 -2 l0 -16 ZM164 229 q0 -2 -2 -2 l-124 0 q-3 0 -3 2 l0 16 q0 2 3 3 l124 0 q2 -1 2 -3 l0 -15 l0 -1 ZM164 616 q0 -1 -2 -1 l-124 0 q-3 0 -3 1 l0 71 q0 2 3 2 l124 0 q2 0 2 -2 l0 -71 ZM387 884 l-149 0 q-5 0 -9 -4 q-4 -4 -4 -9 l0 -706 q0 -5 4 -9 q4 -4 9 -4 l149 0 q5 0 9 4 q4 4 4 9 l0 706 q0 5 -4 9 q-4 4 -9 4 ZM377 188 q0 -2 -2 -2 l-124 0 q-3 0 -3 2 l0 16 q0 2 3 2 l124 0 q2 0 2 -2 l0 -16 ZM377 230 q0 -3 -2 -3 l-124 0 q-3 0 -3 3 l0 15 q0 2 3 3 l124 0 q2 -1 2 -3 l0 -15 ZM377 753 q0 -1 -2 -1 l-124 0 q-3 0 -3 1 l0 70 q0 3 3 3 l124 0 q2 0 2 -3 l0 -70 ZM457 186 q-2 0 -2 2 l0 16 q0 2 2 2 l29 0 q0 11 2 21 l-31 0 q-2 0 -2 2 l0 16 q0 2 2 2 l35 0 q12 43 38.5 77 q26.5 34 63.5 57 l0 254 q0 5 -4 9 q-4 4 -9 4 l-136 0 q-6 0 -9.5 -4 q-3.5 -4 -3.5 -9 l0 -470 q0 -5 3.5 -9 q3.5 -4 9.5 -4 l42 0 q-2 17 -3 34 l-27 0 ZM455 587 q0 3 2 3 l112 0 q2 0 2 -3 l0 -70 q0 -1 -2 -1 l-112 0 q-2 0 -2 1 l0 70 ZM708 369 q-77 -2 -128 -52.5 q-51 -50.5 -53 -127.5 q2 -76 53 -127 q51 -51 128 -52 q76 1 127 52 q51 51 52 127 q-1 77 -52 127.5 q-51 50.5 -127 52.5 ZM797 163 l-64 0 l0 -63 q0 -11 -7 -18.5 q-7 -7.5 -18 -7.5 q-11 0 -19 7.5 q-8 7.5 -8 18.5 l0 63 l-62 0 q-11 0 -19 7.5 q-8 7.5 -8 18.5 q0 11 8 18.5 q8 7.5 19 8.5 l62 0 l0 62 q0 11 8 18.5 q8 7.5 19 7.5 q11 0 18 -7.5 q7 -7.5 7 -18.5 l0 -62 l64 0 q11 -1 18 -8.5 q7 -7.5 7 -18.5 q0 -11 -7 -18.5 q-7 -7.5 -18 -7.5 Z" /><glyph glyph-name="save_5" unicode="&#xe017;" d="M844 766 l-119 119 l-638 0 q-33 -1 -55.5 -23.5 q-22.5 -22.5 -23.5 -55.5 l0 -717 q1 -34 23.5 -56.5 q22.5 -22.5 55.5 -22.5 l717 0 q34 0 56.5 22.5 q22.5 22.5 23.5 56.5 l0 637 l-40 40 ZM247 846 l398 0 l0 -239 l-398 0 l0 239 ZM725 49 l-558 0 l0 358 l558 0 l0 -358 ZM844 89 q-1 -17 -12 -28 q-11 -11 -28 -12 l-40 0 l0 358 q0 17 -11 28.5 q-11 11.5 -28 11.5 l-558 0 q-17 0 -28.5 -11.5 q-11.5 -11.5 -11.5 -28.5 l0 -358 l-40 0 q-16 1 -27.5 12 q-11.5 11 -12.5 28 l0 717 q1 16 12.5 27.5 q11.5 11.5 27.5 12.5 l120 0 l0 -239 q0 -17 11.5 -28.5 q11.5 -11.5 28.5 -11.5 l398 0 q16 0 28 11.5 q12 11.5 12 28.5 l0 239 l19 0 l140 -140 l0 -617 ZM645 168 l-398 0 l0 -39 l398 0 l0 39 ZM525 646 l80 0 l0 160 l-80 0 l0 -160 ZM486 328 l-239 0 l0 -40 l239 0 l0 40 ZM645 248 l-398 0 l0 -40 l398 0 l0 40 Z" /><glyph glyph-name="save_6" unicode="&#xe018;" d="M717 839 l0 -338 l-604 0 l0 382 l-19 0 q-37 -1 -61.5 -25.5 q-24.5 -24.5 -24.5 -60.5 l0 -704 q0 -37 24.5 -61.5 q24.5 -24.5 61.5 -24.5 l19 0 l0 388 l605 0 l0 -388 l19 0 q36 0 60.5 24.5 q24.5 24.5 25.5 61.5 l0 658 l-106 88 ZM184 323 l0 -316 l463 0 l0 316 l-463 0 ZM613 91 l-396 0 l0 52 l396 0 l0 -52 ZM613 191 l-396 0 l0 52 l396 0 l0 -52 ZM185 883 l0 -311 l461 0 l0 311 l-461 0 ZM565 685 l-70 0 l0 103 l70 0 l0 -103 Z" /><glyph glyph-name="fanxuan" unicode="&#xe021;" d="M64 832 l466 0 l0 -58 l-466 0 l0 58 ZM64 774 l58 0 l0 -582 l-58 0 l0 582 ZM123 250 l581 0 l0 -58 l-581 0 l0 58 ZM646 483 l58 0 l0 -233 l-58 0 l0 233 ZM239 599 l291 0 l0 -58 l-291 0 l0 58 ZM821 599 l58 0 l0 -582 l-58 0 l0 582 ZM239 75 l582 0 l0 -58 l-582 0 l0 58 Z" /><glyph glyph-name="quanxuan-copy" unicode="&#xe022;" d="M16 824 l465 0 l0 -58 l-465 0 l0 58 ZM16 766 l58 0 l0 -582 l-58 0 l0 582 ZM66 242 l590 0 l0 -58 l-590 0 l0 58 ZM598 475 l58 0 l0 -233 l-58 0 l0 233 ZM772 591 l59 0 l0 -581 l-59 0 l0 581 ZM191 68 l581 0 l0 -58 l-581 0 l0 58 ZM248 649 l233 -232 l-58 -58 l-232 232 l57 58 ZM771 823 l58 -57 l-349 -348 l-58 57 l349 348 Z" /><glyph glyph-name="uniE613" unicode="&#xe613;" d="M177 428.5 q-4 -0.5 -9 -2 q-5 -1.5 -10.5 -4 q-5.5 -2.5 -9.5 -5 q-4 -2.5 -6 -4.5 q-2 -2 -8.5 -8 q-6.5 -6 -12.5 -14 q-6 -8 -9.5 -13.5 q-3.5 -5.5 -7.5 -14 q-4 -8.5 -9 -21 q-5 -12.5 -11 -32.5 q-6 -20 -7.5 -27 q-1.5 -7 -2.5 -15 q-1 -8 -0.5 -16 q0.5 -8 1 -12 q0.5 -4 2 -7.5 q1.5 -3.5 3.5 -6.5 q2 -3 6 -6 q4 -3 10 -5 q6 -2 16 -2 q10 0 14.5 0.5 q4.5 0.5 9.5 2.5 q5 2 13 6.5 q8 4.5 15 11 q7 6.5 13.5 15 q6.5 8.5 10 14.5 q3.5 6 7.5 13 q4 7 8.5 18.5 q4.5 11.5 9 24 q4.5 12.5 7.5 23 q3 10.5 4.5 17.5 q1.5 7 2 16 q0.5 9 0 16.5 q-0.5 7.5 -1.5 11.5 q-1 4 -3 7.5 q-2 3.5 -5 7.5 q-3 4 -6.5 6 q-3.5 2 -7 3 q-3.5 1 -13 1.5 q-9.5 0.5 -13.5 0 ZM616 213 l31 0 l31 89 q8 0 16.5 0 q8.5 0 16.5 0 q23 1 41 14 q18 13 29 32 q5 9 7 16 q2 7 4 17 q1 7 1 13 q0 6 -2 12 q-14 26 -48 25.5 q-34 -0.5 -53 -2.5 l-74 -216 ZM754 213 q21 -1 40.5 -0.5 q19.5 0.5 39.5 7.5 q29 13 47 37.5 q18 24.5 28 53.5 q6 18 10 35.5 q4 17.5 4 36.5 q-1 4 -1.5 9 q-0.5 5 -1.5 10 q-5 13 -16.5 18.5 q-11.5 5.5 -24.5 8.5 l-52 0 l-73 -216 ZM885 213 l32 0 l35 60 l43 0 l-5 -60 l32 0 l18 216 l-27 0 l-128 -216 ZM182 174 l29 1 l19 57 l1 0 q5 -20 22 -20.5 q17 -0.5 33 8.5 q28 17 41.5 42 q13.5 25 19.5 56 q0 8 -0.5 16.5 q-0.5 8.5 -4.5 15.5 q-10 13 -25 15.5 q-15 2.5 -29 -4.5 q-7 -4 -10 -7 q-3 -3 -8 -8 l-2 0 l7 20 l-27 0 l-66 -192 ZM476 287 q5 13 8.5 28 q3.5 15 -0.5 30 q-2 4 -5 7.5 q-3 3.5 -6 6.5 q-15 10 -33.5 7 q-18.5 -3 -32.5 -12 q-18 -12 -30 -31 q-12 -19 -18 -39 q-1 -7 -2 -13.5 q-1 -6.5 -2 -12.5 q-1 -11 2.5 -23 q3.5 -12 14.5 -18 q4 -2 8.5 -2.5 q4.5 -0.5 9.5 -1.5 l10 0 q5 0 10.5 1 q5.5 1 10.5 3 q18 5 30 20 q12 15 20 31 l-31 0 q-3 -7 -6.5 -14 q-3.5 -7 -10.5 -11 q-9 -5 -21.5 -4.5 q-12.5 0.5 -16.5 11.5 q-2 10 0 18.5 q2 8.5 6 17.5 l85 1 ZM477 213 l29 0 q8 28 16 54.5 q8 26.5 24 50.5 l15 14 q2 1 8 4.5 q6 3.5 11 4.5 q9 1 15 -3 q6 -4 5 -14 l-38 -111 l28 0 q10 28 19.5 56.5 q9.5 28.5 19.5 57.5 q1 3 1.5 8 q0.5 5 0.5 8 q-6 21 -25 23 q-19 2 -36 -7 q-7 -4 -10.5 -7 q-3.5 -3 -8.5 -9 l-1 0 l7 23 l-28 0 l-52 -153 ZM712 402 q8 1 20 1 q12 0 21 -4 q7 -5 8 -11 q1 -6 0 -14 q-3 -18 -14 -29 q-11 -11 -28 -16 l-32 0 l25 73 ZM850 403 q5 0 11 0 q6 0 11 -3 q20 -10 18 -32 q-2 -22 -9 -40 q-9 -30 -22.5 -53 q-13.5 -23 -42.5 -35 q-6 -2 -11.5 -2 q-5.5 0 -10.5 1 l56 164 ZM186 400.5 q3 -1.5 6 -5 q3 -3.5 4 -7 q1 -3.5 0.5 -11.5 q-0.5 -8 -2.5 -17.5 q-2 -9.5 -6.5 -23.5 q-4.5 -14 -9.5 -27.5 q-5 -13.5 -10 -24.5 q-5 -11 -10.5 -20 q-5.5 -9 -9.5 -13 q-4 -4 -9.5 -7.5 q-5.5 -3.5 -8 -4 q-2.5 -0.5 -7 -0.5 q-4.5 0 -8 1 q-3.5 1 -6 3 q-2.5 2 -3.5 4.5 q-1 2.5 -1.5 4.5 q-0.5 2 -0.5 7.5 q0 5.5 1.5 14 q1.5 8.5 4 18.5 q2.5 10 6 21.5 q3.5 11.5 11 30.5 q7.5 19 11 25 q3.5 6 6.5 11 q3 5 7.5 9.5 q4.5 4.5 8.5 7 q4 2.5 7.5 4 q3.5 1.5 9.5 1.5 q6 0 9 -1.5 ZM998 300 l-30 0 l34 58 l2 1 l-6 -59 ZM398 309 q6 11 13 18.5 q7 7.5 18 12.5 q8 4 16.5 1.5 q8.5 -2.5 10.5 -12.5 q0 -7 -0.5 -10 q-0.5 -3 -2.5 -10 l-55 0 ZM307 340 q3 -1 5.5 -4 q2.5 -3 3 -6.5 q0.5 -3.5 0.5 -7.5 q0 -4 -1.5 -13 q-1.5 -9 -4 -16 q-2.5 -7 -7.5 -18.5 q-5 -11.5 -9 -17 q-4 -5.5 -7 -9 q-3 -3.5 -8.5 -6.5 q-5.5 -3 -7.5 -4 q-2 -1 -6.5 -1 q-4.5 0 -7 1 q-2.5 1 -5.5 3.5 q-3 2.5 -4 4.5 q-1 2 -2.5 6 q-1.5 4 -1.5 10.5 q0 6.5 3 18 q3 11.5 8 22 q5 10.5 8.5 16 q3.5 5.5 6.5 8 q3 2.5 7.5 6 q4.5 3.5 10 6 q5.5 2.5 11 2.5 q5.5 0 8.5 -1 Z" /></font>
</defs>
</svg>
